# WaveFront *.obj file (generated by Autodesk ATF)

mtllib 534898c3-9cb1-4ef0-960c-de42f7d4de7b.mtl

g Body1

v -13.500000 -113.498429 0.000000
v -11.987664 -115.000000 0.000000
v -11.987664 -115.000000 3.175000
v -13.500000 -113.498429 3.175000
v -13.500000 60.101022 0.000000
v -13.500000 60.101022 3.175000
v -13.500000 69.898980 0.000000
v -12.752552 67.500001 0.000000
v -12.500000 65.000001 0.000000
v -12.752552 62.500001 0.000000
v -12.752552 62.500001 3.175000
v -12.500000 65.000001 3.175000
v -12.752552 67.500001 3.175000
v -13.500000 69.898980 3.175000
v -13.500000 113.498336 0.000000
v -13.500000 113.498336 3.175000
v -11.996898 115.000000 0.000000
v -11.996898 115.000000 3.175000
v 11.962617 115.000000 0.000000
v 11.962617 115.000000 3.175000
v 13.500000 113.445152 0.000000
v 13.500000 113.445152 3.175000
v 13.500000 69.898980 0.000000
v 13.500000 69.898980 3.175000
v 13.500000 60.101022 0.000000
v 12.752552 62.500001 0.000000
v 12.500000 65.000001 0.000000
v 12.752552 67.500001 0.000000
v 12.752552 67.500001 3.175000
v 12.500000 65.000001 3.175000
v 12.752552 62.500001 3.175000
v 13.500000 60.101022 3.175000
v 13.500000 -113.502036 0.000000
v 13.500000 -113.502036 3.175000
v 12.019535 -115.000000 0.000000
v 12.019535 -115.000000 3.175000
vt 0.000000 0.000000 0.000000
vt 0.213117 0.000000 0.000000
vt 0.000000 0.317500 0.000000
vt 0.213117 0.317500 0.000000
vt 0.000000 0.000000 0.000000
vt 17.359945 0.000000 0.000000
vt 0.000000 0.317500 0.000000
vt 17.359945 0.317500 0.000000
vt 0.317500 0.503395 0.000000
vt 0.000000 0.503395 0.000000
vt 0.317500 0.251697 0.000000
vt 0.000000 0.251697 0.000000
vt 0.000000 0.000000 0.000000
vt 0.317500 0.000000 0.000000
vt 0.000000 -0.251697 0.000000
vt 0.317500 -0.251697 0.000000
vt 0.317500 -0.503395 0.000000
vt 0.000000 -0.503395 0.000000
vt 0.000000 0.000000 0.000000
vt 4.359936 0.000000 0.000000
vt 0.000000 0.317500 0.000000
vt 4.359936 0.317500 0.000000
vt 0.000000 0.000000 0.000000
vt 0.212469 0.000000 0.000000
vt 0.000000 0.317500 0.000000
vt 0.212469 0.317500 0.000000
vt 0.000000 0.000000 0.000000
vt 2.395952 0.000000 0.000000
vt 0.000000 0.317500 0.000000
vt 2.395952 0.317500 0.000000
vt 0.000000 0.000000 0.000000
vt 0.218657 0.000000 0.000000
vt 0.000000 0.317500 0.000000
vt 0.218657 0.317500 0.000000
vt 0.000000 0.000000 0.000000
vt 4.354617 0.000000 0.000000
vt 0.000000 0.317500 0.000000
vt 4.354617 0.317500 0.000000
vt 0.317500 4.430386 0.000000
vt 0.000000 4.430386 0.000000
vt 0.317500 4.178688 0.000000
vt 0.000000 4.178688 0.000000
vt 0.000000 3.926991 0.000000
vt 0.317500 3.926991 0.000000
vt 0.000000 3.675293 0.000000
vt 0.317500 3.675293 0.000000
vt 0.317500 3.423596 0.000000
vt 0.000000 3.423596 0.000000
vt 0.000000 0.000000 0.000000
vt 17.360306 0.000000 0.000000
vt 0.000000 0.317500 0.000000
vt 17.360306 0.317500 0.000000
vt 0.000000 0.000000 0.000000
vt 0.210610 0.000000 0.000000
vt 0.000000 0.317500 0.000000
vt 0.210610 0.317500 0.000000
vt 0.000000 0.000000 0.000000
vt 2.400720 0.000000 0.000000
vt 0.000000 0.317500 0.000000
vt 2.400720 0.317500 0.000000
vt 1.201954 -11.500000 0.000000
vt 1.250000 6.500000 0.000000
vt -1.198766 -11.500000 0.000000
vt -1.250000 6.500000 0.000000
vt -1.275255 6.250000 0.000000
vt 1.350000 -11.350204 0.000000
vt 1.350000 6.010102 0.000000
vt 1.275255 6.250000 0.000000
vt 1.196262 11.500000 0.000000
vt 1.275255 6.750000 0.000000
vt 1.350000 6.989898 0.000000
vt 1.350000 11.344515 0.000000
vt -1.199690 11.500000 0.000000
vt -1.275255 6.750000 0.000000
vt -1.350000 6.989898 0.000000
vt -1.350000 11.349834 0.000000
vt -1.350000 6.010102 0.000000
vt -1.350000 -11.349843 0.000000
vt 1.198766 -11.500000 0.000000
vt -1.250000 6.500000 0.000000
vt -1.201954 -11.500000 0.000000
vt -1.275255 6.250000 0.000000
vt -1.350000 6.010102 0.000000
vt 1.350000 -11.349843 0.000000
vt 1.350000 6.010102 0.000000
vt 1.275255 6.250000 0.000000
vt 1.250000 6.500000 0.000000
vt 1.275255 6.750000 0.000000
vt 1.199690 11.500000 0.000000
vt -1.196262 11.500000 0.000000
vt -1.275255 6.750000 0.000000
vt -1.350000 6.989898 0.000000
vt -1.350000 11.344515 0.000000
vt 1.350000 6.989898 0.000000
vt 1.350000 11.349834 0.000000
vt -1.350000 -11.350204 0.000000
vn -0.070458 -0.070963 0.000000
vn -0.070458 -0.070963 0.000000
vn -0.070458 -0.070963 0.000000
vn -0.070458 -0.070963 0.000000
vn -0.100000 0.000000 0.000000
vn -0.100000 0.000000 0.000000
vn -0.100000 0.000000 0.000000
vn -0.100000 0.000000 0.000000
vn -0.092000 -0.039192 0.000000
vn -0.092000 -0.039192 0.000000
vn -0.097980 -0.020000 0.000000
vn -0.097980 -0.020000 0.000000
vn -0.100000 0.000000 0.000000
vn -0.100000 0.000000 0.000000
vn -0.097980 0.020000 0.000000
vn -0.097980 0.020000 0.000000
vn -0.092000 0.039192 0.000000
vn -0.092000 0.039192 0.000000
vn -0.100000 0.000000 0.000000
vn -0.100000 0.000000 0.000000
vn -0.100000 0.000000 0.000000
vn -0.100000 0.000000 0.000000
vn -0.070677 0.070745 0.000000
vn -0.070677 0.070745 0.000000
vn -0.070677 0.070745 0.000000
vn -0.070677 0.070745 0.000000
vn 0.000000 0.100000 0.000000
vn 0.000000 0.100000 0.000000
vn 0.000000 0.100000 0.000000
vn 0.000000 0.100000 0.000000
vn 0.071109 0.070310 0.000000
vn 0.071109 0.070310 0.000000
vn 0.071109 0.070310 0.000000
vn 0.071109 0.070310 0.000000
vn 0.100000 0.000000 0.000000
vn 0.100000 0.000000 0.000000
vn 0.100000 0.000000 0.000000
vn 0.100000 0.000000 0.000000
vn 0.092000 0.039192 0.000000
vn 0.092000 0.039192 0.000000
vn 0.097980 0.020000 0.000000
vn 0.097980 0.020000 0.000000
vn 0.100000 -0.000000 0.000000
vn 0.100000 -0.000000 0.000000
vn 0.097980 -0.020000 0.000000
vn 0.097980 -0.020000 0.000000
vn 0.092000 -0.039192 0.000000
vn 0.092000 -0.039192 0.000000
vn 0.100000 0.000000 0.000000
vn 0.100000 0.000000 0.000000
vn 0.100000 0.000000 0.000000
vn 0.100000 0.000000 0.000000
vn 0.071125 -0.070294 0.000000
vn 0.071125 -0.070294 0.000000
vn 0.071125 -0.070294 0.000000
vn 0.071125 -0.070294 0.000000
vn 0.000000 -0.100000 0.000000
vn 0.000000 -0.100000 0.000000
vn 0.000000 -0.100000 0.000000
vn 0.000000 -0.100000 0.000000
vn 0.000000 0.000000 0.100000
vn 0.000000 0.000000 0.100000
vn 0.000000 0.000000 0.100000
vn 0.000000 0.000000 0.100000
vn 0.000000 0.000000 0.100000
vn 0.000000 0.000000 0.100000
vn 0.000000 0.000000 0.100000
vn 0.000000 0.000000 0.100000
vn 0.000000 0.000000 0.100000
vn 0.000000 0.000000 0.100000
vn 0.000000 0.000000 0.100000
vn 0.000000 0.000000 0.100000
vn 0.000000 0.000000 0.100000
vn 0.000000 0.000000 0.100000
vn 0.000000 0.000000 0.100000
vn 0.000000 0.000000 0.100000
vn 0.000000 0.000000 0.100000
vn 0.000000 0.000000 0.100000
vn 0.000000 0.000000 -0.100000
vn 0.000000 0.000000 -0.100000
vn 0.000000 0.000000 -0.100000
vn 0.000000 0.000000 -0.100000
vn 0.000000 0.000000 -0.100000
vn 0.000000 0.000000 -0.100000
vn 0.000000 0.000000 -0.100000
vn 0.000000 0.000000 -0.100000
vn 0.000000 0.000000 -0.100000
vn 0.000000 0.000000 -0.100000
vn 0.000000 0.000000 -0.100000
vn 0.000000 0.000000 -0.100000
vn 0.000000 0.000000 -0.100000
vn 0.000000 0.000000 -0.100000
vn 0.000000 0.000000 -0.100000
vn 0.000000 0.000000 -0.100000
vn 0.000000 0.000000 -0.100000
vn 0.000000 0.000000 -0.100000
usemtl Steel_-_Satin
f 1/1/1 2/2/2 4/3/3
f 4/3/3 2/2/2 3/4/4
f 5/5/5 1/6/6 6/7/7
f 6/7/7 1/6/6 4/8/8
f 14/9/9 7/10/10 13/11/11
f 13/11/11 7/10/10 8/12/12
f 13/11/11 8/12/12 9/13/13
f 13/11/11 9/13/13 12/14/14
f 12/14/14 9/13/13 10/15/15
f 12/14/14 10/15/15 11/16/16
f 11/16/16 10/15/15 6/17/17
f 6/17/17 10/15/15 5/18/18
f 15/19/19 7/20/20 16/21/21
f 16/21/21 7/20/20 14/22/22
f 17/23/23 15/24/24 18/25/25
f 18/25/25 15/24/24 16/26/26
f 19/27/27 17/28/28 20/29/29
f 20/29/29 17/28/28 18/30/30
f 21/31/31 19/32/32 22/33/33
f 22/33/33 19/32/32 20/34/34
f 23/35/35 21/36/36 24/37/37
f 24/37/37 21/36/36 22/38/38
f 32/39/39 25/40/40 31/41/41
f 31/41/41 25/40/40 26/42/42
f 31/41/41 26/42/42 27/43/43
f 31/41/41 27/43/43 30/44/44
f 30/44/44 27/43/43 28/45/45
f 30/44/44 28/45/45 29/46/46
f 29/46/46 28/45/45 24/47/47
f 24/47/47 28/45/45 23/48/48
f 33/49/49 25/50/50 34/51/51
f 34/51/51 25/50/50 32/52/52
f 35/53/53 33/54/54 36/55/55
f 36/55/55 33/54/54 34/56/56
f 2/57/57 35/58/58 3/59/59
f 3/59/59 35/58/58 36/60/60
f 36/61/61 30/62/62 3/63/63
f 3/63/63 30/62/62 12/64/64
f 3/63/63 12/64/64 11/65/65
f 34/66/66 32/67/67 36/61/61
f 36/61/61 32/67/67 31/68/68
f 36/61/61 31/68/68 30/62/62
f 12/64/64 30/62/62 20/69/69
f 20/69/69 30/62/62 29/70/70
f 20/69/69 29/70/70 24/71/71
f 24/71/71 22/72/72 20/69/69
f 20/69/69 18/73/73 12/64/64
f 12/64/64 18/73/73 13/74/74
f 13/74/74 18/73/73 14/75/75
f 14/75/75 18/73/73 16/76/76
f 11/65/65 6/77/77 3/63/63
f 3/63/63 6/77/77 4/78/78
f 2/79/79 27/80/80 35/81/81
f 35/81/81 27/80/80 26/82/82
f 35/81/81 26/82/82 25/83/83
f 1/84/84 5/85/85 2/79/79
f 2/79/79 5/85/85 10/86/86
f 2/79/79 10/86/86 9/87/87
f 8/88/88 17/89/89 9/87/87
f 9/87/87 17/89/89 19/90/90
f 9/87/87 19/90/90 27/80/80
f 27/80/80 19/90/90 28/91/91
f 28/91/91 19/90/90 23/92/92
f 23/92/92 19/90/90 21/93/93
f 8/88/88 7/94/94 17/89/89
f 17/89/89 7/94/94 15/95/95
f 25/83/83 33/96/96 35/81/81
f 27/80/80 2/79/79 9/87/87

# 36 vertices
# 96 texture params
# 96 normals
# 68 facets

# 1 groups
