# WaveFront *.obj file (generated by Autodesk ATF)

mtllib 9572962f-b41a-4463-ba4c-730a1b31efe1.mtl

g Body1

v 4.000000 -0.000000 0.156250
v 4.000000 -0.040440 0.150926
v 4.000000 -0.078125 0.135316
v 4.000000 -0.110485 0.110485
v 4.000000 -0.135316 0.078125
v 4.000000 -0.150926 0.040440
v 4.000000 -0.156250 -0.000000
v 4.000000 -0.150926 -0.040440
v 4.000000 -0.135316 -0.078125
v 4.000000 -0.110485 -0.110485
v 4.000000 -0.078125 -0.135316
v 4.000000 -0.040440 -0.150926
v 4.000000 0.000000 -0.156250
v 4.000000 0.040440 -0.150926
v 4.000000 0.078125 -0.135316
v 4.000000 0.110485 -0.110485
v 4.000000 0.135316 -0.078125
v 4.000000 0.150926 -0.040440
v 4.000000 0.156250 -0.000000
v 4.000000 0.150926 0.040440
v 4.000000 0.135316 0.078125
v 4.000000 0.110485 0.110485
v 4.000000 0.078125 0.135316
v 4.000000 0.040440 0.150926
v 0.000000 -0.000000 0.156250
v 0.000000 0.040440 0.150926
v 0.000000 0.078125 0.135316
v 0.000000 0.110485 0.110485
v 0.000000 0.135316 0.078125
v 0.000000 0.150926 0.040440
v 0.000000 0.156250 -0.000000
v 0.000000 0.150926 -0.040440
v 0.000000 0.135316 -0.078125
v 0.000000 0.110485 -0.110485
v 0.000000 0.078125 -0.135316
v 0.000000 0.040440 -0.150926
v 0.000000 0.000000 -0.156250
v 0.000000 -0.040440 -0.150926
v 0.000000 -0.078125 -0.135316
v 0.000000 -0.110485 -0.110485
v 0.000000 -0.135316 -0.078125
v 0.000000 -0.150926 -0.040440
v 0.000000 -0.156250 -0.000000
v 0.000000 -0.150926 0.040440
v 0.000000 -0.135316 0.078125
v 0.000000 -0.110485 0.110485
v 0.000000 -0.078125 0.135316
v 0.000000 -0.040440 0.150926
v 4.000000 -0.000000 0.164350
v 4.000000 0.042537 0.158750
v 4.000000 0.082175 0.142331
v 4.000000 0.116213 0.116213
v 4.000000 0.142331 0.082175
v 4.000000 0.158750 0.042537
v 4.000000 0.164350 -0.000000
v 4.000000 0.158750 -0.042537
v 4.000000 0.142331 -0.082175
v 4.000000 0.116213 -0.116213
v 4.000000 0.082175 -0.142331
v 4.000000 0.042537 -0.158750
v 4.000000 0.000000 -0.164350
v 4.000000 -0.042537 -0.158750
v 4.000000 -0.082175 -0.142331
v 4.000000 -0.116213 -0.116213
v 4.000000 -0.142331 -0.082175
v 4.000000 -0.158750 -0.042537
v 4.000000 -0.164350 -0.000000
v 4.000000 -0.158750 0.042537
v 4.000000 -0.142331 0.082175
v 4.000000 -0.116213 0.116213
v 4.000000 -0.082175 0.142331
v 4.000000 -0.042537 0.158750
v 0.000000 -0.000000 0.164350
v 0.000000 -0.042537 0.158750
v 0.000000 -0.082175 0.142331
v 0.000000 -0.116213 0.116213
v 0.000000 -0.142331 0.082175
v 0.000000 -0.158750 0.042537
v 0.000000 -0.164350 -0.000000
v 0.000000 -0.158750 -0.042537
v 0.000000 -0.142331 -0.082175
v 0.000000 -0.116213 -0.116213
v 0.000000 -0.082175 -0.142331
v 0.000000 -0.042537 -0.158750
v 0.000000 0.000000 -0.164350
v 0.000000 0.042537 -0.158750
v 0.000000 0.082175 -0.142331
v 0.000000 0.116213 -0.116213
v 0.000000 0.142331 -0.082175
v 0.000000 0.158750 -0.042537
v 0.000000 0.164350 -0.000000
v 0.000000 0.158750 0.042537
v 0.000000 0.142331 0.082175
v 0.000000 0.116213 0.116213
v 0.000000 0.082175 0.142331
v 0.000000 0.042537 0.158750
vt 10.160000 -1.142918 0.000000
vt 0.000000 -1.142918 0.000000
vt 10.160000 -1.246820 0.000000
vt 0.000000 -1.246820 0.000000
vt 10.160000 1.246820 0.000000
vt 0.000000 1.246820 0.000000
vt 10.160000 1.142918 0.000000
vt 0.000000 1.142918 0.000000
vt 10.160000 1.039016 0.000000
vt 0.000000 1.039016 0.000000
vt 10.160000 0.935115 0.000000
vt 0.000000 0.935115 0.000000
vt 10.160000 0.831213 0.000000
vt 0.000000 0.831213 0.000000
vt 10.160000 0.727311 0.000000
vt -0.000000 0.727311 0.000000
vt 10.160000 0.623410 0.000000
vt 0.000000 0.623410 0.000000
vt 10.160000 0.519508 0.000000
vt -0.000000 0.519508 0.000000
vt 10.160000 0.415607 0.000000
vt 0.000000 0.415607 0.000000
vt 10.160000 0.311705 0.000000
vt 0.000000 0.311705 0.000000
vt 10.160000 0.207803 0.000000
vt 0.000000 0.207803 0.000000
vt 10.160000 0.103902 0.000000
vt 0.000000 0.103902 0.000000
vt 10.160000 0.000000 0.000000
vt 0.000000 0.000000 0.000000
vt 10.160000 -0.103902 0.000000
vt 0.000000 -0.103902 0.000000
vt 10.160000 -0.207803 0.000000
vt 0.000000 -0.207803 0.000000
vt 10.160000 -0.311705 0.000000
vt -0.000000 -0.311705 0.000000
vt 10.160000 -0.415607 0.000000
vt 0.000000 -0.415607 0.000000
vt 10.160000 -0.519508 0.000000
vt 0.000000 -0.519508 0.000000
vt 10.160000 -0.623410 0.000000
vt 0.000000 -0.623410 0.000000
vt 10.160000 -0.727311 0.000000
vt 0.000000 -0.727311 0.000000
vt 10.160000 -0.831213 0.000000
vt 0.000000 -0.831213 0.000000
vt 10.160000 -0.935115 0.000000
vt 0.000000 -0.935115 0.000000
vt 10.160000 -1.039016 0.000000
vt 0.000000 -1.039016 0.000000
vt -10.160000 1.202167 0.000000
vt -0.000000 1.202167 0.000000
vt -10.160000 1.311455 0.000000
vt -0.000000 1.311455 0.000000
vt -10.160000 -1.311455 0.000000
vt -0.000000 -1.311455 0.000000
vt -10.160000 -1.202167 0.000000
vt -0.000000 -1.202167 0.000000
vt -10.160000 -1.092879 0.000000
vt -0.000000 -1.092879 0.000000
vt -10.160000 -0.983591 0.000000
vt -0.000000 -0.983591 0.000000
vt -10.160000 -0.874303 0.000000
vt -0.000000 -0.874303 0.000000
vt -10.160000 -0.765015 0.000000
vt -0.000000 -0.765015 0.000000
vt -10.160000 -0.655727 0.000000
vt -0.000000 -0.655727 0.000000
vt -10.160000 -0.546439 0.000000
vt -0.000000 -0.546439 0.000000
vt -10.160000 -0.437152 0.000000
vt -0.000000 -0.437152 0.000000
vt -10.160000 -0.327864 0.000000
vt -0.000000 -0.327864 0.000000
vt -10.160000 -0.218576 0.000000
vt -0.000000 -0.218576 0.000000
vt -10.160000 -0.109288 0.000000
vt -0.000000 -0.109288 0.000000
vt -10.160000 0.000000 0.000000
vt -0.000000 0.000000 0.000000
vt -10.160000 0.109288 0.000000
vt -0.000000 0.109288 0.000000
vt -10.160000 0.218576 0.000000
vt -0.000000 0.218576 0.000000
vt -10.160000 0.327864 0.000000
vt -0.000000 0.327864 0.000000
vt -10.160000 0.437152 0.000000
vt -0.000000 0.437152 0.000000
vt -10.160000 0.546439 0.000000
vt -0.000000 0.546439 0.000000
vt -10.160000 0.655727 0.000000
vt -0.000000 0.655727 0.000000
vt -10.160000 0.765015 0.000000
vt -0.000000 0.765015 0.000000
vt -10.160000 0.874303 0.000000
vt -0.000000 0.874303 0.000000
vt -10.160000 0.983591 0.000000
vt -0.000000 0.983591 0.000000
vt -10.160000 1.092879 0.000000
vt -0.000000 1.092879 0.000000
vt -0.383352 -0.102719 0.000000
vt -0.396875 -0.000000 0.000000
vt -0.417449 -0.000000 0.000000
vt -0.383352 0.102719 0.000000
vt -0.403225 0.108044 0.000000
vt -0.343704 0.198437 0.000000
vt -0.361521 0.208725 0.000000
vt -0.280633 0.280633 0.000000
vt -0.295181 0.295181 0.000000
vt -0.198438 0.343704 0.000000
vt -0.208724 0.361521 0.000000
vt -0.102719 0.383352 0.000000
vt -0.108044 0.403225 0.000000
vt 0.000000 0.396875 0.000000
vt 0.000000 0.417449 0.000000
vt 0.108044 0.403225 0.000000
vt 0.102719 0.383352 0.000000
vt 0.208725 0.361521 0.000000
vt 0.198437 0.343704 0.000000
vt 0.295181 0.295181 0.000000
vt 0.280633 0.280633 0.000000
vt 0.361521 0.208724 0.000000
vt 0.343704 0.198438 0.000000
vt 0.403225 0.108044 0.000000
vt 0.383352 0.102719 0.000000
vt 0.417449 0.000000 0.000000
vt 0.396875 0.000000 0.000000
vt 0.403225 -0.108044 0.000000
vt 0.383352 -0.102719 0.000000
vt 0.343704 -0.198437 0.000000
vt 0.361521 -0.208725 0.000000
vt 0.280633 -0.280633 0.000000
vt 0.295181 -0.295181 0.000000
vt 0.198438 -0.343704 0.000000
vt 0.208724 -0.361521 0.000000
vt 0.102719 -0.383352 0.000000
vt 0.108044 -0.403225 0.000000
vt 0.000000 -0.396875 0.000000
vt 0.000000 -0.417449 0.000000
vt -0.108044 -0.403225 0.000000
vt -0.102719 -0.383352 0.000000
vt -0.208725 -0.361521 0.000000
vt -0.198437 -0.343704 0.000000
vt -0.295181 -0.295181 0.000000
vt -0.280633 -0.280633 0.000000
vt -0.361521 -0.208724 0.000000
vt -0.343704 -0.198438 0.000000
vt -0.403225 -0.108044 0.000000
vt 0.383352 -0.102719 0.000000
vt 0.403225 -0.108044 0.000000
vt 0.396875 -0.000000 0.000000
vt 0.417449 -0.000000 0.000000
vt 0.383352 0.102719 0.000000
vt 0.403225 0.108044 0.000000
vt 0.343704 0.198437 0.000000
vt 0.361521 0.208725 0.000000
vt 0.280633 0.280633 0.000000
vt 0.295181 0.295181 0.000000
vt 0.198438 0.343704 0.000000
vt 0.208724 0.361521 0.000000
vt 0.102719 0.383352 0.000000
vt 0.108044 0.403225 0.000000
vt -0.000000 0.396875 0.000000
vt -0.000000 0.417449 0.000000
vt -0.108044 0.403225 0.000000
vt 0.343704 -0.198438 0.000000
vt 0.361521 -0.208724 0.000000
vt 0.280633 -0.280633 0.000000
vt 0.295181 -0.295181 0.000000
vt 0.198437 -0.343704 0.000000
vt 0.208725 -0.361521 0.000000
vt 0.102719 -0.383352 0.000000
vt 0.108044 -0.403225 0.000000
vt -0.000000 -0.396875 0.000000
vt -0.000000 -0.417449 0.000000
vt -0.108044 -0.403225 0.000000
vt -0.102719 -0.383352 0.000000
vt -0.208724 -0.361521 0.000000
vt -0.198438 -0.343704 0.000000
vt -0.295181 -0.295181 0.000000
vt -0.280633 -0.280633 0.000000
vt -0.361521 -0.208725 0.000000
vt -0.343704 -0.198437 0.000000
vt -0.403225 -0.108044 0.000000
vt -0.383352 -0.102719 0.000000
vt -0.417449 0.000000 0.000000
vt -0.396875 0.000000 0.000000
vt -0.383352 0.102719 0.000000
vt -0.403225 0.108044 0.000000
vt -0.343704 0.198438 0.000000
vt -0.361521 0.208724 0.000000
vt -0.280633 0.280633 0.000000
vt -0.295181 0.295181 0.000000
vt -0.198437 0.343704 0.000000
vt -0.208725 0.361521 0.000000
vt -0.102719 0.383352 0.000000
vn 0.000000 0.657400 -2.453452
vn 0.000000 0.657400 -2.453452
vn 0.000000 0.000000 -2.540000
vn 0.000000 0.000000 -2.540000
vn 0.000000 -0.657400 -2.453452
vn 0.000000 -0.657400 -2.453452
vn 0.000000 -1.270000 -2.199705
vn 0.000000 -1.270000 -2.199705
vn 0.000000 -1.796051 -1.796051
vn 0.000000 -1.796051 -1.796051
vn 0.000000 -2.199705 -1.270000
vn 0.000000 -2.199705 -1.270000
vn 0.000000 -2.453452 -0.657400
vn 0.000000 -2.453452 -0.657400
vn 0.000000 -2.540000 0.000000
vn 0.000000 -2.540000 0.000000
vn 0.000000 -2.453452 0.657400
vn 0.000000 -2.453452 0.657400
vn 0.000000 -2.199705 1.270000
vn 0.000000 -2.199705 1.270000
vn 0.000000 -1.796051 1.796051
vn 0.000000 -1.796051 1.796051
vn 0.000000 -1.270000 2.199705
vn 0.000000 -1.270000 2.199705
vn 0.000000 -0.657400 2.453452
vn 0.000000 -0.657400 2.453452
vn 0.000000 -0.000000 2.540000
vn 0.000000 -0.000000 2.540000
vn 0.000000 0.657400 2.453452
vn 0.000000 0.657400 2.453452
vn 0.000000 1.270000 2.199705
vn 0.000000 1.270000 2.199705
vn 0.000000 1.796051 1.796051
vn 0.000000 1.796051 1.796051
vn 0.000000 2.199705 1.270000
vn 0.000000 2.199705 1.270000
vn 0.000000 2.453452 0.657400
vn 0.000000 2.453452 0.657400
vn 0.000000 2.540000 0.000000
vn 0.000000 2.540000 0.000000
vn 0.000000 2.453452 -0.657400
vn 0.000000 2.453452 -0.657400
vn 0.000000 2.199705 -1.270000
vn 0.000000 2.199705 -1.270000
vn 0.000000 1.796051 -1.796051
vn 0.000000 1.796051 -1.796051
vn 0.000000 1.270000 -2.199705
vn 0.000000 1.270000 -2.199705
vn 0.000000 0.657400 2.453452
vn 0.000000 0.657400 2.453452
vn 0.000000 0.000000 2.540000
vn 0.000000 0.000000 2.540000
vn 0.000000 -0.657400 2.453452
vn 0.000000 -0.657400 2.453452
vn 0.000000 -1.270000 2.199705
vn 0.000000 -1.270000 2.199705
vn 0.000000 -1.796051 1.796051
vn 0.000000 -1.796051 1.796051
vn 0.000000 -2.199705 1.270000
vn 0.000000 -2.199705 1.270000
vn 0.000000 -2.453452 0.657400
vn 0.000000 -2.453452 0.657400
vn 0.000000 -2.540000 -0.000000
vn 0.000000 -2.540000 -0.000000
vn 0.000000 -2.453452 -0.657400
vn 0.000000 -2.453452 -0.657400
vn 0.000000 -2.199705 -1.270000
vn 0.000000 -2.199705 -1.270000
vn 0.000000 -1.796051 -1.796051
vn 0.000000 -1.796051 -1.796051
vn 0.000000 -1.270000 -2.199705
vn 0.000000 -1.270000 -2.199705
vn 0.000000 -0.657400 -2.453452
vn 0.000000 -0.657400 -2.453452
vn -0.000000 0.000000 -2.540000
vn -0.000000 0.000000 -2.540000
vn -0.000000 0.657400 -2.453452
vn -0.000000 0.657400 -2.453452
vn -0.000000 1.270000 -2.199705
vn -0.000000 1.270000 -2.199705
vn -0.000000 1.796051 -1.796051
vn -0.000000 1.796051 -1.796051
vn -0.000000 2.199705 -1.270000
vn -0.000000 2.199705 -1.270000
vn -0.000000 2.453452 -0.657400
vn -0.000000 2.453452 -0.657400
vn -0.000000 2.540000 -0.000000
vn -0.000000 2.540000 -0.000000
vn 0.000000 2.453452 0.657400
vn 0.000000 2.453452 0.657400
vn 0.000000 2.199705 1.270000
vn 0.000000 2.199705 1.270000
vn 0.000000 1.796051 1.796051
vn 0.000000 1.796051 1.796051
vn 0.000000 1.270000 2.199705
vn 0.000000 1.270000 2.199705
vn 2.540000 0.000000 0.000000
vn 2.540000 0.000000 0.000000
vn 2.540000 0.000000 0.000000
vn 2.540000 0.000000 0.000000
vn 2.540000 0.000000 0.000000
vn 2.540000 0.000000 0.000000
vn 2.540000 0.000000 0.000000
vn 2.540000 0.000000 0.000000
vn 2.540000 0.000000 0.000000
vn 2.540000 0.000000 0.000000
vn 2.540000 0.000000 0.000000
vn 2.540000 0.000000 0.000000
vn 2.540000 0.000000 0.000000
vn 2.540000 0.000000 0.000000
vn 2.540000 0.000000 0.000000
vn 2.540000 0.000000 0.000000
vn 2.540000 0.000000 0.000000
vn 2.540000 0.000000 0.000000
vn 2.540000 0.000000 0.000000
vn 2.540000 0.000000 0.000000
vn 2.540000 0.000000 0.000000
vn 2.540000 0.000000 0.000000
vn 2.540000 0.000000 0.000000
vn 2.540000 0.000000 0.000000
vn 2.540000 0.000000 0.000000
vn 2.540000 0.000000 0.000000
vn 2.540000 0.000000 0.000000
vn 2.540000 0.000000 0.000000
vn 2.540000 0.000000 0.000000
vn 2.540000 0.000000 0.000000
vn 2.540000 0.000000 0.000000
vn 2.540000 0.000000 0.000000
vn 2.540000 0.000000 0.000000
vn 2.540000 0.000000 0.000000
vn 2.540000 0.000000 0.000000
vn 2.540000 0.000000 0.000000
vn 2.540000 0.000000 0.000000
vn 2.540000 0.000000 0.000000
vn 2.540000 0.000000 0.000000
vn 2.540000 0.000000 0.000000
vn 2.540000 0.000000 0.000000
vn 2.540000 0.000000 0.000000
vn 2.540000 0.000000 0.000000
vn 2.540000 0.000000 0.000000
vn 2.540000 0.000000 0.000000
vn 2.540000 0.000000 0.000000
vn 2.540000 0.000000 0.000000
vn 2.540000 0.000000 0.000000
vn -2.540000 0.000000 0.000000
vn -2.540000 0.000000 0.000000
vn -2.540000 0.000000 0.000000
vn -2.540000 0.000000 0.000000
vn -2.540000 0.000000 0.000000
vn -2.540000 0.000000 0.000000
vn -2.540000 0.000000 0.000000
vn -2.540000 0.000000 0.000000
vn -2.540000 0.000000 0.000000
vn -2.540000 0.000000 0.000000
vn -2.540000 0.000000 0.000000
vn -2.540000 0.000000 0.000000
vn -2.540000 0.000000 0.000000
vn -2.540000 0.000000 0.000000
vn -2.540000 0.000000 0.000000
vn -2.540000 0.000000 0.000000
vn -2.540000 0.000000 0.000000
vn -2.540000 0.000000 0.000000
vn -2.540000 0.000000 0.000000
vn -2.540000 0.000000 0.000000
vn -2.540000 0.000000 0.000000
vn -2.540000 0.000000 0.000000
vn -2.540000 0.000000 0.000000
vn -2.540000 0.000000 0.000000
vn -2.540000 0.000000 0.000000
vn -2.540000 0.000000 0.000000
vn -2.540000 0.000000 0.000000
vn -2.540000 0.000000 0.000000
vn -2.540000 0.000000 0.000000
vn -2.540000 0.000000 0.000000
vn -2.540000 0.000000 0.000000
vn -2.540000 0.000000 0.000000
vn -2.540000 0.000000 0.000000
vn -2.540000 0.000000 0.000000
vn -2.540000 0.000000 0.000000
vn -2.540000 0.000000 0.000000
vn -2.540000 0.000000 0.000000
vn -2.540000 0.000000 0.000000
vn -2.540000 0.000000 0.000000
vn -2.540000 0.000000 0.000000
vn -2.540000 0.000000 0.000000
vn -2.540000 0.000000 0.000000
vn -2.540000 0.000000 0.000000
vn -2.540000 0.000000 0.000000
vn -2.540000 0.000000 0.000000
vn -2.540000 0.000000 0.000000
vn -2.540000 0.000000 0.000000
vn -2.540000 0.000000 0.000000
usemtl Steel_-_Satin
f 2/1/1 48/2/2 1/3/3
f 1/3/3 48/2/2 25/4/4
f 1/5/3 25/6/4 24/7/5
f 24/7/5 25/6/4 26/8/6
f 24/7/5 26/8/6 23/9/7
f 23/9/7 26/8/6 27/10/8
f 23/9/7 27/10/8 22/11/9
f 22/11/9 27/10/8 28/12/10
f 22/11/9 28/12/10 21/13/11
f 21/13/11 28/12/10 29/14/12
f 21/13/11 29/14/12 20/15/13
f 20/15/13 29/14/12 30/16/14
f 20/15/13 30/16/14 19/17/15
f 19/17/15 30/16/14 31/18/16
f 19/17/15 31/18/16 18/19/17
f 18/19/17 31/18/16 32/20/18
f 18/19/17 32/20/18 17/21/19
f 17/21/19 32/20/18 33/22/20
f 17/21/19 33/22/20 16/23/21
f 16/23/21 33/22/20 34/24/22
f 16/23/21 34/24/22 15/25/23
f 15/25/23 34/24/22 35/26/24
f 15/25/23 35/26/24 14/27/25
f 14/27/25 35/26/24 36/28/26
f 14/27/25 36/28/26 13/29/27
f 13/29/27 36/28/26 37/30/28
f 13/29/27 37/30/28 12/31/29
f 12/31/29 37/30/28 38/32/30
f 12/31/29 38/32/30 11/33/31
f 11/33/31 38/32/30 39/34/32
f 11/33/31 39/34/32 10/35/33
f 10/35/33 39/34/32 40/36/34
f 10/35/33 40/36/34 9/37/35
f 9/37/35 40/36/34 41/38/36
f 9/37/35 41/38/36 8/39/37
f 8/39/37 41/38/36 42/40/38
f 8/39/37 42/40/38 7/41/39
f 7/41/39 42/40/38 43/42/40
f 7/41/39 43/42/40 6/43/41
f 6/43/41 43/42/40 44/44/42
f 6/43/41 44/44/42 5/45/43
f 5/45/43 44/44/42 45/46/44
f 5/45/43 45/46/44 4/47/45
f 4/47/45 45/46/44 46/48/46
f 4/47/45 46/48/46 3/49/47
f 3/49/47 46/48/46 47/50/48
f 3/49/47 47/50/48 2/1/1
f 2/1/1 47/50/48 48/2/2
usemtl Glass_(Green)
f 50/51/49 96/52/50 49/53/51
f 49/53/51 96/52/50 73/54/52
f 49/55/51 73/56/52 72/57/53
f 72/57/53 73/56/52 74/58/54
f 72/57/53 74/58/54 71/59/55
f 71/59/55 74/58/54 75/60/56
f 71/59/55 75/60/56 70/61/57
f 70/61/57 75/60/56 76/62/58
f 70/61/57 76/62/58 69/63/59
f 69/63/59 76/62/58 77/64/60
f 69/63/59 77/64/60 68/65/61
f 68/65/61 77/64/60 78/66/62
f 68/65/61 78/66/62 67/67/63
f 67/67/63 78/66/62 79/68/64
f 67/67/63 79/68/64 66/69/65
f 66/69/65 79/68/64 80/70/66
f 66/69/65 80/70/66 65/71/67
f 65/71/67 80/70/66 81/72/68
f 65/71/67 81/72/68 64/73/69
f 64/73/69 81/72/68 82/74/70
f 64/73/69 82/74/70 63/75/71
f 63/75/71 82/74/70 83/76/72
f 63/75/71 83/76/72 62/77/73
f 62/77/73 83/76/72 84/78/74
f 62/77/73 84/78/74 61/79/75
f 61/79/75 84/78/74 85/80/76
f 61/79/75 85/80/76 60/81/77
f 60/81/77 85/80/76 86/82/78
f 60/81/77 86/82/78 59/83/79
f 59/83/79 86/82/78 87/84/80
f 59/83/79 87/84/80 58/85/81
f 58/85/81 87/84/80 88/86/82
f 58/85/81 88/86/82 57/87/83
f 57/87/83 88/86/82 89/88/84
f 57/87/83 89/88/84 56/89/85
f 56/89/85 89/88/84 90/90/86
f 56/89/85 90/90/86 55/91/87
f 55/91/87 90/90/86 91/92/88
f 55/91/87 91/92/88 54/93/89
f 54/93/89 91/92/88 92/94/90
f 54/93/89 92/94/90 53/95/91
f 53/95/91 92/94/90 93/96/92
f 53/95/91 93/96/92 52/97/93
f 52/97/93 93/96/92 94/98/94
f 52/97/93 94/98/94 51/99/95
f 51/99/95 94/98/94 95/100/96
f 51/99/95 95/100/96 50/51/49
f 50/51/49 95/100/96 96/52/50
usemtl Steel_-_Satin
f 2/101/97 1/102/98 49/103/99
f 49/103/99 1/102/98 24/104/100
f 49/103/99 24/104/100 50/105/101
f 50/105/101 24/104/100 23/106/102
f 50/105/101 23/106/102 51/107/103
f 51/107/103 23/106/102 22/108/104
f 51/107/103 22/108/104 52/109/105
f 52/109/105 22/108/104 21/110/106
f 52/109/105 21/110/106 53/111/107
f 53/111/107 21/110/106 20/112/108
f 53/111/107 20/112/108 54/113/109
f 54/113/109 20/112/108 19/114/110
f 54/113/109 19/114/110 55/115/111
f 55/115/111 19/114/110 56/116/112
f 56/116/112 19/114/110 18/117/113
f 56/116/112 18/117/113 57/118/114
f 57/118/114 18/117/113 17/119/115
f 57/118/114 17/119/115 58/120/116
f 58/120/116 17/119/115 16/121/117
f 58/120/116 16/121/117 59/122/118
f 59/122/118 16/121/117 15/123/119
f 59/122/118 15/123/119 60/124/120
f 60/124/120 15/123/119 14/125/121
f 60/124/120 14/125/121 61/126/122
f 61/126/122 14/125/121 13/127/123
f 61/126/122 13/127/123 62/128/124
f 62/128/124 13/127/123 12/129/125
f 62/128/124 12/129/125 11/130/126
f 62/128/124 11/130/126 63/131/127
f 63/131/127 11/130/126 10/132/128
f 63/131/127 10/132/128 64/133/129
f 64/133/129 10/132/128 9/134/130
f 64/133/129 9/134/130 65/135/131
f 65/135/131 9/134/130 8/136/132
f 65/135/131 8/136/132 66/137/133
f 66/137/133 8/136/132 7/138/134
f 66/137/133 7/138/134 67/139/135
f 67/139/135 7/138/134 68/140/136
f 68/140/136 7/138/134 6/141/137
f 68/140/136 6/141/137 69/142/138
f 69/142/138 6/141/137 5/143/139
f 69/142/138 5/143/139 70/144/140
f 70/144/140 5/143/139 4/145/141
f 70/144/140 4/145/141 71/146/142
f 71/146/142 4/145/141 3/147/143
f 71/146/142 3/147/143 72/148/144
f 72/148/144 3/147/143 2/101/97
f 72/148/144 2/101/97 49/103/99
f 48/149/145 74/150/146 25/151/147
f 25/151/147 74/150/146 73/152/148
f 25/151/147 73/152/148 26/153/149
f 26/153/149 73/152/148 96/154/150
f 26/153/149 96/154/150 27/155/151
f 27/155/151 96/154/150 95/156/152
f 27/155/151 95/156/152 28/157/153
f 28/157/153 95/156/152 94/158/154
f 28/157/153 94/158/154 29/159/155
f 29/159/155 94/158/154 93/160/156
f 29/159/155 93/160/156 30/161/157
f 30/161/157 93/160/156 92/162/158
f 30/161/157 92/162/158 31/163/159
f 31/163/159 92/162/158 91/164/160
f 31/163/159 91/164/160 90/165/161
f 48/149/145 47/166/162 74/150/146
f 74/150/146 47/166/162 75/167/163
f 75/167/163 47/166/162 46/168/164
f 75/167/163 46/168/164 76/169/165
f 76/169/165 46/168/164 45/170/166
f 76/169/165 45/170/166 77/171/167
f 77/171/167 45/170/166 44/172/168
f 77/171/167 44/172/168 78/173/169
f 78/173/169 44/172/168 43/174/170
f 78/173/169 43/174/170 79/175/171
f 79/175/171 43/174/170 80/176/172
f 80/176/172 43/174/170 42/177/173
f 80/176/172 42/177/173 81/178/174
f 81/178/174 42/177/173 41/179/175
f 81/178/174 41/179/175 82/180/176
f 82/180/176 41/179/175 40/181/177
f 82/180/176 40/181/177 83/182/178
f 83/182/178 40/181/177 39/183/179
f 83/182/178 39/183/179 84/184/180
f 84/184/180 39/183/179 38/185/181
f 84/184/180 38/185/181 85/186/182
f 85/186/182 38/185/181 37/187/183
f 85/186/182 37/187/183 36/188/184
f 85/186/182 36/188/184 86/189/185
f 86/189/185 36/188/184 35/190/186
f 86/189/185 35/190/186 87/191/187
f 87/191/187 35/190/186 34/192/188
f 87/191/187 34/192/188 88/193/189
f 88/193/189 34/192/188 33/194/190
f 88/193/189 33/194/190 89/195/191
f 89/195/191 33/194/190 32/196/192
f 89/195/191 32/196/192 90/165/161
f 90/165/161 32/196/192 31/163/159

# 96 vertices
# 196 texture params
# 192 normals
# 192 facets

# 1 groups
