# WaveFront *.obj file (generated by Autodesk ATF)

mtllib d76c180c-5a18-471f-bcee-c24e669651be.mtl

g Body1

v -2.000000 -0.000000 0.156250
v -2.000000 -0.040440 0.150926
v -2.000000 -0.078125 0.135316
v -2.000000 -0.110485 0.110485
v -2.000000 -0.135316 0.078125
v -2.000000 -0.150926 0.040440
v -2.000000 -0.156250 -0.000000
v -2.000000 -0.150926 -0.040440
v -2.000000 -0.135316 -0.078125
v -2.000000 -0.110485 -0.110485
v -2.000000 -0.078125 -0.135316
v -2.000000 -0.040440 -0.150926
v -2.000000 0.000000 -0.156250
v -2.000000 0.040440 -0.150926
v -2.000000 0.078125 -0.135316
v -2.000000 0.110485 -0.110485
v -2.000000 0.135316 -0.078125
v -2.000000 0.150926 -0.040440
v -2.000000 0.156250 -0.000000
v -2.000000 0.150926 0.040440
v -2.000000 0.135316 0.078125
v -2.000000 0.110485 0.110485
v -2.000000 0.078125 0.135316
v -2.000000 0.040440 0.150926
v -2.000000 -0.000000 0.164350
v -2.000000 0.042537 0.158750
v -2.000000 0.082175 0.142331
v -2.000000 0.116213 0.116213
v -2.000000 0.142331 0.082175
v -2.000000 0.158750 0.042537
v -2.000000 0.164350 -0.000000
v -2.000000 0.158750 -0.042537
v -2.000000 0.142331 -0.082175
v -2.000000 0.116213 -0.116213
v -2.000000 0.082175 -0.142331
v -2.000000 0.042537 -0.158750
v -2.000000 0.000000 -0.164350
v -2.000000 -0.042537 -0.158750
v -2.000000 -0.082175 -0.142331
v -2.000000 -0.116213 -0.116213
v -2.000000 -0.142331 -0.082175
v -2.000000 -0.158750 -0.042537
v -2.000000 -0.164350 -0.000000
v -2.000000 -0.158750 0.042537
v -2.000000 -0.142331 0.082175
v -2.000000 -0.116213 0.116213
v -2.000000 -0.082175 0.142331
v -2.000000 -0.042537 0.158750
v 2.000000 -0.000000 0.156250
v 2.000000 -0.040440 0.150926
v 2.000000 -0.078125 0.135316
v 2.000000 -0.110485 0.110485
v 2.000000 -0.135316 0.078125
v 2.000000 -0.150926 0.040440
v 2.000000 -0.156250 -0.000000
v 2.000000 -0.150926 -0.040440
v 2.000000 -0.135316 -0.078125
v 2.000000 -0.110485 -0.110485
v 2.000000 -0.078125 -0.135316
v 2.000000 -0.040440 -0.150926
v 2.000000 0.000000 -0.156250
v 2.000000 0.040440 -0.150926
v 2.000000 0.078125 -0.135316
v 2.000000 0.110485 -0.110485
v 2.000000 0.135316 -0.078125
v 2.000000 0.150926 -0.040440
v 2.000000 0.156250 -0.000000
v 2.000000 0.150926 0.040440
v 2.000000 0.135316 0.078125
v 2.000000 0.110485 0.110485
v 2.000000 0.078125 0.135316
v 2.000000 0.040440 0.150926
v 2.000000 -0.000000 0.164350
v 2.000000 0.042537 0.158750
v 2.000000 0.082175 0.142331
v 2.000000 0.116213 0.116213
v 2.000000 0.142331 0.082175
v 2.000000 0.158750 0.042537
v 2.000000 0.164350 -0.000000
v 2.000000 0.158750 -0.042537
v 2.000000 0.142331 -0.082175
v 2.000000 0.116213 -0.116213
v 2.000000 0.082175 -0.142331
v 2.000000 0.042537 -0.158750
v 2.000000 0.000000 -0.164350
v 2.000000 -0.042537 -0.158750
v 2.000000 -0.082175 -0.142331
v 2.000000 -0.116213 -0.116213
v 2.000000 -0.142331 -0.082175
v 2.000000 -0.158750 -0.042537
v 2.000000 -0.164350 -0.000000
v 2.000000 -0.158750 0.042537
v 2.000000 -0.142331 0.082175
v 2.000000 -0.116213 0.116213
v 2.000000 -0.082175 0.142331
v 2.000000 -0.042537 0.158750
vt 0.383352 -0.102719 0.000000
vt 0.403225 -0.108044 0.000000
vt 0.396875 -0.000000 0.000000
vt 0.417449 -0.000000 0.000000
vt 0.383352 0.102719 0.000000
vt 0.403225 0.108044 0.000000
vt 0.343704 0.198438 0.000000
vt 0.361521 0.208724 0.000000
vt 0.280633 0.280633 0.000000
vt 0.295181 0.295181 0.000000
vt 0.198437 0.343704 0.000000
vt 0.208725 0.361521 0.000000
vt 0.102719 0.383352 0.000000
vt 0.108044 0.403225 0.000000
vt -0.000000 0.396875 0.000000
vt -0.000000 0.417449 0.000000
vt -0.108044 0.403225 0.000000
vt 0.343704 -0.198437 0.000000
vt 0.361521 -0.208725 0.000000
vt 0.280633 -0.280633 0.000000
vt 0.295181 -0.295181 0.000000
vt 0.198438 -0.343704 0.000000
vt 0.208724 -0.361521 0.000000
vt 0.102719 -0.383352 0.000000
vt 0.108044 -0.403225 0.000000
vt -0.000000 -0.396875 0.000000
vt -0.000000 -0.417449 0.000000
vt -0.108044 -0.403225 0.000000
vt -0.102719 -0.383352 0.000000
vt -0.208725 -0.361521 0.000000
vt -0.198437 -0.343704 0.000000
vt -0.295181 -0.295181 0.000000
vt -0.280633 -0.280633 0.000000
vt -0.361521 -0.208724 0.000000
vt -0.343704 -0.198438 0.000000
vt -0.403225 -0.108044 0.000000
vt -0.383352 -0.102719 0.000000
vt -0.417449 0.000000 0.000000
vt -0.396875 0.000000 0.000000
vt -0.383352 0.102719 0.000000
vt -0.403225 0.108044 0.000000
vt -0.343704 0.198437 0.000000
vt -0.361521 0.208725 0.000000
vt -0.280633 0.280633 0.000000
vt -0.295181 0.295181 0.000000
vt -0.198438 0.343704 0.000000
vt -0.208724 0.361521 0.000000
vt -0.102719 0.383352 0.000000
vt -5.080000 1.142918 0.000000
vt 5.080000 1.142918 0.000000
vt -5.080000 1.246820 0.000000
vt 5.080000 1.246820 0.000000
vt -5.080000 -1.246820 0.000000
vt 5.080000 -1.246820 0.000000
vt -5.080000 -1.142918 0.000000
vt 5.080000 -1.142918 0.000000
vt -5.080000 -1.039016 0.000000
vt 5.080000 -1.039016 0.000000
vt -5.080000 -0.935115 0.000000
vt 5.080000 -0.935115 0.000000
vt -5.080000 -0.831213 0.000000
vt 5.080000 -0.831213 0.000000
vt -5.080000 -0.727311 0.000000
vt 5.080000 -0.727311 0.000000
vt -5.080000 -0.623410 0.000000
vt 5.080000 -0.623410 0.000000
vt -5.080000 -0.519508 0.000000
vt 5.080000 -0.519508 0.000000
vt -5.080000 -0.415607 0.000000
vt 5.080000 -0.415607 0.000000
vt -5.080000 -0.311705 0.000000
vt 5.080000 -0.311705 0.000000
vt -5.080000 -0.207803 0.000000
vt 5.080000 -0.207803 0.000000
vt -5.080000 -0.103902 0.000000
vt 5.080000 -0.103902 0.000000
vt -5.080000 0.000000 0.000000
vt 5.080000 0.000000 0.000000
vt -5.080000 0.103902 0.000000
vt 5.080000 0.103902 0.000000
vt -5.080000 0.207803 0.000000
vt 5.080000 0.207803 0.000000
vt -5.080000 0.311705 0.000000
vt 5.080000 0.311705 0.000000
vt -5.080000 0.415607 0.000000
vt 5.080000 0.415607 0.000000
vt -5.080000 0.519508 0.000000
vt 5.080000 0.519508 0.000000
vt -5.080000 0.623410 0.000000
vt 5.080000 0.623410 0.000000
vt -5.080000 0.727311 0.000000
vt 5.080000 0.727311 0.000000
vt -5.080000 0.831213 0.000000
vt 5.080000 0.831213 0.000000
vt -5.080000 0.935115 0.000000
vt 5.080000 0.935115 0.000000
vt -5.080000 1.039016 0.000000
vt 5.080000 1.039016 0.000000
vt 5.080000 -1.202167 0.000000
vt -5.080000 -1.202167 0.000000
vt 5.080000 -1.311455 0.000000
vt -5.080000 -1.311455 0.000000
vt 5.080000 1.311455 0.000000
vt -5.080000 1.311455 0.000000
vt 5.080000 1.202167 0.000000
vt -5.080000 1.202167 0.000000
vt 5.080000 1.092879 0.000000
vt -5.080000 1.092879 0.000000
vt 5.080000 0.983591 0.000000
vt -5.080000 0.983591 0.000000
vt 5.080000 0.874303 0.000000
vt -5.080000 0.874303 0.000000
vt 5.080000 0.765015 0.000000
vt -5.080000 0.765015 0.000000
vt 5.080000 0.655727 0.000000
vt -5.080000 0.655727 0.000000
vt 5.080000 0.546439 0.000000
vt -5.080000 0.546439 0.000000
vt 5.080000 0.437152 0.000000
vt -5.080000 0.437152 0.000000
vt 5.080000 0.327864 0.000000
vt -5.080000 0.327864 0.000000
vt 5.080000 0.218576 0.000000
vt -5.080000 0.218576 0.000000
vt 5.080000 0.109288 0.000000
vt -5.080000 0.109288 0.000000
vt 5.080000 0.000000 0.000000
vt -5.080000 0.000000 0.000000
vt 5.080000 -0.109288 0.000000
vt -5.080000 -0.109288 0.000000
vt 5.080000 -0.218576 0.000000
vt -5.080000 -0.218576 0.000000
vt 5.080000 -0.327864 0.000000
vt -5.080000 -0.327864 0.000000
vt 5.080000 -0.437152 0.000000
vt -5.080000 -0.437152 0.000000
vt 5.080000 -0.546439 0.000000
vt -5.080000 -0.546439 0.000000
vt 5.080000 -0.655727 0.000000
vt -5.080000 -0.655727 0.000000
vt 5.080000 -0.765015 0.000000
vt -5.080000 -0.765015 0.000000
vt 5.080000 -0.874303 0.000000
vt -5.080000 -0.874303 0.000000
vt 5.080000 -0.983591 0.000000
vt -5.080000 -0.983591 0.000000
vt 5.080000 -1.092879 0.000000
vt -5.080000 -1.092879 0.000000
vt -0.383352 -0.102719 0.000000
vt -0.396875 -0.000000 0.000000
vt -0.417449 -0.000000 0.000000
vt -0.383352 0.102719 0.000000
vt -0.403225 0.108044 0.000000
vt -0.343704 0.198437 0.000000
vt -0.361521 0.208725 0.000000
vt -0.280633 0.280633 0.000000
vt -0.295181 0.295181 0.000000
vt -0.198438 0.343704 0.000000
vt -0.208724 0.361521 0.000000
vt -0.102719 0.383352 0.000000
vt -0.108044 0.403225 0.000000
vt 0.000000 0.396875 0.000000
vt 0.000000 0.417449 0.000000
vt 0.108044 0.403225 0.000000
vt 0.102719 0.383352 0.000000
vt 0.208725 0.361521 0.000000
vt 0.198437 0.343704 0.000000
vt 0.295181 0.295181 0.000000
vt 0.280633 0.280633 0.000000
vt 0.361521 0.208724 0.000000
vt 0.343704 0.198438 0.000000
vt 0.403225 0.108044 0.000000
vt 0.383352 0.102719 0.000000
vt 0.417449 0.000000 0.000000
vt 0.396875 0.000000 0.000000
vt 0.403225 -0.108044 0.000000
vt 0.383352 -0.102719 0.000000
vt 0.343704 -0.198437 0.000000
vt 0.361521 -0.208725 0.000000
vt 0.280633 -0.280633 0.000000
vt 0.295181 -0.295181 0.000000
vt 0.198438 -0.343704 0.000000
vt 0.208724 -0.361521 0.000000
vt 0.102719 -0.383352 0.000000
vt 0.108044 -0.403225 0.000000
vt 0.000000 -0.396875 0.000000
vt 0.000000 -0.417449 0.000000
vt -0.108044 -0.403225 0.000000
vt -0.102719 -0.383352 0.000000
vt -0.208725 -0.361521 0.000000
vt -0.198437 -0.343704 0.000000
vt -0.295181 -0.295181 0.000000
vt -0.280633 -0.280633 0.000000
vt -0.361521 -0.208724 0.000000
vt -0.343704 -0.198438 0.000000
vt -0.403225 -0.108044 0.000000
vn -2.540000 0.000000 0.000000
vn -2.540000 0.000000 0.000000
vn -2.540000 0.000000 0.000000
vn -2.540000 0.000000 0.000000
vn -2.540000 0.000000 0.000000
vn -2.540000 0.000000 0.000000
vn -2.540000 0.000000 0.000000
vn -2.540000 0.000000 0.000000
vn -2.540000 0.000000 0.000000
vn -2.540000 0.000000 0.000000
vn -2.540000 0.000000 0.000000
vn -2.540000 0.000000 0.000000
vn -2.540000 0.000000 0.000000
vn -2.540000 0.000000 0.000000
vn -2.540000 0.000000 0.000000
vn -2.540000 0.000000 0.000000
vn -2.540000 0.000000 0.000000
vn -2.540000 0.000000 0.000000
vn -2.540000 0.000000 0.000000
vn -2.540000 0.000000 0.000000
vn -2.540000 0.000000 0.000000
vn -2.540000 0.000000 0.000000
vn -2.540000 0.000000 0.000000
vn -2.540000 0.000000 0.000000
vn -2.540000 0.000000 0.000000
vn -2.540000 0.000000 0.000000
vn -2.540000 0.000000 0.000000
vn -2.540000 0.000000 0.000000
vn -2.540000 0.000000 0.000000
vn -2.540000 0.000000 0.000000
vn -2.540000 0.000000 0.000000
vn -2.540000 0.000000 0.000000
vn -2.540000 0.000000 0.000000
vn -2.540000 0.000000 0.000000
vn -2.540000 0.000000 0.000000
vn -2.540000 0.000000 0.000000
vn -2.540000 0.000000 0.000000
vn -2.540000 0.000000 0.000000
vn -2.540000 0.000000 0.000000
vn -2.540000 0.000000 0.000000
vn -2.540000 0.000000 0.000000
vn -2.540000 0.000000 0.000000
vn -2.540000 0.000000 0.000000
vn -2.540000 0.000000 0.000000
vn -2.540000 0.000000 0.000000
vn -2.540000 0.000000 0.000000
vn -2.540000 0.000000 0.000000
vn -2.540000 0.000000 0.000000
vn 0.000000 -0.657400 -2.453452
vn 0.000000 -0.657400 -2.453452
vn 0.000000 -0.000000 -2.540000
vn 0.000000 -0.000000 -2.540000
vn 0.000000 0.657400 -2.453452
vn 0.000000 0.657400 -2.453452
vn 0.000000 1.270000 -2.199705
vn 0.000000 1.270000 -2.199705
vn 0.000000 1.796051 -1.796051
vn 0.000000 1.796051 -1.796051
vn 0.000000 2.199705 -1.270000
vn 0.000000 2.199705 -1.270000
vn 0.000000 2.453452 -0.657400
vn 0.000000 2.453452 -0.657400
vn 0.000000 2.540000 0.000000
vn 0.000000 2.540000 0.000000
vn 0.000000 2.453452 0.657400
vn 0.000000 2.453452 0.657400
vn 0.000000 2.199705 1.270000
vn 0.000000 2.199705 1.270000
vn 0.000000 1.796051 1.796051
vn 0.000000 1.796051 1.796051
vn 0.000000 1.270000 2.199705
vn 0.000000 1.270000 2.199705
vn 0.000000 0.657400 2.453452
vn 0.000000 0.657400 2.453452
vn 0.000000 -0.000000 2.540000
vn 0.000000 -0.000000 2.540000
vn 0.000000 -0.657400 2.453452
vn 0.000000 -0.657400 2.453452
vn 0.000000 -1.270000 2.199705
vn 0.000000 -1.270000 2.199705
vn 0.000000 -1.796051 1.796051
vn 0.000000 -1.796051 1.796051
vn 0.000000 -2.199705 1.270000
vn 0.000000 -2.199705 1.270000
vn 0.000000 -2.453452 0.657400
vn 0.000000 -2.453452 0.657400
vn 0.000000 -2.540000 0.000000
vn 0.000000 -2.540000 0.000000
vn 0.000000 -2.453452 -0.657400
vn 0.000000 -2.453452 -0.657400
vn 0.000000 -2.199705 -1.270000
vn 0.000000 -2.199705 -1.270000
vn 0.000000 -1.796051 -1.796051
vn 0.000000 -1.796051 -1.796051
vn 0.000000 -1.270000 -2.199705
vn 0.000000 -1.270000 -2.199705
vn 0.000000 -0.657400 2.453452
vn 0.000000 -0.657400 2.453452
vn 0.000000 -0.000000 2.540000
vn 0.000000 -0.000000 2.540000
vn 0.000000 0.657400 2.453452
vn 0.000000 0.657400 2.453452
vn 0.000000 1.270000 2.199705
vn 0.000000 1.270000 2.199705
vn 0.000000 1.796051 1.796051
vn 0.000000 1.796051 1.796051
vn 0.000000 2.199705 1.270000
vn 0.000000 2.199705 1.270000
vn 0.000000 2.453452 0.657400
vn 0.000000 2.453452 0.657400
vn -0.000000 2.540000 -0.000000
vn -0.000000 2.540000 -0.000000
vn -0.000000 2.453452 -0.657400
vn -0.000000 2.453452 -0.657400
vn -0.000000 2.199705 -1.270000
vn -0.000000 2.199705 -1.270000
vn -0.000000 1.796051 -1.796051
vn -0.000000 1.796051 -1.796051
vn -0.000000 1.270000 -2.199705
vn -0.000000 1.270000 -2.199705
vn -0.000000 0.657400 -2.453452
vn -0.000000 0.657400 -2.453452
vn -0.000000 0.000000 -2.540000
vn -0.000000 0.000000 -2.540000
vn 0.000000 -0.657400 -2.453452
vn 0.000000 -0.657400 -2.453452
vn 0.000000 -1.270000 -2.199705
vn 0.000000 -1.270000 -2.199705
vn 0.000000 -1.796051 -1.796051
vn 0.000000 -1.796051 -1.796051
vn 0.000000 -2.199705 -1.270000
vn 0.000000 -2.199705 -1.270000
vn 0.000000 -2.453452 -0.657400
vn 0.000000 -2.453452 -0.657400
vn 0.000000 -2.540000 -0.000000
vn 0.000000 -2.540000 -0.000000
vn 0.000000 -2.453452 0.657400
vn 0.000000 -2.453452 0.657400
vn 0.000000 -2.199705 1.270000
vn 0.000000 -2.199705 1.270000
vn 0.000000 -1.796051 1.796051
vn 0.000000 -1.796051 1.796051
vn 0.000000 -1.270000 2.199705
vn 0.000000 -1.270000 2.199705
vn 2.540000 0.000000 0.000000
vn 2.540000 0.000000 0.000000
vn 2.540000 0.000000 0.000000
vn 2.540000 0.000000 0.000000
vn 2.540000 0.000000 0.000000
vn 2.540000 0.000000 0.000000
vn 2.540000 0.000000 0.000000
vn 2.540000 0.000000 0.000000
vn 2.540000 0.000000 0.000000
vn 2.540000 0.000000 0.000000
vn 2.540000 0.000000 0.000000
vn 2.540000 0.000000 0.000000
vn 2.540000 0.000000 0.000000
vn 2.540000 0.000000 0.000000
vn 2.540000 0.000000 0.000000
vn 2.540000 0.000000 0.000000
vn 2.540000 0.000000 0.000000
vn 2.540000 0.000000 0.000000
vn 2.540000 0.000000 0.000000
vn 2.540000 0.000000 0.000000
vn 2.540000 0.000000 0.000000
vn 2.540000 0.000000 0.000000
vn 2.540000 0.000000 0.000000
vn 2.540000 0.000000 0.000000
vn 2.540000 0.000000 0.000000
vn 2.540000 0.000000 0.000000
vn 2.540000 0.000000 0.000000
vn 2.540000 0.000000 0.000000
vn 2.540000 0.000000 0.000000
vn 2.540000 0.000000 0.000000
vn 2.540000 0.000000 0.000000
vn 2.540000 0.000000 0.000000
vn 2.540000 0.000000 0.000000
vn 2.540000 0.000000 0.000000
vn 2.540000 0.000000 0.000000
vn 2.540000 0.000000 0.000000
vn 2.540000 0.000000 0.000000
vn 2.540000 0.000000 0.000000
vn 2.540000 0.000000 0.000000
vn 2.540000 0.000000 0.000000
vn 2.540000 0.000000 0.000000
vn 2.540000 0.000000 0.000000
vn 2.540000 0.000000 0.000000
vn 2.540000 0.000000 0.000000
vn 2.540000 0.000000 0.000000
vn 2.540000 0.000000 0.000000
vn 2.540000 0.000000 0.000000
vn 2.540000 0.000000 0.000000
usemtl Steel_-_Satin
f 2/1/1 48/2/2 1/3/3
f 1/3/3 48/2/2 25/4/4
f 1/3/3 25/4/4 24/5/5
f 24/5/5 25/4/4 26/6/6
f 24/5/5 26/6/6 23/7/7
f 23/7/7 26/6/6 27/8/8
f 23/7/7 27/8/8 22/9/9
f 22/9/9 27/8/8 28/10/10
f 22/9/9 28/10/10 21/11/11
f 21/11/11 28/10/10 29/12/12
f 21/11/11 29/12/12 20/13/13
f 20/13/13 29/12/12 30/14/14
f 20/13/13 30/14/14 19/15/15
f 19/15/15 30/14/14 31/16/16
f 19/15/15 31/16/16 32/17/17
f 2/1/1 3/18/18 48/2/2
f 48/2/2 3/18/18 47/19/19
f 47/19/19 3/18/18 4/20/20
f 47/19/19 4/20/20 46/21/21
f 46/21/21 4/20/20 5/22/22
f 46/21/21 5/22/22 45/23/23
f 45/23/23 5/22/22 6/24/24
f 45/23/23 6/24/24 44/25/25
f 44/25/25 6/24/24 7/26/26
f 44/25/25 7/26/26 43/27/27
f 43/27/27 7/26/26 42/28/28
f 42/28/28 7/26/26 8/29/29
f 42/28/28 8/29/29 41/30/30
f 41/30/30 8/29/29 9/31/31
f 41/30/30 9/31/31 40/32/32
f 40/32/32 9/31/31 10/33/33
f 40/32/32 10/33/33 39/34/34
f 39/34/34 10/33/33 11/35/35
f 39/34/34 11/35/35 38/36/36
f 38/36/36 11/35/35 12/37/37
f 38/36/36 12/37/37 37/38/38
f 37/38/38 12/37/37 13/39/39
f 37/38/38 13/39/39 14/40/40
f 37/38/38 14/40/40 36/41/41
f 36/41/41 14/40/40 15/42/42
f 36/41/41 15/42/42 35/43/43
f 35/43/43 15/42/42 16/44/44
f 35/43/43 16/44/44 34/45/45
f 34/45/45 16/44/44 17/46/46
f 34/45/45 17/46/46 33/47/47
f 33/47/47 17/46/46 18/48/48
f 33/47/47 18/48/48 32/17/17
f 32/17/17 18/48/48 19/15/15
f 24/49/49 72/50/50 1/51/51
f 1/51/51 72/50/50 49/52/52
f 1/53/51 49/54/52 2/55/53
f 2/55/53 49/54/52 50/56/54
f 2/55/53 50/56/54 3/57/55
f 3/57/55 50/56/54 51/58/56
f 3/57/55 51/58/56 4/59/57
f 4/59/57 51/58/56 52/60/58
f 4/59/57 52/60/58 5/61/59
f 5/61/59 52/60/58 53/62/60
f 5/61/59 53/62/60 6/63/61
f 6/63/61 53/62/60 54/64/62
f 6/63/61 54/64/62 7/65/63
f 7/65/63 54/64/62 55/66/64
f 7/65/63 55/66/64 8/67/65
f 8/67/65 55/66/64 56/68/66
f 8/67/65 56/68/66 9/69/67
f 9/69/67 56/68/66 57/70/68
f 9/69/67 57/70/68 10/71/69
f 10/71/69 57/70/68 58/72/70
f 10/71/69 58/72/70 11/73/71
f 11/73/71 58/72/70 59/74/72
f 11/73/71 59/74/72 12/75/73
f 12/75/73 59/74/72 60/76/74
f 12/75/73 60/76/74 13/77/75
f 13/77/75 60/76/74 61/78/76
f 13/77/75 61/78/76 14/79/77
f 14/79/77 61/78/76 62/80/78
f 14/79/77 62/80/78 15/81/79
f 15/81/79 62/80/78 63/82/80
f 15/81/79 63/82/80 16/83/81
f 16/83/81 63/82/80 64/84/82
f 16/83/81 64/84/82 17/85/83
f 17/85/83 64/84/82 65/86/84
f 17/85/83 65/86/84 18/87/85
f 18/87/85 65/86/84 66/88/86
f 18/87/85 66/88/86 19/89/87
f 19/89/87 66/88/86 67/90/88
f 19/89/87 67/90/88 20/91/89
f 20/91/89 67/90/88 68/92/90
f 20/91/89 68/92/90 21/93/91
f 21/93/91 68/92/90 69/94/92
f 21/93/91 69/94/92 22/95/93
f 22/95/93 69/94/92 70/96/94
f 22/95/93 70/96/94 23/97/95
f 23/97/95 70/96/94 71/98/96
f 23/97/95 71/98/96 24/49/49
f 24/49/49 71/98/96 72/50/50
usemtl Glass_(Green)
f 48/99/97 96/100/98 25/101/99
f 25/101/99 96/100/98 73/102/100
f 25/103/99 73/104/100 26/105/101
f 26/105/101 73/104/100 74/106/102
f 26/105/101 74/106/102 27/107/103
f 27/107/103 74/106/102 75/108/104
f 27/107/103 75/108/104 28/109/105
f 28/109/105 75/108/104 76/110/106
f 28/109/105 76/110/106 29/111/107
f 29/111/107 76/110/106 77/112/108
f 29/111/107 77/112/108 30/113/109
f 30/113/109 77/112/108 78/114/110
f 30/113/109 78/114/110 31/115/111
f 31/115/111 78/114/110 79/116/112
f 31/115/111 79/116/112 32/117/113
f 32/117/113 79/116/112 80/118/114
f 32/117/113 80/118/114 33/119/115
f 33/119/115 80/118/114 81/120/116
f 33/119/115 81/120/116 34/121/117
f 34/121/117 81/120/116 82/122/118
f 34/121/117 82/122/118 35/123/119
f 35/123/119 82/122/118 83/124/120
f 35/123/119 83/124/120 36/125/121
f 36/125/121 83/124/120 84/126/122
f 36/125/121 84/126/122 37/127/123
f 37/127/123 84/126/122 85/128/124
f 37/127/123 85/128/124 38/129/125
f 38/129/125 85/128/124 86/130/126
f 38/129/125 86/130/126 39/131/127
f 39/131/127 86/130/126 87/132/128
f 39/131/127 87/132/128 40/133/129
f 40/133/129 87/132/128 88/134/130
f 40/133/129 88/134/130 41/135/131
f 41/135/131 88/134/130 89/136/132
f 41/135/131 89/136/132 42/137/133
f 42/137/133 89/136/132 90/138/134
f 42/137/133 90/138/134 43/139/135
f 43/139/135 90/138/134 91/140/136
f 43/139/135 91/140/136 44/141/137
f 44/141/137 91/140/136 92/142/138
f 44/141/137 92/142/138 45/143/139
f 45/143/139 92/142/138 93/144/140
f 45/143/139 93/144/140 46/145/141
f 46/145/141 93/144/140 94/146/142
f 46/145/141 94/146/142 47/147/143
f 47/147/143 94/146/142 95/148/144
f 47/147/143 95/148/144 48/99/97
f 48/99/97 95/148/144 96/100/98
usemtl Steel_-_Satin
f 50/149/145 49/150/146 73/151/147
f 73/151/147 49/150/146 72/152/148
f 73/151/147 72/152/148 74/153/149
f 74/153/149 72/152/148 71/154/150
f 74/153/149 71/154/150 75/155/151
f 75/155/151 71/154/150 70/156/152
f 75/155/151 70/156/152 76/157/153
f 76/157/153 70/156/152 69/158/154
f 76/157/153 69/158/154 77/159/155
f 77/159/155 69/158/154 68/160/156
f 77/159/155 68/160/156 78/161/157
f 78/161/157 68/160/156 67/162/158
f 78/161/157 67/162/158 79/163/159
f 79/163/159 67/162/158 80/164/160
f 80/164/160 67/162/158 66/165/161
f 80/164/160 66/165/161 81/166/162
f 81/166/162 66/165/161 65/167/163
f 81/166/162 65/167/163 82/168/164
f 82/168/164 65/167/163 64/169/165
f 82/168/164 64/169/165 83/170/166
f 83/170/166 64/169/165 63/171/167
f 83/170/166 63/171/167 84/172/168
f 84/172/168 63/171/167 62/173/169
f 84/172/168 62/173/169 85/174/170
f 85/174/170 62/173/169 61/175/171
f 85/174/170 61/175/171 86/176/172
f 86/176/172 61/175/171 60/177/173
f 86/176/172 60/177/173 59/178/174
f 86/176/172 59/178/174 87/179/175
f 87/179/175 59/178/174 58/180/176
f 87/179/175 58/180/176 88/181/177
f 88/181/177 58/180/176 57/182/178
f 88/181/177 57/182/178 89/183/179
f 89/183/179 57/182/178 56/184/180
f 89/183/179 56/184/180 90/185/181
f 90/185/181 56/184/180 55/186/182
f 90/185/181 55/186/182 91/187/183
f 91/187/183 55/186/182 92/188/184
f 92/188/184 55/186/182 54/189/185
f 92/188/184 54/189/185 93/190/186
f 93/190/186 54/189/185 53/191/187
f 93/190/186 53/191/187 94/192/188
f 94/192/188 53/191/187 52/193/189
f 94/192/188 52/193/189 95/194/190
f 95/194/190 52/193/189 51/195/191
f 95/194/190 51/195/191 96/196/192
f 96/196/192 51/195/191 50/149/145
f 96/196/192 50/149/145 73/151/147

# 96 vertices
# 196 texture params
# 192 normals
# 192 facets

# 1 groups
