# WaveFront *.obj file (generated by Autodesk ATF)

mtllib 9b208534-0711-415d-8e88-e6ff29bdd1c4.mtl

g Body1

v 7.500000 -3.000000 -1.000000
v 8.017638 -2.931852 -1.000000
v 8.500000 -2.732051 -1.000000
v 8.914214 -2.414214 -1.000000
v 9.232051 -2.000000 -1.000000
v 9.431852 -1.517638 -1.000000
v 9.500000 -1.000000 -1.000000
v 9.500000 -1.000000 1.000000
v 9.431852 -1.517638 1.000000
v 9.232051 -2.000000 1.000000
v 8.914214 -2.414214 1.000000
v 8.500000 -2.732051 1.000000
v 8.017638 -2.931852 1.000000
v 7.500000 -3.000000 1.000000
v -8.500000 -2.000000 -1.000000
v 8.500000 -2.000000 -1.000000
v 8.500000 2.000000 -1.000000
v -8.500000 2.000000 -1.000000
v -7.500000 -3.000000 -1.000000
v -8.017638 -2.931852 -1.000000
v -8.500000 -2.732051 -1.000000
v -8.914214 -2.414214 -1.000000
v -9.232051 -2.000000 -1.000000
v -9.431852 -1.517638 -1.000000
v -9.500000 -1.000000 -1.000000
v -9.500000 1.000000 -1.000000
v -9.431852 1.517638 -1.000000
v -9.232051 2.000000 -1.000000
v -8.914214 2.414214 -1.000000
v -8.500000 2.732051 -1.000000
v -8.017638 2.931852 -1.000000
v -7.500000 3.000000 -1.000000
v 7.500000 3.000000 -1.000000
v 8.017638 2.931852 -1.000000
v 8.500000 2.732051 -1.000000
v 8.914214 2.414214 -1.000000
v 9.232051 2.000000 -1.000000
v 9.431852 1.517638 -1.000000
v 9.500000 1.000000 -1.000000
v -7.500000 -3.000000 1.000000
v -8.017638 -2.931852 1.000000
v -8.500000 -2.732051 1.000000
v -8.914214 -2.414214 1.000000
v -9.232051 -2.000000 1.000000
v -9.431852 -1.517638 1.000000
v -9.500000 -1.000000 1.000000
v -9.500000 1.000000 1.000000
v -9.431852 1.517638 1.000000
v -9.232051 2.000000 1.000000
v -8.914214 2.414214 1.000000
v -8.500000 2.732051 1.000000
v -8.017638 2.931852 1.000000
v -7.500000 3.000000 1.000000
v 7.500000 3.000000 1.000000
v 8.017638 2.931852 1.000000
v 8.500000 2.732051 1.000000
v 8.914214 2.414214 1.000000
v 9.232051 2.000000 1.000000
v 9.431852 1.517638 1.000000
v 9.500000 1.000000 1.000000
v -8.500000 -2.000000 1.000000
v 8.500000 -2.000000 1.000000
v 8.500000 2.000000 1.000000
v -8.500000 2.000000 1.000000
vt 0.100000 0.157080 0.000000
vt -0.100000 0.157080 0.000000
vt 0.100000 0.104720 0.000000
vt -0.100000 0.104720 0.000000
vt 0.100000 0.052360 0.000000
vt -0.100000 0.052360 0.000000
vt 0.100000 0.000000 0.000000
vt -0.100000 0.000000 0.000000
vt 0.100000 -0.052360 0.000000
vt -0.100000 -0.052360 0.000000
vt 0.100000 -0.104720 0.000000
vt -0.100000 -0.104720 0.000000
vt 0.100000 -0.157080 0.000000
vt -0.100000 -0.157080 0.000000
vt -0.850000 -0.200000 0.000000
vt 0.750000 -0.300000 0.000000
vt 0.850000 -0.200000 0.000000
vt 0.801764 -0.293185 0.000000
vt 0.850000 -0.273205 0.000000
vt -0.850000 0.200000 0.000000
vt -0.950000 0.100000 0.000000
vt -0.950000 -0.100000 0.000000
vt -0.943185 -0.151764 0.000000
vt 0.850000 0.200000 0.000000
vt -0.750000 0.300000 0.000000
vt -0.801764 0.293185 0.000000
vt -0.850000 0.273205 0.000000
vt 0.950000 0.100000 0.000000
vt 0.943185 0.151764 0.000000
vt 0.923205 0.200000 0.000000
vt -0.923205 -0.200000 0.000000
vt -0.891421 -0.241421 0.000000
vt -0.850000 -0.273205 0.000000
vt -0.801764 -0.293185 0.000000
vt -0.750000 -0.300000 0.000000
vt 0.891421 -0.241421 0.000000
vt 0.923205 -0.200000 0.000000
vt 0.943185 -0.151764 0.000000
vt 0.950000 -0.100000 0.000000
vt 0.891421 0.241421 0.000000
vt 0.850000 0.273205 0.000000
vt 0.801764 0.293185 0.000000
vt 0.750000 0.300000 0.000000
vt -0.891421 0.241421 0.000000
vt -0.923205 0.200000 0.000000
vt -0.943185 0.151764 0.000000
vt 1.700000 0.100000 0.000000
vt 0.200000 0.100000 0.000000
vt 1.700000 -0.100000 0.000000
vt 0.200000 -0.100000 0.000000
vt 0.100000 0.157080 0.000000
vt -0.100000 0.157080 0.000000
vt 0.100000 0.104720 0.000000
vt -0.100000 0.104720 0.000000
vt 0.100000 0.052360 0.000000
vt -0.100000 0.052360 0.000000
vt 0.100000 0.000000 0.000000
vt -0.100000 0.000000 0.000000
vt 0.100000 -0.052360 0.000000
vt -0.100000 -0.052360 0.000000
vt 0.100000 -0.104720 0.000000
vt -0.100000 -0.104720 0.000000
vt 0.100000 -0.157080 0.000000
vt -0.100000 -0.157080 0.000000
vt 0.100000 0.157080 0.000000
vt -0.100000 0.157080 0.000000
vt 0.100000 0.104720 0.000000
vt -0.100000 0.104720 0.000000
vt 0.100000 0.052360 0.000000
vt -0.100000 0.052360 0.000000
vt 0.100000 -0.000000 0.000000
vt -0.100000 -0.000000 0.000000
vt 0.100000 -0.052360 0.000000
vt -0.100000 -0.052360 0.000000
vt 0.100000 -0.104720 0.000000
vt -0.100000 -0.104720 0.000000
vt 0.100000 -0.157080 0.000000
vt -0.100000 -0.157080 0.000000
vt 1.700000 0.100000 0.000000
vt 0.200000 0.100000 0.000000
vt 1.700000 -0.100000 0.000000
vt 0.200000 -0.100000 0.000000
vt 0.100000 0.157080 0.000000
vt -0.100000 0.157080 0.000000
vt 0.100000 0.104720 0.000000
vt -0.100000 0.104720 0.000000
vt 0.100000 0.052360 0.000000
vt -0.100000 0.052360 0.000000
vt 0.100000 0.000000 0.000000
vt -0.100000 0.000000 0.000000
vt 0.100000 -0.052360 0.000000
vt -0.100000 -0.052360 0.000000
vt 0.100000 -0.104720 0.000000
vt -0.100000 -0.104720 0.000000
vt 0.100000 -0.157080 0.000000
vt -0.100000 -0.157080 0.000000
vt -0.000000 0.200000 0.000000
vt -1.700000 0.200000 0.000000
vt 0.000000 0.000000 0.000000
vt -1.700000 -0.000000 0.000000
vt -0.000000 0.200000 0.000000
vt -0.400000 0.200000 0.000000
vt 0.000000 0.000000 0.000000
vt -0.400000 0.000000 0.000000
vt 0.000000 0.200000 0.000000
vt -1.700000 0.200000 0.000000
vt 0.000000 0.000000 0.000000
vt -1.700000 0.000000 0.000000
vt -0.000000 0.200000 0.000000
vt -0.400000 0.200000 0.000000
vt -0.000000 0.000000 0.000000
vt -0.400000 0.000000 0.000000
vt 0.400000 0.100000 0.000000
vt 0.200000 0.100000 0.000000
vt 0.400000 -0.100000 0.000000
vt 0.200000 -0.100000 0.000000
vt 0.200000 -0.100000 0.000000
vt 0.400000 -0.100000 0.000000
vt 0.200000 0.100000 0.000000
vt 0.400000 0.100000 0.000000
vt 0.801764 -0.293185 0.000000
vt 0.850000 -0.200000 0.000000
vt 0.750000 -0.300000 0.000000
vt -0.850000 -0.200000 0.000000
vt -0.750000 -0.300000 0.000000
vt -0.801764 -0.293185 0.000000
vt -0.850000 -0.273205 0.000000
vt -0.891421 -0.241421 0.000000
vt -0.923205 -0.200000 0.000000
vt -0.943185 -0.151764 0.000000
vt -0.950000 -0.100000 0.000000
vt -0.950000 0.100000 0.000000
vt -0.850000 0.200000 0.000000
vt -0.943185 0.151764 0.000000
vt -0.923205 0.200000 0.000000
vt -0.891421 0.241421 0.000000
vt -0.850000 0.273205 0.000000
vt -0.801764 0.293185 0.000000
vt -0.750000 0.300000 0.000000
vt 0.850000 0.200000 0.000000
vt 0.750000 0.300000 0.000000
vt 0.801764 0.293185 0.000000
vt 0.850000 0.273205 0.000000
vt 0.891421 0.241421 0.000000
vt 0.923205 0.200000 0.000000
vt 0.943185 0.151764 0.000000
vt 0.950000 0.100000 0.000000
vt 0.950000 -0.100000 0.000000
vt 0.943185 -0.151764 0.000000
vt 0.923205 -0.200000 0.000000
vt 0.891421 -0.241421 0.000000
vt 0.850000 -0.273205 0.000000
vn 0.000000 -0.100000 0.000000
vn 0.000000 -0.100000 0.000000
vn 0.025882 -0.096593 0.000000
vn 0.025882 -0.096593 0.000000
vn 0.050000 -0.086603 0.000000
vn 0.050000 -0.086603 0.000000
vn 0.070711 -0.070711 0.000000
vn 0.070711 -0.070711 0.000000
vn 0.086603 -0.050000 0.000000
vn 0.086603 -0.050000 0.000000
vn 0.096593 -0.025882 0.000000
vn 0.096593 -0.025882 0.000000
vn 0.100000 -0.000000 0.000000
vn 0.100000 -0.000000 0.000000
vn 0.000000 0.000000 -0.100000
vn 0.000000 0.000000 -0.100000
vn 0.000000 0.000000 -0.100000
vn 0.000000 0.000000 -0.100000
vn 0.000000 0.000000 -0.100000
vn 0.000000 0.000000 -0.100000
vn 0.000000 0.000000 -0.100000
vn 0.000000 0.000000 -0.100000
vn 0.000000 0.000000 -0.100000
vn 0.000000 0.000000 -0.100000
vn 0.000000 0.000000 -0.100000
vn 0.000000 0.000000 -0.100000
vn 0.000000 0.000000 -0.100000
vn 0.000000 0.000000 -0.100000
vn 0.000000 0.000000 -0.100000
vn 0.000000 0.000000 -0.100000
vn 0.000000 0.000000 -0.100000
vn 0.000000 0.000000 -0.100000
vn 0.000000 0.000000 -0.100000
vn 0.000000 0.000000 -0.100000
vn 0.000000 0.000000 -0.100000
vn 0.000000 0.000000 -0.100000
vn 0.000000 0.000000 -0.100000
vn 0.000000 0.000000 -0.100000
vn 0.000000 0.000000 -0.100000
vn 0.000000 0.000000 -0.100000
vn 0.000000 0.000000 -0.100000
vn 0.000000 0.000000 -0.100000
vn 0.000000 0.000000 -0.100000
vn 0.000000 0.000000 -0.100000
vn 0.000000 0.000000 -0.100000
vn 0.000000 0.000000 -0.100000
vn 0.000000 -0.100000 0.000000
vn 0.000000 -0.100000 0.000000
vn -0.025882 -0.096593 0.000000
vn -0.025882 -0.096593 0.000000
vn -0.050000 -0.086603 0.000000
vn -0.050000 -0.086603 0.000000
vn -0.070711 -0.070711 0.000000
vn -0.070711 -0.070711 0.000000
vn -0.086603 -0.050000 0.000000
vn -0.086603 -0.050000 0.000000
vn -0.096593 -0.025882 0.000000
vn -0.096593 -0.025882 0.000000
vn -0.100000 0.000000 -0.000000
vn -0.100000 0.000000 -0.000000
vn -0.100000 -0.000000 0.000000
vn -0.100000 -0.000000 0.000000
vn -0.096593 0.025882 -0.000000
vn -0.096593 0.025882 -0.000000
vn -0.086603 0.050000 -0.000000
vn -0.086603 0.050000 -0.000000
vn -0.070711 0.070711 -0.000000
vn -0.070711 0.070711 -0.000000
vn -0.050000 0.086603 -0.000000
vn -0.050000 0.086603 -0.000000
vn -0.025882 0.096593 -0.000000
vn -0.025882 0.096593 -0.000000
vn 0.000000 0.100000 0.000000
vn 0.000000 0.100000 0.000000
vn 0.000000 0.100000 0.000000
vn 0.000000 0.100000 0.000000
vn 0.025882 0.096593 0.000000
vn 0.025882 0.096593 0.000000
vn 0.050000 0.086603 0.000000
vn 0.050000 0.086603 0.000000
vn 0.070711 0.070711 0.000000
vn 0.070711 0.070711 0.000000
vn 0.086603 0.050000 0.000000
vn 0.086603 0.050000 0.000000
vn 0.096593 0.025882 0.000000
vn 0.096593 0.025882 0.000000
vn 0.100000 -0.000000 0.000000
vn 0.100000 -0.000000 0.000000
vn -0.000000 0.100000 -0.000000
vn -0.000000 0.100000 -0.000000
vn -0.000000 0.100000 -0.000000
vn -0.000000 0.100000 -0.000000
vn -0.100000 0.000000 -0.000000
vn -0.100000 0.000000 -0.000000
vn -0.100000 0.000000 -0.000000
vn -0.100000 0.000000 -0.000000
vn -0.000000 -0.100000 0.000000
vn -0.000000 -0.100000 0.000000
vn -0.000000 -0.100000 0.000000
vn -0.000000 -0.100000 0.000000
vn 0.100000 -0.000000 0.000000
vn 0.100000 -0.000000 0.000000
vn 0.100000 -0.000000 0.000000
vn 0.100000 -0.000000 0.000000
vn 0.000000 0.000000 0.100000
vn 0.000000 0.000000 0.100000
vn 0.000000 0.000000 0.100000
vn 0.000000 0.000000 0.100000
vn 0.000000 0.000000 0.100000
vn 0.000000 0.000000 0.100000
vn 0.000000 0.000000 0.100000
vn 0.000000 0.000000 0.100000
vn 0.000000 0.000000 0.100000
vn 0.000000 0.000000 0.100000
vn 0.000000 0.000000 0.100000
vn 0.000000 0.000000 0.100000
vn 0.000000 0.000000 0.100000
vn 0.000000 0.000000 0.100000
vn 0.000000 0.000000 0.100000
vn 0.000000 0.000000 0.100000
vn 0.000000 0.000000 0.100000
vn 0.000000 0.000000 0.100000
vn 0.000000 0.000000 0.100000
vn 0.000000 0.000000 0.100000
vn 0.000000 0.000000 0.100000
vn 0.000000 0.000000 0.100000
vn 0.000000 0.000000 0.100000
vn 0.000000 0.000000 0.100000
vn 0.000000 0.000000 0.100000
vn 0.000000 0.000000 0.100000
vn 0.000000 0.000000 0.100000
vn 0.000000 0.000000 0.100000
vn 0.000000 0.000000 0.100000
vn 0.000000 0.000000 0.100000
vn 0.000000 0.000000 0.100000
vn 0.000000 0.000000 0.100000
usemtl Steel_-_Satin
f 14/1/1 1/2/2 13/3/3
f 13/3/3 1/2/2 2/4/4
f 13/3/3 2/4/4 12/5/5
f 12/5/5 2/4/4 3/6/6
f 12/5/5 3/6/6 11/7/7
f 11/7/7 3/6/6 4/8/8
f 11/7/7 4/8/8 10/9/9
f 10/9/9 4/8/8 5/10/10
f 10/9/9 5/10/10 9/11/11
f 9/11/11 5/10/10 6/12/12
f 9/11/11 6/12/12 8/13/13
f 8/13/13 6/12/12 7/14/14
f 16/15/15 19/16/16 15/17/17
f 15/17/17 19/16/16 20/18/18
f 15/17/17 20/18/18 21/19/19
f 17/20/20 39/21/21 16/15/15
f 16/15/15 39/21/21 7/22/22
f 16/15/15 7/22/22 6/23/23
f 18/24/24 33/25/25 17/20/20
f 17/20/20 33/25/25 34/26/26
f 17/20/20 34/26/26 35/27/27
f 15/17/17 26/28/28 18/24/24
f 18/24/24 26/28/28 27/29/29
f 18/24/24 27/29/29 28/30/30
f 6/23/23 5/31/31 16/15/15
f 16/15/15 5/31/31 4/32/32
f 16/15/15 4/32/32 3/33/33
f 3/33/33 2/34/34 16/15/15
f 16/15/15 2/34/34 1/35/35
f 16/15/15 1/35/35 19/16/16
f 21/19/19 22/36/36 15/17/17
f 15/17/17 22/36/36 23/37/37
f 15/17/17 23/37/37 24/38/38
f 24/38/38 25/39/39 15/17/17
f 15/17/17 25/39/39 26/28/28
f 28/30/30 29/40/40 18/24/24
f 18/24/24 29/40/40 30/41/41
f 18/24/24 30/41/41 31/42/42
f 31/42/42 32/43/43 18/24/24
f 18/24/24 32/43/43 33/25/25
f 35/27/27 36/44/44 17/20/20
f 17/20/20 36/44/44 37/45/45
f 17/20/20 37/45/45 38/46/46
f 38/46/46 39/21/21 17/20/20
f 14/47/1 40/48/47 1/49/2
f 1/49/2 40/48/47 19/50/48
f 19/51/48 40/52/47 20/53/49
f 20/53/49 40/52/47 41/54/50
f 20/53/49 41/54/50 21/55/51
f 21/55/51 41/54/50 42/56/52
f 21/55/51 42/56/52 22/57/53
f 22/57/53 42/56/52 43/58/54
f 22/57/53 43/58/54 23/59/55
f 23/59/55 43/58/54 44/60/56
f 23/59/55 44/60/56 24/61/57
f 24/61/57 44/60/56 45/62/58
f 24/61/57 45/62/58 25/63/59
f 25/63/59 45/62/58 46/64/60
f 26/65/61 47/66/62 27/67/63
f 27/67/63 47/66/62 48/68/64
f 27/67/63 48/68/64 28/69/65
f 28/69/65 48/68/64 49/70/66
f 28/69/65 49/70/66 29/71/67
f 29/71/67 49/70/66 50/72/68
f 29/71/67 50/72/68 30/73/69
f 30/73/69 50/72/68 51/74/70
f 30/73/69 51/74/70 31/75/71
f 31/75/71 51/74/70 52/76/72
f 31/75/71 52/76/72 32/77/73
f 32/77/73 52/76/72 53/78/74
f 53/79/74 54/80/75 32/81/73
f 32/81/73 54/80/75 33/82/76
f 33/83/76 54/84/75 34/85/77
f 34/85/77 54/84/75 55/86/78
f 34/85/77 55/86/78 35/87/79
f 35/87/79 55/86/78 56/88/80
f 35/87/79 56/88/80 36/89/81
f 36/89/81 56/88/80 57/90/82
f 36/89/81 57/90/82 37/91/83
f 37/91/83 57/90/82 58/92/84
f 37/91/83 58/92/84 38/93/85
f 38/93/85 58/92/84 59/94/86
f 38/93/85 59/94/86 39/95/87
f 39/95/87 59/94/86 60/96/88
f 16/97/89 15/98/90 62/99/91
f 62/99/91 15/98/90 61/100/92
f 17/101/93 16/102/94 63/103/95
f 63/103/95 16/102/94 62/104/96
f 18/105/97 17/106/98 64/107/99
f 64/107/99 17/106/98 63/108/100
f 15/109/101 18/110/102 61/111/103
f 61/111/103 18/110/102 64/112/104
f 46/113/60 47/114/62 25/115/59
f 25/115/59 47/114/62 26/116/61
f 7/117/14 39/118/87 8/119/13
f 8/119/13 39/118/87 60/120/88
f 13/121/105 62/122/106 14/123/107
f 14/123/107 62/122/106 61/124/108
f 14/123/107 61/124/108 40/125/109
f 40/125/109 61/124/108 41/126/110
f 41/126/110 61/124/108 42/127/111
f 42/127/111 61/124/108 43/128/112
f 43/128/112 61/124/108 44/129/113
f 44/129/113 61/124/108 45/130/114
f 45/130/114 61/124/108 46/131/115
f 46/131/115 61/124/108 47/132/116
f 47/132/116 61/124/108 64/133/117
f 47/132/116 64/133/117 48/134/118
f 48/134/118 64/133/117 49/135/119
f 49/135/119 64/133/117 50/136/120
f 50/136/120 64/133/117 51/137/121
f 51/137/121 64/133/117 52/138/122
f 52/138/122 64/133/117 53/139/123
f 53/139/123 64/133/117 63/140/124
f 53/139/123 63/140/124 54/141/125
f 54/141/125 63/140/124 55/142/126
f 55/142/126 63/140/124 56/143/127
f 56/143/127 63/140/124 57/144/128
f 57/144/128 63/140/124 58/145/129
f 58/145/129 63/140/124 59/146/130
f 59/146/130 63/140/124 60/147/131
f 60/147/131 63/140/124 62/122/106
f 60/147/131 62/122/106 8/148/132
f 8/148/132 62/122/106 9/149/133
f 9/149/133 62/122/106 10/150/134
f 10/150/134 62/122/106 11/151/135
f 11/151/135 62/122/106 12/152/136
f 12/152/136 62/122/106 13/121/105

# 64 vertices
# 152 texture params
# 136 normals
# 128 facets

# 1 groups
