# WaveFront *.obj file (generated by Autodesk ATF)

mtllib 7a66a47a-c691-4406-a180-52fd7ce319f2.mtl

g Body1

v -2.500000 0.508856 -75.006200
v -2.500000 1.000000 -66.506200
v -2.500000 1.000000 66.506200
v -2.500000 0.508856 75.006200
v -2.500000 -0.508856 75.006200
v -2.500000 -0.508856 -75.006200
v -2.500000 -1.500000 75.006195
v -2.500000 -1.448901 75.394339
v -2.500000 -1.299084 75.756031
v -2.500000 -1.060760 76.066623
v -2.500000 -0.750168 76.304949
v -2.500000 -0.388477 76.454767
v -2.500000 -0.000334 76.505868
v -2.500000 0.387809 76.454768
v -2.500000 0.749501 76.304951
v -2.500000 1.060093 76.066626
v -2.500000 1.298418 75.756034
v -2.500000 1.448236 75.394342
v -2.500000 1.499336 75.006199
v -2.500000 1.499336 -75.006201
v -2.500000 1.448236 -75.394344
v -2.500000 1.298418 -75.756035
v -2.500000 1.060093 -76.066626
v -2.500000 0.749501 -76.304951
v -2.500000 0.387810 -76.454768
v -2.500000 -0.000333 -76.505868
v -2.500000 -0.388475 -76.454768
v -2.500000 -0.750166 -76.304950
v -2.500000 -1.060758 -76.066625
v -2.500000 -1.299083 -75.756034
v -2.500000 -1.448900 -75.394343
v -2.500000 -1.500000 -75.006200
v 2.500000 1.000000 -66.506200
v 2.500000 1.000000 66.506200
v 2.500000 0.508856 75.006200
v 2.500000 -0.508856 75.006200
v 2.500000 -0.508856 -75.006200
v 2.500000 0.508856 -75.006200
v 2.500000 1.499336 75.006199
v 2.500000 1.499336 -75.006201
v 2.500000 1.448236 -75.394344
v 2.500000 1.298418 -75.756035
v 2.500000 1.060093 -76.066626
v 2.500000 0.749501 -76.304951
v 2.500000 0.387810 -76.454768
v 2.500000 -0.000333 -76.505868
v 2.500000 -0.388475 -76.454768
v 2.500000 -0.750166 -76.304950
v 2.500000 -1.060758 -76.066625
v 2.500000 -1.299083 -75.756034
v 2.500000 -1.448900 -75.394343
v 2.500000 -1.500000 -75.006200
v 2.500000 -1.500000 75.006195
v 2.500000 -1.448901 75.394339
v 2.500000 -1.299084 75.756031
v 2.500000 -1.060760 76.066623
v 2.500000 -0.750168 76.304949
v 2.500000 -0.388477 76.454767
v 2.500000 -0.000334 76.505868
v 2.500000 0.387809 76.454768
v 2.500000 0.749501 76.304951
v 2.500000 1.060093 76.066626
v 2.500000 1.298418 75.756034
v 2.500000 1.448236 75.394342
vt -6.650620 0.100033 0.000000
vt -7.630495 0.074983 0.000000
vt -7.500620 0.050919 0.000000
vt -7.645477 0.038814 0.000000
vt -7.650587 -0.000000 0.000000
vt 6.650620 0.100033 0.000000
vt 7.500620 0.149967 0.000000
vt -7.500620 0.149967 0.000000
vt -7.575603 0.129875 0.000000
vt -7.539434 0.144857 0.000000
vt 7.500620 0.050919 0.000000
vt 7.630495 0.074983 0.000000
vt 7.606663 0.106042 0.000000
vt 7.575603 0.129875 0.000000
vt 7.500620 -0.050852 0.000000
vt 7.650587 -0.000000 0.000000
vt 7.645477 0.038814 0.000000
vt -7.500620 -0.050852 0.000000
vt 7.500620 -0.149967 0.000000
vt 7.575603 -0.129875 0.000000
vt 7.606662 -0.106043 0.000000
vt -7.645477 -0.038814 0.000000
vt -7.630495 -0.074983 0.000000
vt 7.539434 -0.144857 0.000000
vt 7.630495 -0.074984 0.000000
vt 7.645477 -0.038814 0.000000
vt 7.539434 0.144857 0.000000
vt -7.606663 0.106042 0.000000
vt -7.606663 -0.106043 0.000000
vt -7.575603 -0.129875 0.000000
vt -7.500620 -0.149967 0.000000
vt -7.539434 -0.144857 0.000000
vt 13.301240 0.250000 0.000000
vt 0.000000 0.250000 0.000000
vt 13.301240 -0.250000 0.000000
vt 0.000000 -0.250000 0.000000
vt 0.851418 0.250000 0.000000
vt 0.000000 0.250000 0.000000
vt 0.851418 -0.250000 0.000000
vt 0.000000 -0.250000 0.000000
vt 0.101771 0.250000 0.000000
vt -0.000000 0.250000 0.000000
vt 0.101771 -0.250000 0.000000
vt -0.000000 -0.250000 0.000000
vt 15.001240 0.250000 0.000000
vt -0.000000 0.250000 0.000000
vt 15.001240 -0.250000 0.000000
vt -0.000000 -0.250000 0.000000
vt 0.101771 0.250000 0.000000
vt 0.000000 0.250000 0.000000
vt 0.101771 -0.250000 0.000000
vt 0.000000 -0.250000 0.000000
vt 0.851418 0.250000 0.000000
vt 0.000000 0.250000 0.000000
vt 0.851418 -0.250000 0.000000
vt -0.000000 -0.250000 0.000000
vt 15.001240 0.250000 0.000000
vt 0.000000 0.250000 0.000000
vt 15.001240 -0.250000 0.000000
vt 0.000000 -0.250000 0.000000
vt 0.250000 0.471134 0.000000
vt -0.250000 0.471134 0.000000
vt 0.250000 0.431873 0.000000
vt -0.250000 0.431873 0.000000
vt 0.250000 0.392612 0.000000
vt -0.250000 0.392612 0.000000
vt 0.250000 0.353351 0.000000
vt -0.250000 0.353351 0.000000
vt 0.250000 0.314090 0.000000
vt -0.250000 0.314090 0.000000
vt 0.250000 0.274828 0.000000
vt -0.250000 0.274828 0.000000
vt 0.250000 0.235567 0.000000
vt -0.250000 0.235567 0.000000
vt 0.250000 0.196306 0.000000
vt -0.250000 0.196306 0.000000
vt 0.250000 0.157045 0.000000
vt -0.250000 0.157045 0.000000
vt 0.250000 0.117784 0.000000
vt -0.250000 0.117784 0.000000
vt 0.250000 0.078522 0.000000
vt -0.250000 0.078522 0.000000
vt 0.250000 0.039261 0.000000
vt -0.250000 0.039261 0.000000
vt 0.250000 0.000000 0.000000
vt -0.250000 0.000000 0.000000
vt 15.001240 0.250000 0.000000
vt -0.000000 0.250000 0.000000
vt 15.001240 -0.250000 0.000000
vt -0.000000 -0.250000 0.000000
vt 0.250000 -0.471134 0.000000
vt -0.250000 -0.471134 0.000000
vt 0.250000 -0.510395 0.000000
vt -0.250000 -0.510395 0.000000
vt 0.250000 -0.549657 0.000000
vt -0.250000 -0.549657 0.000000
vt 0.250000 -0.588918 0.000000
vt -0.250000 -0.588918 0.000000
vt 0.250000 -0.628179 0.000000
vt -0.250000 -0.628179 0.000000
vt 0.250000 -0.667440 0.000000
vt -0.250000 -0.667440 0.000000
vt 0.250000 -0.706702 0.000000
vt -0.250000 -0.706702 0.000000
vt 0.250000 -0.745963 0.000000
vt -0.250000 -0.745963 0.000000
vt 0.250000 -0.785224 0.000000
vt -0.250000 -0.785224 0.000000
vt 0.250000 -0.824485 0.000000
vt -0.250000 -0.824485 0.000000
vt 0.250000 -0.863747 0.000000
vt -0.250000 -0.863747 0.000000
vt 0.250000 -0.903008 0.000000
vt -0.250000 -0.903008 0.000000
vt 0.250000 -0.942269 0.000000
vt -0.250000 -0.942269 0.000000
vt 7.500620 0.050919 0.000000
vt 7.630495 0.074983 0.000000
vt 6.650620 0.100033 0.000000
vt 7.606663 0.106042 0.000000
vt 7.575603 0.129875 0.000000
vt 7.500620 -0.050852 0.000000
vt 7.650587 -0.000000 0.000000
vt 7.645477 0.038814 0.000000
vt -7.500620 -0.050852 0.000000
vt -7.500620 -0.149967 0.000000
vt 7.500620 -0.149967 0.000000
vt 7.575603 -0.129875 0.000000
vt 7.539434 -0.144857 0.000000
vt -7.500620 0.050919 0.000000
vt -7.650587 -0.000000 0.000000
vt -7.645477 -0.038814 0.000000
vt -7.630495 -0.074984 0.000000
vt -6.650620 0.100033 0.000000
vt -7.630495 0.074983 0.000000
vt -7.645477 0.038814 0.000000
vt -7.500620 0.149967 0.000000
vt -7.575603 0.129875 0.000000
vt -7.606663 0.106042 0.000000
vt -7.539434 0.144857 0.000000
vt -7.606662 -0.106043 0.000000
vt -7.575603 -0.129875 0.000000
vt -7.539434 -0.144857 0.000000
vt 7.606663 -0.106043 0.000000
vt 7.630495 -0.074983 0.000000
vt 7.645477 -0.038814 0.000000
vt 7.539434 0.144857 0.000000
vt 7.500620 0.149967 0.000000
vn -0.100000 0.000000 0.000000
vn -0.100000 0.000000 0.000000
vn -0.100000 0.000000 0.000000
vn -0.100000 0.000000 0.000000
vn -0.100000 0.000000 0.000000
vn -0.100000 0.000000 0.000000
vn -0.100000 0.000000 0.000000
vn -0.100000 0.000000 0.000000
vn -0.100000 0.000000 0.000000
vn -0.100000 0.000000 0.000000
vn -0.100000 0.000000 0.000000
vn -0.100000 0.000000 0.000000
vn -0.100000 0.000000 0.000000
vn -0.100000 0.000000 0.000000
vn -0.100000 0.000000 0.000000
vn -0.100000 0.000000 0.000000
vn -0.100000 0.000000 0.000000
vn -0.100000 0.000000 0.000000
vn -0.100000 0.000000 0.000000
vn -0.100000 0.000000 0.000000
vn -0.100000 0.000000 0.000000
vn -0.100000 0.000000 0.000000
vn -0.100000 0.000000 0.000000
vn -0.100000 0.000000 0.000000
vn -0.100000 0.000000 0.000000
vn -0.100000 0.000000 0.000000
vn -0.100000 0.000000 0.000000
vn -0.100000 0.000000 0.000000
vn -0.100000 0.000000 0.000000
vn -0.100000 0.000000 0.000000
vn -0.100000 0.000000 0.000000
vn -0.100000 0.000000 0.000000
vn 0.000000 -0.100000 -0.000000
vn 0.000000 -0.100000 -0.000000
vn 0.000000 -0.100000 -0.000000
vn 0.000000 -0.100000 -0.000000
vn 0.000000 -0.099833 -0.005769
vn 0.000000 -0.099833 -0.005769
vn 0.000000 -0.099833 -0.005769
vn 0.000000 -0.099833 -0.005769
vn 0.000000 0.000000 -0.100000
vn 0.000000 0.000000 -0.100000
vn 0.000000 0.000000 -0.100000
vn 0.000000 0.000000 -0.100000
vn 0.000000 0.100000 0.000000
vn 0.000000 0.100000 0.000000
vn 0.000000 0.100000 0.000000
vn 0.000000 0.100000 0.000000
vn 0.000000 0.000000 0.100000
vn 0.000000 0.000000 0.100000
vn 0.000000 0.000000 0.100000
vn 0.000000 0.000000 0.100000
vn 0.000000 -0.099833 0.005769
vn 0.000000 -0.099833 0.005769
vn 0.000000 -0.099833 0.005769
vn 0.000000 -0.099833 0.005769
vn 0.000000 0.100000 0.000000
vn 0.000000 0.100000 0.000000
vn 0.000000 0.100000 0.000000
vn 0.000000 0.100000 0.000000
vn -0.000000 0.100000 -0.000000
vn -0.000000 0.100000 -0.000000
vn -0.000000 0.096593 -0.025882
vn -0.000000 0.096593 -0.025882
vn -0.000000 0.086603 -0.050000
vn -0.000000 0.086603 -0.050000
vn -0.000000 0.070711 -0.070711
vn -0.000000 0.070711 -0.070711
vn -0.000000 0.050000 -0.086603
vn -0.000000 0.050000 -0.086603
vn -0.000000 0.025882 -0.096593
vn -0.000000 0.025882 -0.096593
vn 0.000000 -0.000000 -0.100000
vn 0.000000 -0.000000 -0.100000
vn 0.000000 -0.025882 -0.096593
vn 0.000000 -0.025882 -0.096593
vn 0.000000 -0.050000 -0.086603
vn 0.000000 -0.050000 -0.086603
vn 0.000000 -0.070711 -0.070711
vn 0.000000 -0.070711 -0.070711
vn 0.000000 -0.086603 -0.050000
vn 0.000000 -0.086603 -0.050000
vn 0.000000 -0.096593 -0.025882
vn 0.000000 -0.096593 -0.025882
vn 0.000000 -0.100000 -0.000000
vn 0.000000 -0.100000 -0.000000
vn 0.000000 -0.100000 0.000000
vn 0.000000 -0.100000 0.000000
vn 0.000000 -0.100000 0.000000
vn 0.000000 -0.100000 0.000000
vn 0.000000 -0.100000 -0.000000
vn 0.000000 -0.100000 -0.000000
vn 0.000000 -0.096593 0.025882
vn 0.000000 -0.096593 0.025882
vn 0.000000 -0.086603 0.050000
vn 0.000000 -0.086603 0.050000
vn 0.000000 -0.070711 0.070711
vn 0.000000 -0.070711 0.070711
vn 0.000000 -0.050000 0.086602
vn 0.000000 -0.050000 0.086602
vn 0.000000 -0.025882 0.096593
vn 0.000000 -0.025882 0.096593
vn 0.000000 -0.000000 0.100000
vn 0.000000 -0.000000 0.100000
vn 0.000000 0.025882 0.096593
vn 0.000000 0.025882 0.096593
vn 0.000000 0.050000 0.086603
vn 0.000000 0.050000 0.086603
vn 0.000000 0.070711 0.070711
vn 0.000000 0.070711 0.070711
vn 0.000000 0.086603 0.050000
vn 0.000000 0.086603 0.050000
vn 0.000000 0.096593 0.025882
vn 0.000000 0.096593 0.025882
vn -0.000000 0.100000 -0.000000
vn -0.000000 0.100000 -0.000000
vn 0.100000 0.000000 0.000000
vn 0.100000 0.000000 0.000000
vn 0.100000 0.000000 0.000000
vn 0.100000 0.000000 0.000000
vn 0.100000 0.000000 0.000000
vn 0.100000 0.000000 0.000000
vn 0.100000 0.000000 0.000000
vn 0.100000 0.000000 0.000000
vn 0.100000 0.000000 0.000000
vn 0.100000 0.000000 0.000000
vn 0.100000 0.000000 0.000000
vn 0.100000 0.000000 0.000000
vn 0.100000 0.000000 0.000000
vn 0.100000 0.000000 0.000000
vn 0.100000 0.000000 0.000000
vn 0.100000 0.000000 0.000000
vn 0.100000 0.000000 0.000000
vn 0.100000 0.000000 0.000000
vn 0.100000 0.000000 0.000000
vn 0.100000 0.000000 0.000000
vn 0.100000 0.000000 0.000000
vn 0.100000 0.000000 0.000000
vn 0.100000 0.000000 0.000000
vn 0.100000 0.000000 0.000000
vn 0.100000 0.000000 0.000000
vn 0.100000 0.000000 0.000000
vn 0.100000 0.000000 0.000000
vn 0.100000 0.000000 0.000000
vn 0.100000 0.000000 0.000000
vn 0.100000 0.000000 0.000000
vn 0.100000 0.000000 0.000000
vn 0.100000 0.000000 0.000000
usemtl Steel_-_Satin
f 2/1/1 24/2/2 1/3/3
f 1/3/3 24/2/2 25/4/4
f 1/3/3 25/4/4 26/5/5
f 3/6/6 19/7/7 2/1/1
f 2/1/1 19/7/7 20/8/8
f 2/1/1 20/8/8 22/9/9
f 22/9/9 20/8/8 21/10/10
f 4/11/11 15/12/12 3/6/6
f 3/6/6 15/12/12 16/13/13
f 3/6/6 16/13/13 17/14/14
f 5/15/15 13/16/16 4/11/11
f 4/11/11 13/16/16 14/17/17
f 4/11/11 14/17/17 15/12/12
f 6/18/18 7/19/19 5/15/15
f 5/15/15 7/19/19 9/20/20
f 5/15/15 9/20/20 10/21/21
f 1/3/3 26/5/5 6/18/18
f 6/18/18 26/5/5 27/22/22
f 6/18/18 27/22/22 28/23/23
f 7/19/19 8/24/24 9/20/20
f 10/21/21 11/25/25 5/15/15
f 5/15/15 11/25/25 12/26/26
f 5/15/15 12/26/26 13/16/16
f 18/27/27 19/7/7 17/14/14
f 17/14/14 19/7/7 3/6/6
f 22/9/9 23/28/28 2/1/1
f 2/1/1 23/28/28 24/2/2
f 28/23/23 29/29/29 6/18/18
f 6/18/18 29/29/29 30/30/30
f 6/18/18 30/30/30 32/31/31
f 32/31/31 30/30/30 31/32/32
f 32/31/31 7/19/19 6/18/18
f 33/33/33 34/34/34 2/35/35
f 2/35/35 34/34/34 3/36/36
f 34/37/37 35/38/38 3/39/39
f 3/39/39 35/38/38 4/40/40
f 35/41/41 36/42/42 4/43/43
f 4/43/43 36/42/42 5/44/44
f 36/45/45 37/46/46 5/47/47
f 5/47/47 37/46/46 6/48/48
f 37/49/49 38/50/50 6/51/51
f 6/51/51 38/50/50 1/52/52
f 38/53/53 33/54/54 1/55/55
f 1/55/55 33/54/54 2/56/56
f 39/57/57 40/58/58 19/59/59
f 19/59/59 40/58/58 20/60/60
f 20/61/61 40/62/62 21/63/63
f 21/63/63 40/62/62 41/64/64
f 21/63/63 41/64/64 22/65/65
f 22/65/65 41/64/64 42/66/66
f 22/65/65 42/66/66 23/67/67
f 23/67/67 42/66/66 43/68/68
f 23/67/67 43/68/68 24/69/69
f 24/69/69 43/68/68 44/70/70
f 24/69/69 44/70/70 25/71/71
f 25/71/71 44/70/70 45/72/72
f 25/71/71 45/72/72 26/73/73
f 26/73/73 45/72/72 46/74/74
f 26/73/73 46/74/74 27/75/75
f 27/75/75 46/74/74 47/76/76
f 27/75/75 47/76/76 28/77/77
f 28/77/77 47/76/76 48/78/78
f 28/77/77 48/78/78 29/79/79
f 29/79/79 48/78/78 49/80/80
f 29/79/79 49/80/80 30/81/81
f 30/81/81 49/80/80 50/82/82
f 30/81/81 50/82/82 31/83/83
f 31/83/83 50/82/82 51/84/84
f 31/83/83 51/84/84 32/85/85
f 32/85/85 51/84/84 52/86/86
f 52/87/87 53/88/88 32/89/89
f 32/89/89 53/88/88 7/90/90
f 7/91/91 53/92/92 8/93/93
f 8/93/93 53/92/92 54/94/94
f 8/93/93 54/94/94 9/95/95
f 9/95/95 54/94/94 55/96/96
f 9/95/95 55/96/96 10/97/97
f 10/97/97 55/96/96 56/98/98
f 10/97/97 56/98/98 11/99/99
f 11/99/99 56/98/98 57/100/100
f 11/99/99 57/100/100 12/101/101
f 12/101/101 57/100/100 58/102/102
f 12/101/101 58/102/102 13/103/103
f 13/103/103 58/102/102 59/104/104
f 13/103/103 59/104/104 14/105/105
f 14/105/105 59/104/104 60/106/106
f 14/105/105 60/106/106 15/107/107
f 15/107/107 60/106/106 61/108/108
f 15/107/107 61/108/108 16/109/109
f 16/109/109 61/108/108 62/110/110
f 16/109/109 62/110/110 17/111/111
f 17/111/111 62/110/110 63/112/112
f 17/111/111 63/112/112 18/113/113
f 18/113/113 63/112/112 64/114/114
f 18/113/113 64/114/114 19/115/115
f 19/115/115 64/114/114 39/116/116
f 38/117/117 44/118/118 33/119/119
f 33/119/119 44/118/118 43/120/120
f 33/119/119 43/120/120 42/121/121
f 37/122/122 46/123/123 38/117/117
f 38/117/117 46/123/123 45/124/124
f 38/117/117 45/124/124 44/118/118
f 36/125/125 53/126/126 37/122/122
f 37/122/122 53/126/126 52/127/127
f 37/122/122 52/127/127 50/128/128
f 50/128/128 52/127/127 51/129/129
f 35/130/130 59/131/131 36/125/125
f 36/125/125 59/131/131 58/132/132
f 36/125/125 58/132/132 57/133/133
f 34/134/134 61/135/135 35/130/130
f 35/130/130 61/135/135 60/136/136
f 35/130/130 60/136/136 59/131/131
f 33/119/119 39/137/137 34/134/134
f 34/134/134 39/137/137 63/138/138
f 34/134/134 63/138/138 62/139/139
f 39/137/137 64/140/140 63/138/138
f 62/139/139 61/135/135 34/134/134
f 57/133/133 56/141/141 36/125/125
f 36/125/125 56/141/141 55/142/142
f 36/125/125 55/142/142 53/126/126
f 53/126/126 55/142/142 54/143/143
f 50/128/128 49/144/144 37/122/122
f 37/122/122 49/144/144 48/145/145
f 37/122/122 48/145/145 47/146/146
f 47/146/146 46/123/123 37/122/122
f 41/147/147 40/148/148 42/121/121
f 42/121/121 40/148/148 33/119/119
f 40/148/148 39/137/137 33/119/119

# 64 vertices
# 148 texture params
# 148 normals
# 128 facets

# 1 groups
