# WaveFront *.obj file (generated by Autodesk ATF)

mtllib 0562cf88-f630-47b5-ad4e-1898008dccec.mtl

g Body1

v 1.500000 -8.596300 -8.500000
v 0.500000 -8.596300 -8.500000
v 0.500000 -8.596300 8.500000
v 1.500000 -8.596300 8.500000
v 0.000000 -8.596300 -8.000000
v 0.034074 -8.596300 -8.258819
v 0.133975 -8.596300 -8.500000
v 0.292893 -8.596300 -8.707107
v 0.500000 -8.596300 -8.866025
v 0.741181 -8.596300 -8.965926
v 1.000000 -8.596300 -9.000000
v 1.258819 -8.596300 -8.965926
v 1.500000 -8.596300 -8.866025
v 1.707107 -8.596300 -8.707107
v 1.866025 -8.596300 -8.500000
v 1.965926 -8.596300 -8.258819
v 2.000000 -8.596300 -8.000000
v 2.000000 -8.596300 8.000000
v 1.965926 -8.596300 8.258819
v 1.866025 -8.596300 8.500000
v 1.707107 -8.596300 8.707107
v 1.500000 -8.596300 8.866025
v 1.258819 -8.596300 8.965926
v 1.000000 -8.596300 9.000000
v 0.741181 -8.596300 8.965926
v 0.500000 -8.596300 8.866025
v 0.292893 -8.596300 8.707107
v 0.133975 -8.596300 8.500000
v 0.034074 -8.596300 8.258819
v 0.000000 -8.596300 8.000000
v 0.000000 8.596300 -8.000000
v 0.034074 8.596300 -8.258819
v 0.133975 8.596300 -8.500000
v 0.292893 8.596300 -8.707107
v 0.500000 8.596300 -8.866025
v 0.741181 8.596300 -8.965926
v 1.000000 8.596300 -9.000000
v 1.258819 8.596300 -8.965926
v 1.500000 8.596300 -8.866025
v 1.707107 8.596300 -8.707107
v 1.866025 8.596300 -8.500000
v 1.965926 8.596300 -8.258819
v 2.000000 8.596300 -8.000000
v 2.000000 8.596300 8.000000
v 0.000000 8.596300 8.000000
v 0.034074 8.596300 8.258819
v 0.133975 8.596300 8.500000
v 0.292893 8.596300 8.707107
v 0.500000 8.596300 8.866025
v 0.741181 8.596300 8.965926
v 1.000000 8.596300 9.000000
v 1.258819 8.596300 8.965926
v 1.500000 8.596300 8.866025
v 1.707107 8.596300 8.707107
v 1.866025 8.596300 8.500000
v 1.965926 8.596300 8.258819
v 0.500000 8.596300 -8.500000
v 1.500000 8.596300 -8.500000
v 1.500000 8.596300 8.500000
v 0.500000 8.596300 8.500000
vt 1.750000 0.050000 0.000000
vt 1.800000 0.100000 0.000000
vt 1.750000 0.150000 0.000000
vt 1.796593 0.125882 0.000000
vt 1.786603 0.150000 0.000000
vt 0.050000 0.050000 0.000000
vt 1.700000 0.000000 0.000000
vt 1.725882 0.003407 0.000000
vt 1.750000 0.013397 0.000000
vt 0.050000 0.150000 0.000000
vt 0.000000 0.100000 0.000000
vt 0.003407 0.074118 0.000000
vt 0.013397 0.050000 0.000000
vt 0.100000 0.200000 0.000000
vt 0.074118 0.196593 0.000000
vt 0.050000 0.186603 0.000000
vt 1.770711 0.029289 0.000000
vt 1.786603 0.050000 0.000000
vt 1.796593 0.074118 0.000000
vt 1.770711 0.170711 0.000000
vt 1.750000 0.186603 0.000000
vt 1.725882 0.196593 0.000000
vt 1.700000 0.200000 0.000000
vt 0.029289 0.170711 0.000000
vt 0.013397 0.150000 0.000000
vt 0.003407 0.125882 0.000000
vt 0.029289 0.029289 0.000000
vt 0.050000 0.013397 0.000000
vt 0.074118 0.003407 0.000000
vt 0.100000 0.000000 0.000000
vt 0.429815 0.235619 0.000000
vt -1.289445 0.235619 0.000000
vt 0.429815 0.209440 0.000000
vt -1.289445 0.209440 0.000000
vt 0.429815 0.183260 0.000000
vt -1.289445 0.183260 0.000000
vt 0.429815 0.157080 0.000000
vt -1.289445 0.157080 0.000000
vt 0.429815 0.130900 0.000000
vt -1.289445 0.130900 0.000000
vt 0.429815 0.104720 0.000000
vt -1.289445 0.104720 0.000000
vt 0.429815 0.078540 0.000000
vt -1.289445 0.078540 0.000000
vt 0.429815 0.052360 0.000000
vt -1.289445 0.052360 0.000000
vt 0.429815 0.026180 0.000000
vt -1.289445 0.026180 0.000000
vt 0.429815 -0.000000 0.000000
vt -1.289445 -0.000000 0.000000
vt 0.429815 -0.026180 0.000000
vt -1.289445 -0.026180 0.000000
vt 0.429815 -0.052360 0.000000
vt -1.289445 -0.052360 0.000000
vt 0.429815 -0.078540 0.000000
vt -1.289445 -0.078540 0.000000
vt 0.800000 0.859630 0.000000
vt -0.800000 0.859630 0.000000
vt 0.800000 -0.859630 0.000000
vt -0.800000 -0.859630 0.000000
vt 0.074118 0.196593 0.000000
vt 0.050000 0.150000 0.000000
vt 0.100000 0.200000 0.000000
vt 1.750000 0.150000 0.000000
vt 1.700000 0.200000 0.000000
vt 1.725882 0.196593 0.000000
vt 1.750000 0.186603 0.000000
vt 1.770711 0.170711 0.000000
vt 1.786603 0.150000 0.000000
vt 1.796593 0.125882 0.000000
vt 1.800000 0.100000 0.000000
vt 1.750000 0.050000 0.000000
vt 1.796593 0.074118 0.000000
vt 1.786603 0.050000 0.000000
vt 1.770711 0.029289 0.000000
vt 1.750000 0.013397 0.000000
vt 1.725882 0.003407 0.000000
vt 1.700000 0.000000 0.000000
vt 0.050000 0.050000 0.000000
vt 0.100000 0.000000 0.000000
vt 0.074118 0.003407 0.000000
vt 0.050000 0.013397 0.000000
vt 0.029289 0.029289 0.000000
vt 0.013397 0.050000 0.000000
vt 0.003407 0.074118 0.000000
vt 0.000000 0.100000 0.000000
vt 0.003407 0.125882 0.000000
vt 0.013397 0.150000 0.000000
vt 0.029289 0.170711 0.000000
vt 0.050000 0.186603 0.000000
vt 0.429815 0.078540 0.000000
vt -1.289445 0.078540 0.000000
vt 0.429815 0.052360 0.000000
vt -1.289445 0.052360 0.000000
vt 0.429815 0.026180 0.000000
vt -1.289445 0.026180 0.000000
vt 0.429815 -0.000000 0.000000
vt -1.289445 -0.000000 0.000000
vt 0.429815 -0.026180 0.000000
vt -1.289445 -0.026180 0.000000
vt 0.429815 -0.052360 0.000000
vt -1.289445 -0.052360 0.000000
vt 0.429815 -0.078540 0.000000
vt -1.289445 -0.078540 0.000000
vt 0.429815 -0.104720 0.000000
vt -1.289445 -0.104720 0.000000
vt 0.429815 -0.130900 0.000000
vt -1.289445 -0.130900 0.000000
vt 0.429815 -0.157080 0.000000
vt -1.289445 -0.157080 0.000000
vt 0.429815 -0.183260 0.000000
vt -1.289445 -0.183260 0.000000
vt 0.429815 -0.209440 0.000000
vt -1.289445 -0.209440 0.000000
vt 0.429815 -0.235619 0.000000
vt -1.289445 -0.235619 0.000000
vt -1.719260 0.050000 0.000000
vt 0.000000 0.050000 0.000000
vt -1.719260 0.150000 0.000000
vt 0.000000 0.150000 0.000000
vt -1.719260 0.050000 0.000000
vt -0.000000 0.050000 0.000000
vt -1.719260 0.150000 0.000000
vt -0.000000 0.150000 0.000000
vt -0.850000 -0.859630 0.000000
vt 0.850000 -0.859630 0.000000
vt -0.850000 0.859630 0.000000
vt 0.850000 0.859630 0.000000
vt 0.850000 0.859630 0.000000
vt -0.850000 0.859630 0.000000
vt 0.850000 -0.859630 0.000000
vt -0.850000 -0.859630 0.000000
vt -0.800000 -0.859630 0.000000
vt 0.800000 -0.859630 0.000000
vt -0.800000 0.859630 0.000000
vt 0.800000 0.859630 0.000000
vn 0.000000 -0.100000 0.000000
vn 0.000000 -0.100000 0.000000
vn 0.000000 -0.100000 0.000000
vn 0.000000 -0.100000 0.000000
vn 0.000000 -0.100000 0.000000
vn 0.000000 -0.100000 0.000000
vn 0.000000 -0.100000 0.000000
vn 0.000000 -0.100000 0.000000
vn 0.000000 -0.100000 0.000000
vn 0.000000 -0.100000 0.000000
vn 0.000000 -0.100000 0.000000
vn 0.000000 -0.100000 0.000000
vn 0.000000 -0.100000 0.000000
vn 0.000000 -0.100000 0.000000
vn 0.000000 -0.100000 0.000000
vn 0.000000 -0.100000 0.000000
vn 0.000000 -0.100000 0.000000
vn 0.000000 -0.100000 0.000000
vn 0.000000 -0.100000 0.000000
vn 0.000000 -0.100000 0.000000
vn 0.000000 -0.100000 0.000000
vn 0.000000 -0.100000 0.000000
vn 0.000000 -0.100000 0.000000
vn 0.000000 -0.100000 0.000000
vn 0.000000 -0.100000 0.000000
vn 0.000000 -0.100000 0.000000
vn 0.000000 -0.100000 0.000000
vn 0.000000 -0.100000 0.000000
vn 0.000000 -0.100000 0.000000
vn 0.000000 -0.100000 0.000000
vn -0.100000 -0.000000 0.000000
vn -0.100000 -0.000000 0.000000
vn -0.096593 0.000000 -0.025882
vn -0.096593 0.000000 -0.025882
vn -0.086603 0.000000 -0.050000
vn -0.086603 0.000000 -0.050000
vn -0.070711 0.000000 -0.070711
vn -0.070711 0.000000 -0.070711
vn -0.050000 0.000000 -0.086603
vn -0.050000 0.000000 -0.086603
vn -0.025882 0.000000 -0.096593
vn -0.025882 0.000000 -0.096593
vn 0.000000 0.000000 -0.100000
vn -0.000000 0.000000 -0.100000
vn 0.025882 0.000000 -0.096593
vn 0.025882 0.000000 -0.096593
vn 0.050000 0.000000 -0.086603
vn 0.050000 0.000000 -0.086603
vn 0.070711 0.000000 -0.070711
vn 0.070711 0.000000 -0.070711
vn 0.086603 0.000000 -0.050000
vn 0.086603 0.000000 -0.050000
vn 0.096593 0.000000 -0.025882
vn 0.096593 0.000000 -0.025882
vn 0.100000 -0.000000 0.000000
vn 0.100000 -0.000000 0.000000
vn 0.100000 0.000000 0.000000
vn 0.100000 0.000000 0.000000
vn 0.000000 0.100000 0.000000
vn 0.000000 0.100000 0.000000
vn 0.000000 0.100000 0.000000
vn 0.000000 0.100000 0.000000
vn 0.000000 0.100000 0.000000
vn 0.000000 0.100000 0.000000
vn 0.000000 0.100000 0.000000
vn 0.000000 0.100000 0.000000
vn 0.000000 0.100000 0.000000
vn 0.000000 0.100000 0.000000
vn 0.000000 0.100000 0.000000
vn 0.000000 0.100000 0.000000
vn 0.000000 0.100000 0.000000
vn 0.000000 0.100000 0.000000
vn 0.000000 0.100000 0.000000
vn 0.000000 0.100000 0.000000
vn 0.000000 0.100000 0.000000
vn 0.000000 0.100000 0.000000
vn 0.000000 0.100000 0.000000
vn 0.000000 0.100000 0.000000
vn 0.000000 0.100000 0.000000
vn 0.000000 0.100000 0.000000
vn 0.000000 0.100000 0.000000
vn 0.000000 0.100000 0.000000
vn 0.000000 0.100000 0.000000
vn 0.000000 0.100000 0.000000
vn 0.000000 0.100000 0.000000
vn 0.000000 0.100000 0.000000
vn 0.000000 0.100000 0.000000
vn 0.000000 0.100000 0.000000
vn -0.100000 0.000000 0.000000
vn -0.100000 0.000000 0.000000
vn -0.096593 0.000000 0.025882
vn -0.096593 0.000000 0.025882
vn -0.086603 0.000000 0.050000
vn -0.086603 0.000000 0.050000
vn -0.070711 0.000000 0.070711
vn -0.070711 0.000000 0.070711
vn -0.050000 0.000000 0.086603
vn -0.050000 0.000000 0.086603
vn -0.025882 0.000000 0.096593
vn -0.025882 0.000000 0.096593
vn 0.000000 0.000000 0.100000
vn -0.000000 0.000000 0.100000
vn 0.025882 0.000000 0.096593
vn 0.025882 0.000000 0.096593
vn 0.050000 0.000000 0.086603
vn 0.050000 0.000000 0.086603
vn 0.070711 0.000000 0.070711
vn 0.070711 0.000000 0.070711
vn 0.086603 0.000000 0.050000
vn 0.086603 0.000000 0.050000
vn 0.096593 0.000000 0.025882
vn 0.096593 0.000000 0.025882
vn 0.000000 -0.000000 -0.100000
vn 0.000000 -0.000000 -0.100000
vn 0.000000 -0.000000 -0.100000
vn 0.000000 -0.000000 -0.100000
vn 0.000000 -0.000000 0.100000
vn 0.000000 -0.000000 0.100000
vn 0.000000 -0.000000 0.100000
vn 0.000000 -0.000000 0.100000
vn -0.100000 0.000000 0.000000
vn -0.100000 0.000000 0.000000
vn -0.100000 0.000000 0.000000
vn -0.100000 0.000000 0.000000
vn 0.100000 0.000000 0.000000
vn 0.100000 0.000000 0.000000
vn 0.100000 0.000000 0.000000
vn 0.100000 0.000000 0.000000
usemtl Steel_-_Satin
f 2/1/1 11/2/2 1/3/3
f 1/3/3 11/2/2 12/4/4
f 1/3/3 12/4/4 13/5/5
f 3/6/6 5/7/7 2/1/1
f 2/1/1 5/7/7 6/8/8
f 2/1/1 6/8/8 7/9/9
f 4/10/10 24/11/11 3/6/6
f 3/6/6 24/11/11 25/12/12
f 3/6/6 25/12/12 26/13/13
f 1/3/3 18/14/14 4/10/10
f 4/10/10 18/14/14 19/15/15
f 4/10/10 19/15/15 20/16/16
f 7/9/9 8/17/17 2/1/1
f 2/1/1 8/17/17 9/18/18
f 2/1/1 9/18/18 10/19/19
f 10/19/19 11/2/2 2/1/1
f 13/5/5 14/20/20 1/3/3
f 1/3/3 14/20/20 15/21/21
f 1/3/3 15/21/21 16/22/22
f 16/22/22 17/23/23 1/3/3
f 1/3/3 17/23/23 18/14/14
f 20/16/16 21/24/24 4/10/10
f 4/10/10 21/24/24 22/25/25
f 4/10/10 22/25/25 23/26/26
f 23/26/26 24/11/11 4/10/10
f 26/13/13 27/27/27 3/6/6
f 3/6/6 27/27/27 28/28/28
f 3/6/6 28/28/28 29/29/29
f 29/29/29 30/30/30 3/6/6
f 3/6/6 30/30/30 5/7/7
f 5/31/31 31/32/32 6/33/33
f 6/33/33 31/32/32 32/34/34
f 6/33/33 32/34/34 7/35/35
f 7/35/35 32/34/34 33/36/36
f 7/35/35 33/36/36 8/37/37
f 8/37/37 33/36/36 34/38/38
f 8/37/37 34/38/38 9/39/39
f 9/39/39 34/38/38 35/40/40
f 9/39/39 35/40/40 10/41/41
f 10/41/41 35/40/40 36/42/42
f 10/41/41 36/42/42 11/43/43
f 11/43/43 36/42/42 37/44/44
f 11/43/43 37/44/44 12/45/45
f 12/45/45 37/44/44 38/46/46
f 12/45/45 38/46/46 13/47/47
f 13/47/47 38/46/46 39/48/48
f 13/47/47 39/48/48 14/49/49
f 14/49/49 39/48/48 40/50/50
f 14/49/49 40/50/50 15/51/51
f 15/51/51 40/50/50 41/52/52
f 15/51/51 41/52/52 16/53/53
f 16/53/53 41/52/52 42/54/54
f 16/53/53 42/54/54 17/55/55
f 17/55/55 42/54/54 43/56/56
f 43/57/56 44/58/57 17/59/55
f 17/59/55 44/58/57 18/60/58
f 42/61/59 58/62/60 43/63/61
f 43/63/61 58/62/60 59/64/62
f 43/63/61 59/64/62 44/65/63
f 44/65/63 59/64/62 56/66/64
f 56/66/64 59/64/62 55/67/65
f 55/67/65 59/64/62 54/68/66
f 54/68/66 59/64/62 53/69/67
f 53/69/67 59/64/62 52/70/68
f 52/70/68 59/64/62 51/71/69
f 51/71/69 59/64/62 60/72/70
f 51/71/69 60/72/70 50/73/71
f 50/73/71 60/72/70 49/74/72
f 49/74/72 60/72/70 48/75/73
f 48/75/73 60/72/70 47/76/74
f 47/76/74 60/72/70 46/77/75
f 46/77/75 60/72/70 45/78/76
f 45/78/76 60/72/70 57/79/77
f 45/78/76 57/79/77 31/80/78
f 31/80/78 57/79/77 32/81/79
f 32/81/79 57/79/77 33/82/80
f 33/82/80 57/79/77 34/83/81
f 34/83/81 57/79/77 35/84/82
f 35/84/82 57/79/77 36/85/83
f 36/85/83 57/79/77 37/86/84
f 37/86/84 57/79/77 58/62/60
f 37/86/84 58/62/60 38/87/85
f 38/87/85 58/62/60 39/88/86
f 39/88/86 58/62/60 40/89/87
f 40/89/87 58/62/60 41/90/88
f 41/90/88 58/62/60 42/61/59
f 45/91/89 30/92/90 46/93/91
f 46/93/91 30/92/90 29/94/92
f 46/93/91 29/94/92 47/95/93
f 47/95/93 29/94/92 28/96/94
f 47/95/93 28/96/94 48/97/95
f 48/97/95 28/96/94 27/98/96
f 48/97/95 27/98/96 49/99/97
f 49/99/97 27/98/96 26/100/98
f 49/99/97 26/100/98 50/101/99
f 50/101/99 26/100/98 25/102/100
f 50/101/99 25/102/100 51/103/101
f 51/103/101 25/102/100 24/104/102
f 51/103/101 24/104/102 52/105/103
f 52/105/103 24/104/102 23/106/104
f 52/105/103 23/106/104 53/107/105
f 53/107/105 23/106/104 22/108/106
f 53/107/105 22/108/106 54/109/107
f 54/109/107 22/108/106 21/110/108
f 54/109/107 21/110/108 55/111/109
f 55/111/109 21/110/108 20/112/110
f 55/111/109 20/112/110 56/113/111
f 56/113/111 20/112/110 19/114/112
f 56/113/111 19/114/112 44/115/57
f 44/115/57 19/114/112 18/116/58
f 3/117/113 60/118/114 4/119/115
f 4/119/115 60/118/114 59/120/116
f 57/121/117 2/122/118 58/123/119
f 58/123/119 2/122/118 1/124/120
f 1/125/121 4/126/122 58/127/123
f 58/127/123 4/126/122 59/128/124
f 57/129/125 60/130/126 2/131/127
f 2/131/127 60/130/126 3/132/128
f 5/133/31 30/134/90 31/135/32
f 31/135/32 30/134/90 45/136/89

# 60 vertices
# 136 texture params
# 128 normals
# 120 facets

# 1 groups
