# WaveFront *.obj file (generated by Autodesk ATF)

mtllib 3816869f-3cd3-473d-a770-420d02053229.mtl

g Body1

v -66.500000 -0.500000 8.500000
v -68.699962 -0.500000 8.210370
v -70.750000 -0.500000 7.361216
v -72.510408 -0.500000 6.010408
v -73.861216 -0.500000 4.250000
v -74.710370 -0.500000 2.199962
v -75.000000 -0.500000 -0.000000
v -74.710370 -0.500000 -2.199962
v -73.861216 -0.500000 -4.250000
v -72.510408 -0.500000 -6.010408
v -70.750000 -0.500000 -7.361216
v -68.699962 -0.500000 -8.210370
v -66.500000 -0.500000 -8.500000
v 66.500000 -0.500000 -8.500000
v 68.699962 -0.500000 -8.210370
v 70.750000 -0.500000 -7.361216
v 72.510408 -0.500000 -6.010408
v 73.861216 -0.500000 -4.250000
v 74.710370 -0.500000 -2.199962
v 75.000000 -0.500000 -0.000000
v 74.710370 -0.500000 2.199962
v 73.861216 -0.500000 4.250000
v 72.510408 -0.500000 6.010408
v 70.750000 -0.500000 7.361216
v 68.699962 -0.500000 8.210370
v 66.500000 -0.500000 8.500000
v -66.500000 0.500000 -8.500000
v 66.500000 0.500000 -8.500000
v 68.699962 0.500000 -8.210370
v 70.750000 0.500000 -7.361216
v 72.510408 0.500000 -6.010408
v 73.861216 0.500000 -4.250000
v 74.710370 0.500000 -2.199962
v 75.000000 0.500000 -0.000000
v 74.710370 0.500000 2.199962
v 73.861216 0.500000 4.250000
v 72.510408 0.500000 6.010408
v 70.750000 0.500000 7.361216
v 68.699962 0.500000 8.210370
v 66.500000 0.500000 8.500000
v -66.500000 0.500000 8.500000
v -68.699962 0.500000 8.210370
v -70.750000 0.500000 7.361216
v -72.510408 0.500000 6.010408
v -73.861216 0.500000 4.250000
v -74.710370 0.500000 2.199962
v -75.000000 0.500000 -0.000000
v -74.710370 0.500000 -2.199962
v -73.861216 0.500000 -4.250000
v -72.510408 0.500000 -6.010408
v -70.750000 0.500000 -7.361216
v -68.699962 0.500000 -8.210370
vt 6.869996 -0.821037 0.000000
vt 7.075000 -0.736122 0.000000
vt 6.650000 -0.850000 0.000000
vt 7.251041 -0.601041 0.000000
vt -7.251041 -0.601041 0.000000
vt -7.386122 -0.425000 0.000000
vt 7.386122 -0.425000 0.000000
vt -7.471037 -0.219996 0.000000
vt 7.471037 -0.219996 0.000000
vt -7.500000 -0.000000 0.000000
vt 7.500000 -0.000000 0.000000
vt -7.471037 0.219996 0.000000
vt 7.471037 0.219996 0.000000
vt -7.386122 0.425000 0.000000
vt 7.386122 0.425000 0.000000
vt -7.251041 0.601041 0.000000
vt 7.251041 0.601041 0.000000
vt -6.650000 0.850000 0.000000
vt 6.650000 0.850000 0.000000
vt 7.075000 0.736122 0.000000
vt 6.869996 0.821037 0.000000
vt -6.869996 0.821037 0.000000
vt -7.075000 0.736122 0.000000
vt -6.650000 -0.850000 0.000000
vt -7.075000 -0.736122 0.000000
vt -6.869996 -0.821037 0.000000
vt 13.300000 0.050000 0.000000
vt 0.000000 0.050000 0.000000
vt 13.300000 -0.050000 0.000000
vt 0.000000 -0.050000 0.000000
vt 0.050000 2.670354 0.000000
vt -0.050000 2.670354 0.000000
vt 0.050000 2.447824 0.000000
vt -0.050000 2.447824 0.000000
vt 0.050000 2.225295 0.000000
vt -0.050000 2.225295 0.000000
vt 0.050000 2.002765 0.000000
vt -0.050000 2.002765 0.000000
vt 0.050000 1.780236 0.000000
vt -0.050000 1.780236 0.000000
vt 0.050000 1.557706 0.000000
vt -0.050000 1.557706 0.000000
vt 0.050000 1.335177 0.000000
vt -0.050000 1.335177 0.000000
vt 0.050000 1.112647 0.000000
vt -0.050000 1.112647 0.000000
vt 0.050000 0.890118 0.000000
vt -0.050000 0.890118 0.000000
vt 0.050000 0.667588 0.000000
vt -0.050000 0.667588 0.000000
vt 0.050000 0.445059 0.000000
vt -0.050000 0.445059 0.000000
vt 0.050000 0.222529 0.000000
vt -0.050000 0.222529 0.000000
vt 0.050000 0.000000 0.000000
vt -0.050000 0.000000 0.000000
vt 13.300000 0.050000 0.000000
vt -0.000000 0.050000 0.000000
vt 13.300000 -0.050000 0.000000
vt -0.000000 -0.050000 0.000000
vt 0.050000 2.670354 0.000000
vt -0.050000 2.670354 0.000000
vt 0.050000 2.447824 0.000000
vt -0.050000 2.447824 0.000000
vt 0.050000 2.225295 0.000000
vt -0.050000 2.225295 0.000000
vt 0.050000 2.002765 0.000000
vt -0.050000 2.002765 0.000000
vt 0.050000 1.780236 0.000000
vt -0.050000 1.780236 0.000000
vt 0.050000 1.557706 0.000000
vt -0.050000 1.557706 0.000000
vt 0.050000 1.335177 0.000000
vt -0.050000 1.335177 0.000000
vt 0.050000 1.112647 0.000000
vt -0.050000 1.112647 0.000000
vt 0.050000 0.890118 0.000000
vt -0.050000 0.890118 0.000000
vt 0.050000 0.667588 0.000000
vt -0.050000 0.667588 0.000000
vt 0.050000 0.445059 0.000000
vt -0.050000 0.445059 0.000000
vt 0.050000 0.222529 0.000000
vt -0.050000 0.222529 0.000000
vt 0.050000 0.000000 0.000000
vt -0.050000 0.000000 0.000000
vt -6.869996 0.821037 0.000000
vt -7.075000 0.736122 0.000000
vt -6.650000 0.850000 0.000000
vt -7.251041 0.601041 0.000000
vt 7.251041 0.601041 0.000000
vt 7.386122 0.425000 0.000000
vt -7.386122 0.425000 0.000000
vt 7.471037 0.219996 0.000000
vt -7.471037 0.219996 0.000000
vt 7.500000 -0.000000 0.000000
vt -7.500000 -0.000000 0.000000
vt 7.471037 -0.219996 0.000000
vt -7.471037 -0.219996 0.000000
vt 7.386122 -0.425000 0.000000
vt -7.386122 -0.425000 0.000000
vt 7.251041 -0.601041 0.000000
vt -7.251041 -0.601041 0.000000
vt 6.650000 -0.850000 0.000000
vt -6.650000 -0.850000 0.000000
vt -7.075000 -0.736122 0.000000
vt -6.869996 -0.821037 0.000000
vt 6.869996 -0.821037 0.000000
vt 7.075000 -0.736122 0.000000
vt 6.650000 0.850000 0.000000
vt 7.075000 0.736122 0.000000
vt 6.869996 0.821037 0.000000
vn 0.000000 -0.100000 0.000000
vn 0.000000 -0.100000 0.000000
vn 0.000000 -0.100000 0.000000
vn 0.000000 -0.100000 0.000000
vn 0.000000 -0.100000 0.000000
vn 0.000000 -0.100000 0.000000
vn 0.000000 -0.100000 0.000000
vn 0.000000 -0.100000 0.000000
vn 0.000000 -0.100000 0.000000
vn 0.000000 -0.100000 0.000000
vn 0.000000 -0.100000 0.000000
vn 0.000000 -0.100000 0.000000
vn 0.000000 -0.100000 0.000000
vn 0.000000 -0.100000 0.000000
vn 0.000000 -0.100000 0.000000
vn 0.000000 -0.100000 0.000000
vn 0.000000 -0.100000 0.000000
vn 0.000000 -0.100000 0.000000
vn 0.000000 -0.100000 0.000000
vn 0.000000 -0.100000 0.000000
vn 0.000000 -0.100000 0.000000
vn 0.000000 -0.100000 0.000000
vn 0.000000 -0.100000 0.000000
vn 0.000000 -0.100000 0.000000
vn 0.000000 -0.100000 0.000000
vn 0.000000 -0.100000 0.000000
vn -0.000000 0.000000 -0.100000
vn -0.000000 0.000000 -0.100000
vn -0.000000 0.000000 -0.100000
vn -0.000000 0.000000 -0.100000
vn 0.025882 0.000000 -0.096593
vn 0.025882 0.000000 -0.096593
vn 0.050000 0.000000 -0.086603
vn 0.050000 0.000000 -0.086603
vn 0.070711 0.000000 -0.070711
vn 0.070711 0.000000 -0.070711
vn 0.086603 0.000000 -0.050000
vn 0.086603 0.000000 -0.050000
vn 0.096593 0.000000 -0.025882
vn 0.096593 0.000000 -0.025882
vn 0.100000 -0.000000 0.000000
vn 0.100000 -0.000000 0.000000
vn 0.096593 -0.000000 0.025882
vn 0.096593 -0.000000 0.025882
vn 0.086603 -0.000000 0.050000
vn 0.086603 -0.000000 0.050000
vn 0.070711 -0.000000 0.070711
vn 0.070711 -0.000000 0.070711
vn 0.050000 -0.000000 0.086603
vn 0.050000 -0.000000 0.086603
vn 0.025882 -0.000000 0.096593
vn 0.025882 -0.000000 0.096593
vn 0.000000 0.000000 0.100000
vn 0.000000 0.000000 0.100000
vn -0.000000 0.000000 0.100000
vn -0.000000 0.000000 0.100000
vn -0.025882 0.000000 0.096593
vn -0.025882 0.000000 0.096593
vn -0.050000 0.000000 0.086603
vn -0.050000 0.000000 0.086603
vn -0.070711 0.000000 0.070711
vn -0.070711 0.000000 0.070711
vn -0.086603 0.000000 0.050000
vn -0.086603 0.000000 0.050000
vn -0.096593 0.000000 0.025882
vn -0.096593 0.000000 0.025882
vn -0.100000 0.000000 -0.000000
vn -0.100000 0.000000 -0.000000
vn -0.096593 0.000000 -0.025882
vn -0.096593 0.000000 -0.025882
vn -0.086603 0.000000 -0.050000
vn -0.086603 0.000000 -0.050000
vn -0.070711 0.000000 -0.070711
vn -0.070711 0.000000 -0.070711
vn -0.050000 0.000000 -0.086603
vn -0.050000 0.000000 -0.086603
vn -0.025882 0.000000 -0.096593
vn -0.025882 0.000000 -0.096593
vn 0.000000 0.100000 0.000000
vn 0.000000 0.100000 0.000000
vn 0.000000 0.100000 0.000000
vn 0.000000 0.100000 0.000000
vn 0.000000 0.100000 0.000000
vn 0.000000 0.100000 0.000000
vn 0.000000 0.100000 0.000000
vn 0.000000 0.100000 0.000000
vn 0.000000 0.100000 0.000000
vn 0.000000 0.100000 0.000000
vn 0.000000 0.100000 0.000000
vn 0.000000 0.100000 0.000000
vn 0.000000 0.100000 0.000000
vn 0.000000 0.100000 0.000000
vn 0.000000 0.100000 0.000000
vn 0.000000 0.100000 0.000000
vn 0.000000 0.100000 0.000000
vn 0.000000 0.100000 0.000000
vn 0.000000 0.100000 0.000000
vn 0.000000 0.100000 0.000000
vn 0.000000 0.100000 0.000000
vn 0.000000 0.100000 0.000000
vn 0.000000 0.100000 0.000000
vn 0.000000 0.100000 0.000000
vn 0.000000 0.100000 0.000000
vn 0.000000 0.100000 0.000000
usemtl Steel_-_Satin
f 2/1/1 3/2/2 1/3/3
f 1/3/3 3/2/2 4/4/4
f 1/3/3 4/4/4 23/5/5
f 23/5/5 4/4/4 22/6/6
f 22/6/6 4/4/4 5/7/7
f 22/6/6 5/7/7 21/8/8
f 21/8/8 5/7/7 6/9/9
f 21/8/8 6/9/9 20/10/10
f 20/10/10 6/9/9 7/11/11
f 20/10/10 7/11/11 19/12/12
f 19/12/12 7/11/11 8/13/13
f 19/12/12 8/13/13 18/14/14
f 18/14/14 8/13/13 9/15/15
f 18/14/14 9/15/15 17/16/16
f 17/16/16 9/15/15 10/17/17
f 17/16/16 10/17/17 14/18/18
f 14/18/18 10/17/17 13/19/19
f 13/19/19 10/17/17 11/20/20
f 13/19/19 11/20/20 12/21/21
f 15/22/22 16/23/23 14/18/18
f 14/18/18 16/23/23 17/16/16
f 1/3/3 23/5/5 26/24/24
f 26/24/24 23/5/5 24/25/25
f 26/24/24 24/25/25 25/26/26
f 27/27/27 28/28/28 13/29/29
f 13/29/29 28/28/28 14/30/30
f 14/31/30 28/32/28 15/33/31
f 15/33/31 28/32/28 29/34/32
f 15/33/31 29/34/32 16/35/33
f 16/35/33 29/34/32 30/36/34
f 16/35/33 30/36/34 17/37/35
f 17/37/35 30/36/34 31/38/36
f 17/37/35 31/38/36 18/39/37
f 18/39/37 31/38/36 32/40/38
f 18/39/37 32/40/38 19/41/39
f 19/41/39 32/40/38 33/42/40
f 19/41/39 33/42/40 20/43/41
f 20/43/41 33/42/40 34/44/42
f 20/43/41 34/44/42 21/45/43
f 21/45/43 34/44/42 35/46/44
f 21/45/43 35/46/44 22/47/45
f 22/47/45 35/46/44 36/48/46
f 22/47/45 36/48/46 23/49/47
f 23/49/47 36/48/46 37/50/48
f 23/49/47 37/50/48 24/51/49
f 24/51/49 37/50/48 38/52/50
f 24/51/49 38/52/50 25/53/51
f 25/53/51 38/52/50 39/54/52
f 25/53/51 39/54/52 26/55/53
f 26/55/53 39/54/52 40/56/54
f 40/57/54 41/58/55 26/59/53
f 26/59/53 41/58/55 1/60/56
f 1/61/56 41/62/55 2/63/57
f 2/63/57 41/62/55 42/64/58
f 2/63/57 42/64/58 3/65/59
f 3/65/59 42/64/58 43/66/60
f 3/65/59 43/66/60 4/67/61
f 4/67/61 43/66/60 44/68/62
f 4/67/61 44/68/62 5/69/63
f 5/69/63 44/68/62 45/70/64
f 5/69/63 45/70/64 6/71/65
f 6/71/65 45/70/64 46/72/66
f 6/71/65 46/72/66 7/73/67
f 7/73/67 46/72/66 47/74/68
f 7/73/67 47/74/68 8/75/69
f 8/75/69 47/74/68 48/76/70
f 8/75/69 48/76/70 9/77/71
f 9/77/71 48/76/70 49/78/72
f 9/77/71 49/78/72 10/79/73
f 10/79/73 49/78/72 50/80/74
f 10/79/73 50/80/74 11/81/75
f 11/81/75 50/80/74 51/82/76
f 11/81/75 51/82/76 12/83/77
f 12/83/77 51/82/76 52/84/78
f 12/83/77 52/84/78 13/85/29
f 13/85/29 52/84/78 27/86/27
f 52/87/79 51/88/80 27/89/81
f 27/89/81 51/88/80 50/90/82
f 27/89/81 50/90/82 31/91/83
f 31/91/83 50/90/82 32/92/84
f 32/92/84 50/90/82 49/93/85
f 32/92/84 49/93/85 33/94/86
f 33/94/86 49/93/85 48/95/87
f 33/94/86 48/95/87 34/96/88
f 34/96/88 48/95/87 47/97/89
f 34/96/88 47/97/89 35/98/90
f 35/98/90 47/97/89 46/99/91
f 35/98/90 46/99/91 36/100/92
f 36/100/92 46/99/91 45/101/93
f 36/100/92 45/101/93 37/102/94
f 37/102/94 45/101/93 44/103/95
f 37/102/94 44/103/95 40/104/96
f 40/104/96 44/103/95 41/105/97
f 41/105/97 44/103/95 43/106/98
f 41/105/97 43/106/98 42/107/99
f 39/108/100 38/109/101 40/104/96
f 40/104/96 38/109/101 37/102/94
f 27/89/81 31/91/83 28/110/102
f 28/110/102 31/91/83 30/111/103
f 28/110/102 30/111/103 29/112/104

# 52 vertices
# 112 texture params
# 104 normals
# 100 facets

# 1 groups
