solid Onshape
  facet normal 0 0 -1
    outer loop
      vertex -5.5 5.5 -0.25
      vertex -2.94962 1.36464 -0.25
      vertex -3.07987 1.03773 -0.25
    endloop
  endfacet
  facet normal 0 0 -1
    outer loop
      vertex 1.52233 -2.87141 -0.25
      vertex 1.82386 -2.68999 -0.25
      vertex 5.5 -5.5 -0.25
    endloop
  endfacet
  facet normal 0 0 -1
    outer loop
      vertex 1.82386 -2.68999 -0.25
      vertex 2.10401 -2.47703 -0.25
      vertex 5.5 -5.5 -0.25
    endloop
  endfacet
  facet normal 0 0 -1
    outer loop
      vertex -3.25 5.97015e-16 -0.25
      vertex -5.5 -5.5 -0.25
      vertex -3.23095 0.351387 -0.25
    endloop
  endfacet
  facet normal 0 0 -1
    outer loop
      vertex -5.5 -5.5 -0.25
      vertex -5.5 5.5 -0.25
      vertex -3.23095 0.351387 -0.25
    endloop
  endfacet
  facet normal 0 0 -1
    outer loop
      vertex -3.23095 0.351387 -0.25
      vertex -5.5 5.5 -0.25
      vertex -3.17402 0.698654 -0.25
    endloop
  endfacet
  facet normal 0 0 -1
    outer loop
      vertex -5.5 5.5 -0.25
      vertex -3.07987 1.03773 -0.25
      vertex -3.17402 0.698654 -0.25
    endloop
  endfacet
  facet normal 0 0 -1
    outer loop
      vertex 1.20295 3.01917 -0.25
      vertex 0.869467 3.13154 -0.25
      vertex 5.5 5.5 -0.25
    endloop
  endfacet
  facet normal 0 0 -1
    outer loop
      vertex -3.25 5.97015e-16 -0.25
      vertex -3.23095 -0.351387 -0.25
      vertex -5.5 -5.5 -0.25
    endloop
  endfacet
  facet normal 0 0 -1
    outer loop
      vertex -3.23095 -0.351387 -0.25
      vertex -3.17402 -0.698654 -0.25
      vertex -5.5 -5.5 -0.25
    endloop
  endfacet
  facet normal 0 0 -1
    outer loop
      vertex -5.5 -5.5 -0.25
      vertex -3.17402 -0.698654 -0.25
      vertex -3.07987 -1.03773 -0.25
    endloop
  endfacet
  facet normal 0 0 -1
    outer loop
      vertex -3.07987 -1.03773 -0.25
      vertex -2.94962 -1.36464 -0.25
      vertex -5.5 -5.5 -0.25
    endloop
  endfacet
  facet normal 0 0 -1
    outer loop
      vertex -2.94962 -1.36464 -0.25
      vertex -2.78479 -1.67555 -0.25
      vertex -5.5 -5.5 -0.25
    endloop
  endfacet
  facet normal 0 0 -1
    outer loop
      vertex -5.5 -5.5 -0.25
      vertex -2.78479 -1.67555 -0.25
      vertex -2.5873 -1.96682 -0.25
    endloop
  endfacet
  facet normal 0 0 -1
    outer loop
      vertex -2.5873 -1.96682 -0.25
      vertex -2.35949 -2.23502 -0.25
      vertex -5.5 -5.5 -0.25
    endloop
  endfacet
  facet normal 0 0 -1
    outer loop
      vertex -2.35949 -2.23502 -0.25
      vertex -2.10401 -2.47703 -0.25
      vertex -5.5 -5.5 -0.25
    endloop
  endfacet
  facet normal 0 0 -1
    outer loop
      vertex -5.5 -5.5 -0.25
      vertex -2.10401 -2.47703 -0.25
      vertex -1.82386 -2.68999 -0.25
    endloop
  endfacet
  facet normal 0 0 -1
    outer loop
      vertex 3.17402 0.698654 -0.25
      vertex 3.07987 1.03773 -0.25
      vertex 5.5 5.5 -0.25
    endloop
  endfacet
  facet normal 0 0 -1
    outer loop
      vertex 3.07987 1.03773 -0.25
      vertex 2.94962 1.36464 -0.25
      vertex 5.5 5.5 -0.25
    endloop
  endfacet
  facet normal 0 0 -1
    outer loop
      vertex 5.5 5.5 -0.25
      vertex 2.94962 1.36464 -0.25
      vertex 2.78479 1.67555 -0.25
    endloop
  endfacet
  facet normal 0 0 -1
    outer loop
      vertex -1.82386 -2.68999 -0.25
      vertex -1.52233 -2.87141 -0.25
      vertex -5.5 -5.5 -0.25
    endloop
  endfacet
  facet normal 0 0 -1
    outer loop
      vertex -1.52233 -2.87141 -0.25
      vertex -1.20295 -3.01917 -0.25
      vertex -5.5 -5.5 -0.25
    endloop
  endfacet
  facet normal 0 0 -1
    outer loop
      vertex -5.5 -5.5 -0.25
      vertex -1.20295 -3.01917 -0.25
      vertex -0.869467 -3.13154 -0.25
    endloop
  endfacet
  facet normal 0 0 -1
    outer loop
      vertex 0.525791 -3.20719 -0.25
      vertex 0.869467 -3.13154 -0.25
      vertex 5.5 -5.5 -0.25
    endloop
  endfacet
  facet normal 0 0 -1
    outer loop
      vertex 0.869467 -3.13154 -0.25
      vertex 1.20295 -3.01917 -0.25
      vertex 5.5 -5.5 -0.25
    endloop
  endfacet
  facet normal 0 0 -1
    outer loop
      vertex 5.5 -5.5 -0.25
      vertex 1.20295 -3.01917 -0.25
      vertex 1.52233 -2.87141 -0.25
    endloop
  endfacet
  facet normal 0 0 -1
    outer loop
      vertex 2.10401 -2.47703 -0.25
      vertex 2.35949 -2.23502 -0.25
      vertex 5.5 -5.5 -0.25
    endloop
  endfacet
  facet normal 0 0 -1
    outer loop
      vertex 2.35949 -2.23502 -0.25
      vertex 2.5873 -1.96682 -0.25
      vertex 5.5 -5.5 -0.25
    endloop
  endfacet
  facet normal 0 0 -1
    outer loop
      vertex 5.5 -5.5 -0.25
      vertex 2.5873 -1.96682 -0.25
      vertex 2.78479 -1.67555 -0.25
    endloop
  endfacet
  facet normal 0 0 -1
    outer loop
      vertex 2.78479 -1.67555 -0.25
      vertex 2.94962 -1.36464 -0.25
      vertex 5.5 -5.5 -0.25
    endloop
  endfacet
  facet normal 0 0 -1
    outer loop
      vertex 2.94962 -1.36464 -0.25
      vertex 3.07987 -1.03773 -0.25
      vertex 5.5 -5.5 -0.25
    endloop
  endfacet
  facet normal 0 0 -1
    outer loop
      vertex 5.5 -5.5 -0.25
      vertex 3.07987 -1.03773 -0.25
      vertex 3.17402 -0.698654 -0.25
    endloop
  endfacet
  facet normal 0 0 -1
    outer loop
      vertex 2.78479 1.67555 -0.25
      vertex 2.5873 1.96682 -0.25
      vertex 5.5 5.5 -0.25
    endloop
  endfacet
  facet normal 0 0 -1
    outer loop
      vertex 2.5873 1.96682 -0.25
      vertex 2.35949 2.23502 -0.25
      vertex 5.5 5.5 -0.25
    endloop
  endfacet
  facet normal 0 0 -1
    outer loop
      vertex 5.5 5.5 -0.25
      vertex 2.35949 2.23502 -0.25
      vertex 2.10401 2.47703 -0.25
    endloop
  endfacet
  facet normal 0 0 -1
    outer loop
      vertex 3.17402 -0.698654 -0.25
      vertex 3.23095 -0.351387 -0.25
      vertex 5.5 -5.5 -0.25
    endloop
  endfacet
  facet normal 0 0 -1
    outer loop
      vertex 3.23095 -0.351387 -0.25
      vertex 3.25 1.99005e-16 -0.25
      vertex 5.5 -5.5 -0.25
    endloop
  endfacet
  facet normal 0 0 -1
    outer loop
      vertex 5.5 -5.5 -0.25
      vertex 3.25 1.99005e-16 -0.25
      vertex 5.5 5.5 -0.25
    endloop
  endfacet
  facet normal 0 0 -1
    outer loop
      vertex 3.25 1.99005e-16 -0.25
      vertex 3.23095 0.351387 -0.25
      vertex 5.5 5.5 -0.25
    endloop
  endfacet
  facet normal 0 0 -1
    outer loop
      vertex 5.5 5.5 -0.25
      vertex 3.23095 0.351387 -0.25
      vertex 3.17402 0.698654 -0.25
    endloop
  endfacet
  facet normal 0 0 -1
    outer loop
      vertex 2.10401 2.47703 -0.25
      vertex 1.82386 2.68999 -0.25
      vertex 5.5 5.5 -0.25
    endloop
  endfacet
  facet normal 0 0 -1
    outer loop
      vertex 1.82386 2.68999 -0.25
      vertex 1.52233 2.87141 -0.25
      vertex 5.5 5.5 -0.25
    endloop
  endfacet
  facet normal 0 0 -1
    outer loop
      vertex 5.5 5.5 -0.25
      vertex 1.52233 2.87141 -0.25
      vertex 1.20295 3.01917 -0.25
    endloop
  endfacet
  facet normal 0 0 -1
    outer loop
      vertex 0.869467 3.13154 -0.25
      vertex 0.525791 3.20719 -0.25
      vertex 5.5 5.5 -0.25
    endloop
  endfacet
  facet normal 0 0 -1
    outer loop
      vertex 0.525791 3.20719 -0.25
      vertex 0.175951 3.24523 -0.25
      vertex 5.5 5.5 -0.25
    endloop
  endfacet
  facet normal 0 0 -1
    outer loop
      vertex 5.5 5.5 -0.25
      vertex 0.175951 3.24523 -0.25
      vertex -5.5 5.5 -0.25
    endloop
  endfacet
  facet normal 0 0 -1
    outer loop
      vertex 0.175951 3.24523 -0.25
      vertex -0.175951 3.24523 -0.25
      vertex -5.5 5.5 -0.25
    endloop
  endfacet
  facet normal 0 0 -1
    outer loop
      vertex -5.5 5.5 -0.25
      vertex -0.175951 3.24523 -0.25
      vertex -0.525791 3.20719 -0.25
    endloop
  endfacet
  facet normal 0 0 -1
    outer loop
      vertex -0.525791 3.20719 -0.25
      vertex -0.869467 3.13154 -0.25
      vertex -5.5 5.5 -0.25
    endloop
  endfacet
  facet normal 0 0 -1
    outer loop
      vertex -0.869467 3.13154 -0.25
      vertex -1.20295 3.01917 -0.25
      vertex -5.5 5.5 -0.25
    endloop
  endfacet
  facet normal 0 0 -1
    outer loop
      vertex -5.5 5.5 -0.25
      vertex -1.20295 3.01917 -0.25
      vertex -1.52233 2.87141 -0.25
    endloop
  endfacet
  facet normal 0 0 -1
    outer loop
      vertex -1.52233 2.87141 -0.25
      vertex -1.82386 2.68999 -0.25
      vertex -5.5 5.5 -0.25
    endloop
  endfacet
  facet normal 0 0 -1
    outer loop
      vertex -1.82386 2.68999 -0.25
      vertex -2.10401 2.47703 -0.25
      vertex -5.5 5.5 -0.25
    endloop
  endfacet
  facet normal 0 0 -1
    outer loop
      vertex -5.5 5.5 -0.25
      vertex -2.10401 2.47703 -0.25
      vertex -2.35949 2.23502 -0.25
    endloop
  endfacet
  facet normal 0 0 -1
    outer loop
      vertex -2.35949 2.23502 -0.25
      vertex -2.5873 1.96682 -0.25
      vertex -5.5 5.5 -0.25
    endloop
  endfacet
  facet normal 0 0 -1
    outer loop
      vertex -2.5873 1.96682 -0.25
      vertex -2.78479 1.67555 -0.25
      vertex -5.5 5.5 -0.25
    endloop
  endfacet
  facet normal 0 0 -1
    outer loop
      vertex -5.5 5.5 -0.25
      vertex -2.78479 1.67555 -0.25
      vertex -2.94962 1.36464 -0.25
    endloop
  endfacet
  facet normal 0 0 -1
    outer loop
      vertex -0.869467 -3.13154 -0.25
      vertex -0.525791 -3.20719 -0.25
      vertex -5.5 -5.5 -0.25
    endloop
  endfacet
  facet normal 0 0 -1
    outer loop
      vertex -0.525791 -3.20719 -0.25
      vertex -0.175951 -3.24523 -0.25
      vertex -5.5 -5.5 -0.25
    endloop
  endfacet
  facet normal 0 0 -1
    outer loop
      vertex -5.5 -5.5 -0.25
      vertex -0.175951 -3.24523 -0.25
      vertex 5.5 -5.5 -0.25
    endloop
  endfacet
  facet normal 0 0 -1
    outer loop
      vertex -0.175951 -3.24523 -0.25
      vertex 0.175951 -3.24523 -0.25
      vertex 5.5 -5.5 -0.25
    endloop
  endfacet
  facet normal 0 0 -1
    outer loop
      vertex 5.5 -5.5 -0.25
      vertex 0.175951 -3.24523 -0.25
      vertex 0.525791 -3.20719 -0.25
    endloop
  endfacet
  facet normal 0 0 1
    outer loop
      vertex 2.10401 -2.47703 0
      vertex 1.82386 -2.68999 0
      vertex 5 -5 0
    endloop
  endfacet
  facet normal 0 0 1
    outer loop
      vertex 0.525791 3.20719 0
      vertex 0.869467 3.13154 0
      vertex 5 5 0
    endloop
  endfacet
  facet normal 0 0 1
    outer loop
      vertex 5 5 0
      vertex 3.25 -5.97015e-16 0
      vertex 5 -5 0
    endloop
  endfacet
  facet normal 0 0 1
    outer loop
      vertex 3.25 -5.97015e-16 0
      vertex 3.23095 -0.351387 0
      vertex 5 -5 0
    endloop
  endfacet
  facet normal 0 0 1
    outer loop
      vertex 5 -5 0
      vertex 3.23095 -0.351387 0
      vertex 3.17402 -0.698654 0
    endloop
  endfacet
  facet normal 0 0 1
    outer loop
      vertex 3.17402 -0.698654 0
      vertex 3.07987 -1.03773 0
      vertex 5 -5 0
    endloop
  endfacet
  facet normal 0 0 1
    outer loop
      vertex 3.07987 -1.03773 0
      vertex 2.94962 -1.36464 0
      vertex 5 -5 0
    endloop
  endfacet
  facet normal 0 0 1
    outer loop
      vertex 5 -5 0
      vertex 2.94962 -1.36464 0
      vertex 2.78479 -1.67555 0
    endloop
  endfacet
  facet normal 0 0 1
    outer loop
      vertex 2.78479 -1.67555 0
      vertex 2.5873 -1.96682 0
      vertex 5 -5 0
    endloop
  endfacet
  facet normal 0 0 1
    outer loop
      vertex 2.5873 -1.96682 0
      vertex 2.35949 -2.23502 0
      vertex 5 -5 0
    endloop
  endfacet
  facet normal 0 0 1
    outer loop
      vertex 5 -5 0
      vertex 2.35949 -2.23502 0
      vertex 2.10401 -2.47703 0
    endloop
  endfacet
  facet normal 0 0 1
    outer loop
      vertex 1.82386 -2.68999 0
      vertex 1.52233 -2.87141 0
      vertex 5 -5 0
    endloop
  endfacet
  facet normal 0 0 1
    outer loop
      vertex 1.52233 -2.87141 0
      vertex 1.20295 -3.01917 0
      vertex 5 -5 0
    endloop
  endfacet
  facet normal 0 0 1
    outer loop
      vertex 5 -5 0
      vertex 1.20295 -3.01917 0
      vertex 0.869467 -3.13154 0
    endloop
  endfacet
  facet normal 0 0 1
    outer loop
      vertex -2.35949 -2.23502 0
      vertex -2.5873 -1.96682 0
      vertex -5 -5 0
    endloop
  endfacet
  facet normal 0 0 1
    outer loop
      vertex -2.5873 -1.96682 0
      vertex -2.78479 -1.67555 0
      vertex -5 -5 0
    endloop
  endfacet
  facet normal 0 0 1
    outer loop
      vertex -2.78479 -1.67555 0
      vertex -2.94962 -1.36464 0
      vertex -5 -5 0
    endloop
  endfacet
  facet normal 0 0 1
    outer loop
      vertex -2.94962 -1.36464 0
      vertex -3.07987 -1.03773 0
      vertex -5 -5 0
    endloop
  endfacet
  facet normal 0 0 1
    outer loop
      vertex -5 -5 0
      vertex -3.07987 -1.03773 0
      vertex -3.17402 -0.698654 0
    endloop
  endfacet
  facet normal 0 0 1
    outer loop
      vertex -5 5 0
      vertex -2.78479 1.67555 0
      vertex -2.5873 1.96682 0
    endloop
  endfacet
  facet normal 0 0 1
    outer loop
      vertex 2.5873 1.96682 0
      vertex 2.78479 1.67555 0
      vertex 5 5 0
    endloop
  endfacet
  facet normal 0 0 1
    outer loop
      vertex 2.78479 1.67555 0
      vertex 2.94962 1.36464 0
      vertex 5 5 0
    endloop
  endfacet
  facet normal 0 0 1
    outer loop
      vertex 5 5 0
      vertex 2.94962 1.36464 0
      vertex 3.07987 1.03773 0
    endloop
  endfacet
  facet normal 0 0 1
    outer loop
      vertex -2.5873 1.96682 0
      vertex -2.35949 2.23502 0
      vertex -5 5 0
    endloop
  endfacet
  facet normal 0 0 1
    outer loop
      vertex -2.35949 2.23502 0
      vertex -2.10401 2.47703 0
      vertex -5 5 0
    endloop
  endfacet
  facet normal 0 0 1
    outer loop
      vertex -5 5 0
      vertex -2.10401 2.47703 0
      vertex -1.82386 2.68999 0
    endloop
  endfacet
  facet normal 0 0 1
    outer loop
      vertex -1.82386 2.68999 0
      vertex -1.52233 2.87141 0
      vertex -5 5 0
    endloop
  endfacet
  facet normal 0 0 1
    outer loop
      vertex -1.52233 2.87141 0
      vertex -1.20295 3.01917 0
      vertex -5 5 0
    endloop
  endfacet
  facet normal 0 0 1
    outer loop
      vertex -5 5 0
      vertex -1.20295 3.01917 0
      vertex -0.869467 3.13154 0
    endloop
  endfacet
  facet normal 0 0 1
    outer loop
      vertex 0.869467 3.13154 0
      vertex 1.20295 3.01917 0
      vertex 5 5 0
    endloop
  endfacet
  facet normal 0 0 1
    outer loop
      vertex 1.20295 3.01917 0
      vertex 1.52233 2.87141 0
      vertex 5 5 0
    endloop
  endfacet
  facet normal 0 0 1
    outer loop
      vertex 5 5 0
      vertex 1.52233 2.87141 0
      vertex 1.82386 2.68999 0
    endloop
  endfacet
  facet normal 0 0 1
    outer loop
      vertex 3.07987 1.03773 0
      vertex 3.17402 0.698654 0
      vertex 5 5 0
    endloop
  endfacet
  facet normal 0 0 1
    outer loop
      vertex 3.17402 0.698654 0
      vertex 3.23095 0.351387 0
      vertex 5 5 0
    endloop
  endfacet
  facet normal 0 0 1
    outer loop
      vertex 5 5 0
      vertex 3.23095 0.351387 0
      vertex 3.25 -5.97015e-16 0
    endloop
  endfacet
  facet normal 0 0 1
    outer loop
      vertex -0.525791 -3.20719 0
      vertex -0.869467 -3.13154 0
      vertex -5 -5 0
    endloop
  endfacet
  facet normal 0 0 1
    outer loop
      vertex -0.869467 -3.13154 0
      vertex -1.20295 -3.01917 0
      vertex -5 -5 0
    endloop
  endfacet
  facet normal 0 0 1
    outer loop
      vertex -5 -5 0
      vertex -1.20295 -3.01917 0
      vertex -1.52233 -2.87141 0
    endloop
  endfacet
  facet normal 0 0 1
    outer loop
      vertex -1.52233 -2.87141 0
      vertex -1.82386 -2.68999 0
      vertex -5 -5 0
    endloop
  endfacet
  facet normal 0 0 1
    outer loop
      vertex -1.82386 -2.68999 0
      vertex -2.10401 -2.47703 0
      vertex -5 -5 0
    endloop
  endfacet
  facet normal 0 0 1
    outer loop
      vertex -5 -5 0
      vertex -2.10401 -2.47703 0
      vertex -2.35949 -2.23502 0
    endloop
  endfacet
  facet normal 0 0 1
    outer loop
      vertex -3.17402 -0.698654 0
      vertex -3.23095 -0.351387 0
      vertex -5 -5 0
    endloop
  endfacet
  facet normal 0 0 1
    outer loop
      vertex -3.23095 -0.351387 0
      vertex -3.25 5.97015e-16 0
      vertex -5 -5 0
    endloop
  endfacet
  facet normal 0 0 1
    outer loop
      vertex -5 -5 0
      vertex -3.25 5.97015e-16 0
      vertex -5 5 0
    endloop
  endfacet
  facet normal 0 0 1
    outer loop
      vertex -3.25 5.97015e-16 0
      vertex -3.23095 0.351387 0
      vertex -5 5 0
    endloop
  endfacet
  facet normal 0 0 1
    outer loop
      vertex -5 5 0
      vertex -3.23095 0.351387 0
      vertex -3.17402 0.698654 0
    endloop
  endfacet
  facet normal 0 0 1
    outer loop
      vertex -3.17402 0.698654 0
      vertex -3.07987 1.03773 0
      vertex -5 5 0
    endloop
  endfacet
  facet normal 0 0 1
    outer loop
      vertex -3.07987 1.03773 0
      vertex -2.94962 1.36464 0
      vertex -5 5 0
    endloop
  endfacet
  facet normal 0 0 1
    outer loop
      vertex -5 5 0
      vertex -2.94962 1.36464 0
      vertex -2.78479 1.67555 0
    endloop
  endfacet
  facet normal 0 0 1
    outer loop
      vertex 1.82386 2.68999 0
      vertex 2.10401 2.47703 0
      vertex 5 5 0
    endloop
  endfacet
  facet normal 0 0 1
    outer loop
      vertex 2.10401 2.47703 0
      vertex 2.35949 2.23502 0
      vertex 5 5 0
    endloop
  endfacet
  facet normal 0 0 1
    outer loop
      vertex 5 5 0
      vertex 2.35949 2.23502 0
      vertex 2.5873 1.96682 0
    endloop
  endfacet
  facet normal 0 0 1
    outer loop
      vertex -0.869467 3.13154 0
      vertex -0.525791 3.20719 0
      vertex -5 5 0
    endloop
  endfacet
  facet normal 0 0 1
    outer loop
      vertex -0.525791 3.20719 0
      vertex -0.175951 3.24523 0
      vertex -5 5 0
    endloop
  endfacet
  facet normal 0 0 1
    outer loop
      vertex -5 5 0
      vertex -0.175951 3.24523 0
      vertex 5 5 0
    endloop
  endfacet
  facet normal 0 0 1
    outer loop
      vertex -0.175951 3.24523 0
      vertex 0.175951 3.24523 0
      vertex 5 5 0
    endloop
  endfacet
  facet normal 0 0 1
    outer loop
      vertex 5 5 0
      vertex 0.175951 3.24523 0
      vertex 0.525791 3.20719 0
    endloop
  endfacet
  facet normal 0 0 1
    outer loop
      vertex 0.869467 -3.13154 0
      vertex 0.525791 -3.20719 0
      vertex 5 -5 0
    endloop
  endfacet
  facet normal 0 0 1
    outer loop
      vertex 0.525791 -3.20719 0
      vertex 0.175951 -3.24523 0
      vertex 5 -5 0
    endloop
  endfacet
  facet normal 0 0 1
    outer loop
      vertex 5 -5 0
      vertex 0.175951 -3.24523 0
      vertex -5 -5 0
    endloop
  endfacet
  facet normal 0 0 1
    outer loop
      vertex 0.175951 -3.24523 0
      vertex -0.175951 -3.24523 0
      vertex -5 -5 0
    endloop
  endfacet
  facet normal 0 0 1
    outer loop
      vertex -5 -5 0
      vertex -0.175951 -3.24523 0
      vertex -0.525791 -3.20719 0
    endloop
  endfacet
  facet normal -0.998533 -0.0541388 -1.72382e-16
    outer loop
      vertex 3.25 1.99005e-16 -0.25
      vertex 3.25 -5.97015e-16 0
      vertex 3.23095 0.351387 -0.25
    endloop
  endfacet
  facet normal -0.998533 -0.0541388 0
    outer loop
      vertex 3.25 -5.97015e-16 0
      vertex 3.23095 0.351387 0
      vertex 3.23095 0.351387 -0.25
    endloop
  endfacet
  facet normal -0.986826 -0.161783 0
    outer loop
      vertex 3.23095 0.351387 -0.25
      vertex 3.23095 0.351387 0
      vertex 3.17402 0.698654 -0.25
    endloop
  endfacet
  facet normal -0.986826 -0.161783 0
    outer loop
      vertex 3.23095 0.351387 0
      vertex 3.17402 0.698654 0
      vertex 3.17402 0.698654 -0.25
    endloop
  endfacet
  facet normal -0.96355 -0.267528 0
    outer loop
      vertex 3.17402 0.698654 -0.25
      vertex 3.17402 0.698654 0
      vertex 3.07987 1.03773 -0.25
    endloop
  endfacet
  facet normal -0.96355 -0.267528 0
    outer loop
      vertex 3.17402 0.698654 0
      vertex 3.07987 1.03773 0
      vertex 3.07987 1.03773 -0.25
    endloop
  endfacet
  facet normal -0.928977 -0.370138 0
    outer loop
      vertex 3.07987 1.03773 -0.25
      vertex 3.07987 1.03773 0
      vertex 2.94962 1.36464 -0.25
    endloop
  endfacet
  facet normal -0.928977 -0.370138 0
    outer loop
      vertex 3.07987 1.03773 0
      vertex 2.94962 1.36464 0
      vertex 2.94962 1.36464 -0.25
    endloop
  endfacet
  facet normal -0.883512 -0.468409 0
    outer loop
      vertex 2.94962 1.36464 -0.25
      vertex 2.94962 1.36464 0
      vertex 2.78479 1.67555 -0.25
    endloop
  endfacet
  facet normal -0.883512 -0.468409 0
    outer loop
      vertex 2.94962 1.36464 0
      vertex 2.78479 1.67555 0
      vertex 2.78479 1.67555 -0.25
    endloop
  endfacet
  facet normal -0.827689 -0.561187 0
    outer loop
      vertex 2.78479 1.67555 -0.25
      vertex 2.78479 1.67555 0
      vertex 2.5873 1.96682 -0.25
    endloop
  endfacet
  facet normal -0.827689 -0.561187 0
    outer loop
      vertex 2.78479 1.67555 0
      vertex 2.5873 1.96682 0
      vertex 2.5873 1.96682 -0.25
    endloop
  endfacet
  facet normal -0.762162 -0.647386 0
    outer loop
      vertex 2.5873 1.96682 -0.25
      vertex 2.5873 1.96682 0
      vertex 2.35949 2.23502 -0.25
    endloop
  endfacet
  facet normal -0.762162 -0.647386 0
    outer loop
      vertex 2.5873 1.96682 0
      vertex 2.35949 2.23502 0
      vertex 2.35949 2.23502 -0.25
    endloop
  endfacet
  facet normal -0.687699 -0.725995 0
    outer loop
      vertex 2.35949 2.23502 -0.25
      vertex 2.35949 2.23502 0
      vertex 2.10401 2.47703 -0.25
    endloop
  endfacet
  facet normal -0.687699 -0.725995 0
    outer loop
      vertex 2.35949 2.23502 0
      vertex 2.10401 2.47703 0
      vertex 2.10401 2.47703 -0.25
    endloop
  endfacet
  facet normal -0.605174 -0.796093 0
    outer loop
      vertex 2.10401 2.47703 -0.25
      vertex 2.10401 2.47703 0
      vertex 1.82386 2.68999 -0.25
    endloop
  endfacet
  facet normal -0.605174 -0.796093 0
    outer loop
      vertex 2.10401 2.47703 0
      vertex 1.82386 2.68999 0
      vertex 1.82386 2.68999 -0.25
    endloop
  endfacet
  facet normal -0.515554 -0.856857 0
    outer loop
      vertex 1.82386 2.68999 -0.25
      vertex 1.82386 2.68999 0
      vertex 1.52233 2.87141 -0.25
    endloop
  endfacet
  facet normal -0.515554 -0.856857 0
    outer loop
      vertex 1.82386 2.68999 0
      vertex 1.52233 2.87141 0
      vertex 1.52233 2.87141 -0.25
    endloop
  endfacet
  facet normal -0.419889 -0.907575 0
    outer loop
      vertex 1.52233 2.87141 -0.25
      vertex 1.52233 2.87141 0
      vertex 1.20295 3.01917 -0.25
    endloop
  endfacet
  facet normal -0.419889 -0.907575 0
    outer loop
      vertex 1.52233 2.87141 0
      vertex 1.20295 3.01917 0
      vertex 1.20295 3.01917 -0.25
    endloop
  endfacet
  facet normal -0.319302 -0.947653 0
    outer loop
      vertex 1.20295 3.01917 -0.25
      vertex 1.20295 3.01917 0
      vertex 0.869467 3.13154 -0.25
    endloop
  endfacet
  facet normal -0.319302 -0.947653 0
    outer loop
      vertex 1.20295 3.01917 0
      vertex 0.869467 3.13154 0
      vertex 0.869467 3.13154 -0.25
    endloop
  endfacet
  facet normal -0.214971 -0.976621 0
    outer loop
      vertex 0.869467 3.13154 -0.25
      vertex 0.869467 3.13154 0
      vertex 0.525791 3.20719 -0.25
    endloop
  endfacet
  facet normal -0.214971 -0.976621 0
    outer loop
      vertex 0.869467 3.13154 0
      vertex 0.525791 3.20719 0
      vertex 0.525791 3.20719 -0.25
    endloop
  endfacet
  facet normal -0.108119 -0.994138 0
    outer loop
      vertex 0.525791 3.20719 -0.25
      vertex 0.525791 3.20719 0
      vertex 0.175951 3.24523 -0.25
    endloop
  endfacet
  facet normal -0.108119 -0.994138 0
    outer loop
      vertex 0.525791 3.20719 0
      vertex 0.175951 3.24523 0
      vertex 0.175951 3.24523 -0.25
    endloop
  endfacet
  facet normal 0 -1 0
    outer loop
      vertex 0.175951 3.24523 -0.25
      vertex 0.175951 3.24523 0
      vertex -0.175951 3.24523 -0.25
    endloop
  endfacet
  facet normal 0 -1 0
    outer loop
      vertex 0.175951 3.24523 0
      vertex -0.175951 3.24523 0
      vertex -0.175951 3.24523 -0.25
    endloop
  endfacet
  facet normal 0.108119 -0.994138 0
    outer loop
      vertex -0.175951 3.24523 -0.25
      vertex -0.175951 3.24523 0
      vertex -0.525791 3.20719 -0.25
    endloop
  endfacet
  facet normal 0.108119 -0.994138 0
    outer loop
      vertex -0.175951 3.24523 0
      vertex -0.525791 3.20719 0
      vertex -0.525791 3.20719 -0.25
    endloop
  endfacet
  facet normal 0.214971 -0.976621 0
    outer loop
      vertex -0.525791 3.20719 -0.25
      vertex -0.525791 3.20719 0
      vertex -0.869467 3.13154 -0.25
    endloop
  endfacet
  facet normal 0.214971 -0.976621 0
    outer loop
      vertex -0.525791 3.20719 0
      vertex -0.869467 3.13154 0
      vertex -0.869467 3.13154 -0.25
    endloop
  endfacet
  facet normal 0.319302 -0.947653 0
    outer loop
      vertex -0.869467 3.13154 -0.25
      vertex -0.869467 3.13154 0
      vertex -1.20295 3.01917 -0.25
    endloop
  endfacet
  facet normal 0.319302 -0.947653 0
    outer loop
      vertex -0.869467 3.13154 0
      vertex -1.20295 3.01917 0
      vertex -1.20295 3.01917 -0.25
    endloop
  endfacet
  facet normal 0.419889 -0.907575 0
    outer loop
      vertex -1.20295 3.01917 -0.25
      vertex -1.20295 3.01917 0
      vertex -1.52233 2.87141 -0.25
    endloop
  endfacet
  facet normal 0.419889 -0.907575 0
    outer loop
      vertex -1.20295 3.01917 0
      vertex -1.52233 2.87141 0
      vertex -1.52233 2.87141 -0.25
    endloop
  endfacet
  facet normal 0.515554 -0.856857 0
    outer loop
      vertex -1.52233 2.87141 -0.25
      vertex -1.52233 2.87141 0
      vertex -1.82386 2.68999 -0.25
    endloop
  endfacet
  facet normal 0.515554 -0.856857 0
    outer loop
      vertex -1.52233 2.87141 0
      vertex -1.82386 2.68999 0
      vertex -1.82386 2.68999 -0.25
    endloop
  endfacet
  facet normal 0.605174 -0.796093 0
    outer loop
      vertex -1.82386 2.68999 -0.25
      vertex -1.82386 2.68999 0
      vertex -2.10401 2.47703 -0.25
    endloop
  endfacet
  facet normal 0.605174 -0.796093 0
    outer loop
      vertex -1.82386 2.68999 0
      vertex -2.10401 2.47703 0
      vertex -2.10401 2.47703 -0.25
    endloop
  endfacet
  facet normal 0.687699 -0.725995 0
    outer loop
      vertex -2.10401 2.47703 -0.25
      vertex -2.10401 2.47703 0
      vertex -2.35949 2.23502 -0.25
    endloop
  endfacet
  facet normal 0.687699 -0.725995 0
    outer loop
      vertex -2.10401 2.47703 0
      vertex -2.35949 2.23502 0
      vertex -2.35949 2.23502 -0.25
    endloop
  endfacet
  facet normal 0.762162 -0.647386 0
    outer loop
      vertex -2.35949 2.23502 -0.25
      vertex -2.35949 2.23502 0
      vertex -2.5873 1.96682 -0.25
    endloop
  endfacet
  facet normal 0.762162 -0.647386 0
    outer loop
      vertex -2.35949 2.23502 0
      vertex -2.5873 1.96682 0
      vertex -2.5873 1.96682 -0.25
    endloop
  endfacet
  facet normal 0.827689 -0.561187 0
    outer loop
      vertex -2.5873 1.96682 -0.25
      vertex -2.5873 1.96682 0
      vertex -2.78479 1.67555 -0.25
    endloop
  endfacet
  facet normal 0.827689 -0.561187 0
    outer loop
      vertex -2.5873 1.96682 0
      vertex -2.78479 1.67555 0
      vertex -2.78479 1.67555 -0.25
    endloop
  endfacet
  facet normal 0.883512 -0.468409 0
    outer loop
      vertex -2.78479 1.67555 -0.25
      vertex -2.78479 1.67555 0
      vertex -2.94962 1.36464 -0.25
    endloop
  endfacet
  facet normal 0.883512 -0.468409 0
    outer loop
      vertex -2.78479 1.67555 0
      vertex -2.94962 1.36464 0
      vertex -2.94962 1.36464 -0.25
    endloop
  endfacet
  facet normal 0.928977 -0.370138 0
    outer loop
      vertex -2.94962 1.36464 -0.25
      vertex -2.94962 1.36464 0
      vertex -3.07987 1.03773 -0.25
    endloop
  endfacet
  facet normal 0.928977 -0.370138 0
    outer loop
      vertex -2.94962 1.36464 0
      vertex -3.07987 1.03773 0
      vertex -3.07987 1.03773 -0.25
    endloop
  endfacet
  facet normal 0.96355 -0.267528 0
    outer loop
      vertex -3.07987 1.03773 -0.25
      vertex -3.07987 1.03773 0
      vertex -3.17402 0.698654 -0.25
    endloop
  endfacet
  facet normal 0.96355 -0.267528 0
    outer loop
      vertex -3.07987 1.03773 0
      vertex -3.17402 0.698654 0
      vertex -3.17402 0.698654 -0.25
    endloop
  endfacet
  facet normal 0.986826 -0.161783 0
    outer loop
      vertex -3.17402 0.698654 -0.25
      vertex -3.17402 0.698654 0
      vertex -3.23095 0.351387 -0.25
    endloop
  endfacet
  facet normal 0.986826 -0.161783 0
    outer loop
      vertex -3.17402 0.698654 0
      vertex -3.23095 0.351387 0
      vertex -3.23095 0.351387 -0.25
    endloop
  endfacet
  facet normal 0.998533 -0.0541388 0
    outer loop
      vertex -3.23095 0.351387 -0.25
      vertex -3.23095 0.351387 0
      vertex -3.25 5.97015e-16 -0.25
    endloop
  endfacet
  facet normal 0.998533 -0.0541388 0
    outer loop
      vertex -3.23095 0.351387 0
      vertex -3.25 5.97015e-16 0
      vertex -3.25 5.97015e-16 -0.25
    endloop
  endfacet
  facet normal 0.998533 0.0541388 0
    outer loop
      vertex -3.25 5.97015e-16 -0.25
      vertex -3.25 5.97015e-16 0
      vertex -3.23095 -0.351387 -0.25
    endloop
  endfacet
  facet normal 0.998533 0.0541388 0
    outer loop
      vertex -3.25 5.97015e-16 0
      vertex -3.23095 -0.351387 0
      vertex -3.23095 -0.351387 -0.25
    endloop
  endfacet
  facet normal 0.986826 0.161783 0
    outer loop
      vertex -3.23095 -0.351387 -0.25
      vertex -3.23095 -0.351387 0
      vertex -3.17402 -0.698654 -0.25
    endloop
  endfacet
  facet normal 0.986826 0.161783 0
    outer loop
      vertex -3.23095 -0.351387 0
      vertex -3.17402 -0.698654 0
      vertex -3.17402 -0.698654 -0.25
    endloop
  endfacet
  facet normal 0.96355 0.267528 0
    outer loop
      vertex -3.17402 -0.698654 -0.25
      vertex -3.17402 -0.698654 0
      vertex -3.07987 -1.03773 -0.25
    endloop
  endfacet
  facet normal 0.96355 0.267528 0
    outer loop
      vertex -3.17402 -0.698654 0
      vertex -3.07987 -1.03773 0
      vertex -3.07987 -1.03773 -0.25
    endloop
  endfacet
  facet normal 0.928977 0.370138 0
    outer loop
      vertex -3.07987 -1.03773 -0.25
      vertex -3.07987 -1.03773 0
      vertex -2.94962 -1.36464 -0.25
    endloop
  endfacet
  facet normal 0.928977 0.370138 0
    outer loop
      vertex -3.07987 -1.03773 0
      vertex -2.94962 -1.36464 0
      vertex -2.94962 -1.36464 -0.25
    endloop
  endfacet
  facet normal 0.883512 0.468409 0
    outer loop
      vertex -2.94962 -1.36464 -0.25
      vertex -2.94962 -1.36464 0
      vertex -2.78479 -1.67555 -0.25
    endloop
  endfacet
  facet normal 0.883512 0.468409 0
    outer loop
      vertex -2.94962 -1.36464 0
      vertex -2.78479 -1.67555 0
      vertex -2.78479 -1.67555 -0.25
    endloop
  endfacet
  facet normal 0.827689 0.561187 0
    outer loop
      vertex -2.78479 -1.67555 -0.25
      vertex -2.78479 -1.67555 0
      vertex -2.5873 -1.96682 -0.25
    endloop
  endfacet
  facet normal 0.827689 0.561187 0
    outer loop
      vertex -2.78479 -1.67555 0
      vertex -2.5873 -1.96682 0
      vertex -2.5873 -1.96682 -0.25
    endloop
  endfacet
  facet normal 0.762162 0.647386 0
    outer loop
      vertex -2.5873 -1.96682 -0.25
      vertex -2.5873 -1.96682 0
      vertex -2.35949 -2.23502 -0.25
    endloop
  endfacet
  facet normal 0.762162 0.647386 0
    outer loop
      vertex -2.5873 -1.96682 0
      vertex -2.35949 -2.23502 0
      vertex -2.35949 -2.23502 -0.25
    endloop
  endfacet
  facet normal 0.687699 0.725995 0
    outer loop
      vertex -2.35949 -2.23502 -0.25
      vertex -2.35949 -2.23502 0
      vertex -2.10401 -2.47703 -0.25
    endloop
  endfacet
  facet normal 0.687699 0.725995 0
    outer loop
      vertex -2.35949 -2.23502 0
      vertex -2.10401 -2.47703 0
      vertex -2.10401 -2.47703 -0.25
    endloop
  endfacet
  facet normal 0.605174 0.796093 0
    outer loop
      vertex -2.10401 -2.47703 -0.25
      vertex -2.10401 -2.47703 0
      vertex -1.82386 -2.68999 -0.25
    endloop
  endfacet
  facet normal 0.605174 0.796093 0
    outer loop
      vertex -2.10401 -2.47703 0
      vertex -1.82386 -2.68999 0
      vertex -1.82386 -2.68999 -0.25
    endloop
  endfacet
  facet normal 0.515554 0.856857 0
    outer loop
      vertex -1.82386 -2.68999 -0.25
      vertex -1.82386 -2.68999 0
      vertex -1.52233 -2.87141 -0.25
    endloop
  endfacet
  facet normal 0.515554 0.856857 0
    outer loop
      vertex -1.82386 -2.68999 0
      vertex -1.52233 -2.87141 0
      vertex -1.52233 -2.87141 -0.25
    endloop
  endfacet
  facet normal 0.419889 0.907575 0
    outer loop
      vertex -1.52233 -2.87141 -0.25
      vertex -1.52233 -2.87141 0
      vertex -1.20295 -3.01917 -0.25
    endloop
  endfacet
  facet normal 0.419889 0.907575 0
    outer loop
      vertex -1.52233 -2.87141 0
      vertex -1.20295 -3.01917 0
      vertex -1.20295 -3.01917 -0.25
    endloop
  endfacet
  facet normal 0.319302 0.947653 0
    outer loop
      vertex -1.20295 -3.01917 -0.25
      vertex -1.20295 -3.01917 0
      vertex -0.869467 -3.13154 -0.25
    endloop
  endfacet
  facet normal 0.319302 0.947653 0
    outer loop
      vertex -1.20295 -3.01917 0
      vertex -0.869467 -3.13154 0
      vertex -0.869467 -3.13154 -0.25
    endloop
  endfacet
  facet normal 0.214971 0.976621 0
    outer loop
      vertex -0.869467 -3.13154 -0.25
      vertex -0.869467 -3.13154 0
      vertex -0.525791 -3.20719 -0.25
    endloop
  endfacet
  facet normal 0.214971 0.976621 0
    outer loop
      vertex -0.869467 -3.13154 0
      vertex -0.525791 -3.20719 0
      vertex -0.525791 -3.20719 -0.25
    endloop
  endfacet
  facet normal 0.108119 0.994138 0
    outer loop
      vertex -0.525791 -3.20719 -0.25
      vertex -0.525791 -3.20719 0
      vertex -0.175951 -3.24523 -0.25
    endloop
  endfacet
  facet normal 0.108119 0.994138 0
    outer loop
      vertex -0.525791 -3.20719 0
      vertex -0.175951 -3.24523 0
      vertex -0.175951 -3.24523 -0.25
    endloop
  endfacet
  facet normal 0 1 0
    outer loop
      vertex -0.175951 -3.24523 -0.25
      vertex -0.175951 -3.24523 0
      vertex 0.175951 -3.24523 -0.25
    endloop
  endfacet
  facet normal 0 1 0
    outer loop
      vertex -0.175951 -3.24523 0
      vertex 0.175951 -3.24523 0
      vertex 0.175951 -3.24523 -0.25
    endloop
  endfacet
  facet normal -0.108119 0.994138 0
    outer loop
      vertex 0.175951 -3.24523 -0.25
      vertex 0.175951 -3.24523 0
      vertex 0.525791 -3.20719 -0.25
    endloop
  endfacet
  facet normal -0.108119 0.994138 0
    outer loop
      vertex 0.175951 -3.24523 0
      vertex 0.525791 -3.20719 0
      vertex 0.525791 -3.20719 -0.25
    endloop
  endfacet
  facet normal -0.214971 0.976621 0
    outer loop
      vertex 0.525791 -3.20719 -0.25
      vertex 0.525791 -3.20719 0
      vertex 0.869467 -3.13154 -0.25
    endloop
  endfacet
  facet normal -0.214971 0.976621 0
    outer loop
      vertex 0.525791 -3.20719 0
      vertex 0.869467 -3.13154 0
      vertex 0.869467 -3.13154 -0.25
    endloop
  endfacet
  facet normal -0.319302 0.947653 0
    outer loop
      vertex 0.869467 -3.13154 -0.25
      vertex 0.869467 -3.13154 0
      vertex 1.20295 -3.01917 -0.25
    endloop
  endfacet
  facet normal -0.319302 0.947653 0
    outer loop
      vertex 0.869467 -3.13154 0
      vertex 1.20295 -3.01917 0
      vertex 1.20295 -3.01917 -0.25
    endloop
  endfacet
  facet normal -0.419889 0.907575 0
    outer loop
      vertex 1.20295 -3.01917 -0.25
      vertex 1.20295 -3.01917 0
      vertex 1.52233 -2.87141 -0.25
    endloop
  endfacet
  facet normal -0.419889 0.907575 0
    outer loop
      vertex 1.20295 -3.01917 0
      vertex 1.52233 -2.87141 0
      vertex 1.52233 -2.87141 -0.25
    endloop
  endfacet
  facet normal -0.515554 0.856857 0
    outer loop
      vertex 1.52233 -2.87141 -0.25
      vertex 1.52233 -2.87141 0
      vertex 1.82386 -2.68999 -0.25
    endloop
  endfacet
  facet normal -0.515554 0.856857 0
    outer loop
      vertex 1.52233 -2.87141 0
      vertex 1.82386 -2.68999 0
      vertex 1.82386 -2.68999 -0.25
    endloop
  endfacet
  facet normal -0.605174 0.796093 0
    outer loop
      vertex 1.82386 -2.68999 -0.25
      vertex 1.82386 -2.68999 0
      vertex 2.10401 -2.47703 -0.25
    endloop
  endfacet
  facet normal -0.605174 0.796093 0
    outer loop
      vertex 1.82386 -2.68999 0
      vertex 2.10401 -2.47703 0
      vertex 2.10401 -2.47703 -0.25
    endloop
  endfacet
  facet normal -0.687699 0.725995 0
    outer loop
      vertex 2.10401 -2.47703 -0.25
      vertex 2.10401 -2.47703 0
      vertex 2.35949 -2.23502 -0.25
    endloop
  endfacet
  facet normal -0.687699 0.725995 0
    outer loop
      vertex 2.10401 -2.47703 0
      vertex 2.35949 -2.23502 0
      vertex 2.35949 -2.23502 -0.25
    endloop
  endfacet
  facet normal -0.762162 0.647386 0
    outer loop
      vertex 2.35949 -2.23502 -0.25
      vertex 2.35949 -2.23502 0
      vertex 2.5873 -1.96682 -0.25
    endloop
  endfacet
  facet normal -0.762162 0.647386 0
    outer loop
      vertex 2.35949 -2.23502 0
      vertex 2.5873 -1.96682 0
      vertex 2.5873 -1.96682 -0.25
    endloop
  endfacet
  facet normal -0.827689 0.561187 0
    outer loop
      vertex 2.5873 -1.96682 -0.25
      vertex 2.5873 -1.96682 0
      vertex 2.78479 -1.67555 -0.25
    endloop
  endfacet
  facet normal -0.827689 0.561187 0
    outer loop
      vertex 2.5873 -1.96682 0
      vertex 2.78479 -1.67555 0
      vertex 2.78479 -1.67555 -0.25
    endloop
  endfacet
  facet normal -0.883512 0.468409 0
    outer loop
      vertex 2.78479 -1.67555 -0.25
      vertex 2.78479 -1.67555 0
      vertex 2.94962 -1.36464 -0.25
    endloop
  endfacet
  facet normal -0.883512 0.468409 0
    outer loop
      vertex 2.78479 -1.67555 0
      vertex 2.94962 -1.36464 0
      vertex 2.94962 -1.36464 -0.25
    endloop
  endfacet
  facet normal -0.928977 0.370138 0
    outer loop
      vertex 2.94962 -1.36464 -0.25
      vertex 2.94962 -1.36464 0
      vertex 3.07987 -1.03773 -0.25
    endloop
  endfacet
  facet normal -0.928977 0.370138 0
    outer loop
      vertex 2.94962 -1.36464 0
      vertex 3.07987 -1.03773 0
      vertex 3.07987 -1.03773 -0.25
    endloop
  endfacet
  facet normal -0.96355 0.267528 0
    outer loop
      vertex 3.07987 -1.03773 -0.25
      vertex 3.07987 -1.03773 0
      vertex 3.17402 -0.698654 -0.25
    endloop
  endfacet
  facet normal -0.96355 0.267528 0
    outer loop
      vertex 3.07987 -1.03773 0
      vertex 3.17402 -0.698654 0
      vertex 3.17402 -0.698654 -0.25
    endloop
  endfacet
  facet normal -0.986826 0.161783 0
    outer loop
      vertex 3.17402 -0.698654 -0.25
      vertex 3.17402 -0.698654 0
      vertex 3.23095 -0.351387 -0.25
    endloop
  endfacet
  facet normal -0.986826 0.161783 0
    outer loop
      vertex 3.17402 -0.698654 0
      vertex 3.23095 -0.351387 0
      vertex 3.23095 -0.351387 -0.25
    endloop
  endfacet
  facet normal -0.998533 0.0541388 0
    outer loop
      vertex 3.23095 -0.351387 -0.25
      vertex 3.23095 -0.351387 0
      vertex 3.25 1.99005e-16 -0.25
    endloop
  endfacet
  facet normal -0.998533 0.0541388 1.78645e-16
    outer loop
      vertex 3.23095 -0.351387 0
      vertex 3.25 -5.97015e-16 0
      vertex 3.25 1.99005e-16 -0.25
    endloop
  endfacet
  facet normal 0 0 -1
    outer loop
      vertex -11.3742 8.64643 0
      vertex -10.3727 9.82551 0
      vertex -5.5 5.5 0
    endloop
  endfacet
  facet normal 0 0 -1
    outer loop
      vertex -11.3742 8.64643 0
      vertex -5.5 5.5 0
      vertex -12.2423 7.36598 0
    endloop
  endfacet
  facet normal 0 0 -1
    outer loop
      vertex -8.01796 -11.8256 0
      vertex -9.24953 -10.8894 0
      vertex -5.5 -5.5 0
    endloop
  endfacet
  facet normal 0 0 -1
    outer loop
      vertex -9.24953 -10.8894 0
      vertex -10.3727 -9.82551 0
      vertex -5.5 -5.5 0
    endloop
  endfacet
  facet normal 0 0 -1
    outer loop
      vertex -5.5 -5.5 0
      vertex -10.3727 -9.82551 0
      vertex -11.3742 -8.64643 0
    endloop
  endfacet
  facet normal 0 0 -1
    outer loop
      vertex -10.3727 9.82551 0
      vertex -9.24953 10.8894 0
      vertex -5.5 5.5 0
    endloop
  endfacet
  facet normal 0 0 -1
    outer loop
      vertex -9.24953 10.8894 0
      vertex -8.01796 11.8256 0
      vertex -5.5 5.5 0
    endloop
  endfacet
  facet normal 0 0 -1
    outer loop
      vertex -5.5 5.5 0
      vertex -8.01796 11.8256 0
      vertex -6.69239 12.6232 0
    endloop
  endfacet
  facet normal 0 0 -1
    outer loop
      vertex -6.69239 12.6232 0
      vertex -5.28835 13.2728 0
      vertex -5.5 5.5 0
    endloop
  endfacet
  facet normal 0 0 -1
    outer loop
      vertex -5.28835 13.2728 0
      vertex -3.82231 13.7667 0
      vertex -5.5 5.5 0
    endloop
  endfacet
  facet normal 0 0 -1
    outer loop
      vertex -5.5 5.5 0
      vertex -3.82231 13.7667 0
      vertex -2.31146 14.0993 0
    endloop
  endfacet
  facet normal 0 0 -1
    outer loop
      vertex 3.82231 13.7667 0
      vertex 5.28835 13.2728 0
      vertex 5.5 5.5 0
    endloop
  endfacet
  facet normal 0 0 -1
    outer loop
      vertex 5.28835 13.2728 0
      vertex 6.69239 12.6232 0
      vertex 5.5 5.5 0
    endloop
  endfacet
  facet normal 0 0 -1
    outer loop
      vertex 5.5 5.5 0
      vertex 6.69239 12.6232 0
      vertex 8.01796 11.8256 0
    endloop
  endfacet
  facet normal 0 0 -1
    outer loop
      vertex -11.3742 -8.64643 0
      vertex -12.2423 -7.36598 0
      vertex -5.5 -5.5 0
    endloop
  endfacet
  facet normal 0 0 -1
    outer loop
      vertex -12.2423 -7.36598 0
      vertex -12.967 -5.99917 0
      vertex -5.5 -5.5 0
    endloop
  endfacet
  facet normal 0 0 -1
    outer loop
      vertex -5.5 -5.5 0
      vertex -12.967 -5.99917 0
      vertex -13.5396 -4.56202 0
    endloop
  endfacet
  facet normal 0 0 -1
    outer loop
      vertex -14.2037 1.54475 0
      vertex -13.9535 3.07139 0
      vertex -5.5 5.5 0
    endloop
  endfacet
  facet normal 0 0 -1
    outer loop
      vertex 8.01796 11.8256 0
      vertex 9.24953 10.8894 0
      vertex 5.5 5.5 0
    endloop
  endfacet
  facet normal 0 0 -1
    outer loop
      vertex 9.24953 10.8894 0
      vertex 10.3727 9.82551 0
      vertex 5.5 5.5 0
    endloop
  endfacet
  facet normal 0 0 -1
    outer loop
      vertex 5.5 5.5 0
      vertex 10.3727 9.82551 0
      vertex 11.3742 8.64643 0
    endloop
  endfacet
  facet normal 0 0 -1
    outer loop
      vertex 5.5 5.5 0
      vertex 13.5396 4.56202 0
      vertex 13.9535 3.07139 0
    endloop
  endfacet
  facet normal 0 0 -1
    outer loop
      vertex -2.31146 14.0993 0
      vertex -0.77351 14.2665 0
      vertex -5.5 5.5 0
    endloop
  endfacet
  facet normal 0 0 -1
    outer loop
      vertex -0.77351 14.2665 0
      vertex 0.77351 14.2665 0
      vertex -5.5 5.5 0
    endloop
  endfacet
  facet normal 0 0 -1
    outer loop
      vertex -5.5 5.5 0
      vertex 0.77351 14.2665 0
      vertex 5.5 5.5 0
    endloop
  endfacet
  facet normal 0 0 -1
    outer loop
      vertex 0.77351 14.2665 0
      vertex 2.31146 14.0993 0
      vertex 5.5 5.5 0
    endloop
  endfacet
  facet normal 0 0 -1
    outer loop
      vertex 5.5 5.5 0
      vertex 2.31146 14.0993 0
      vertex 3.82231 13.7667 0
    endloop
  endfacet
  facet normal 0 0 -1
    outer loop
      vertex -13.5396 -4.56202 0
      vertex -13.9535 -3.07139 0
      vertex -5.5 -5.5 0
    endloop
  endfacet
  facet normal 0 0 -1
    outer loop
      vertex -13.9535 -3.07139 0
      vertex -14.2037 -1.54475 0
      vertex -5.5 -5.5 0
    endloop
  endfacet
  facet normal 0 0 -1
    outer loop
      vertex -5.5 -5.5 0
      vertex -14.2037 -1.54475 0
      vertex -5.5 5.5 0
    endloop
  endfacet
  facet normal 0 0 -1
    outer loop
      vertex -14.2037 -1.54475 0
      vertex -14.2875 8.74857e-16 0
      vertex -5.5 5.5 0
    endloop
  endfacet
  facet normal 0 0 -1
    outer loop
      vertex -5.5 5.5 0
      vertex -14.2875 8.74857e-16 0
      vertex -14.2037 1.54475 0
    endloop
  endfacet
  facet normal 0 0 -1
    outer loop
      vertex -13.9535 3.07139 0
      vertex -13.5396 4.56202 0
      vertex -5.5 5.5 0
    endloop
  endfacet
  facet normal 0 0 -1
    outer loop
      vertex -13.5396 4.56202 0
      vertex -12.967 5.99917 0
      vertex -5.5 5.5 0
    endloop
  endfacet
  facet normal 0 0 -1
    outer loop
      vertex -5.5 5.5 0
      vertex -12.967 5.99917 0
      vertex -12.2423 7.36598 0
    endloop
  endfacet
  facet normal 0 0 -1
    outer loop
      vertex -3.82231 -13.7667 0
      vertex -5.28835 -13.2728 0
      vertex -5.5 -5.5 0
    endloop
  endfacet
  facet normal 0 0 -1
    outer loop
      vertex -5.28835 -13.2728 0
      vertex -6.69239 -12.6232 0
      vertex -5.5 -5.5 0
    endloop
  endfacet
  facet normal 0 0 -1
    outer loop
      vertex -5.5 -5.5 0
      vertex -6.69239 -12.6232 0
      vertex -8.01796 -11.8256 0
    endloop
  endfacet
  facet normal 0 0 -1
    outer loop
      vertex 11.3742 8.64643 0
      vertex 12.2423 7.36598 0
      vertex 5.5 5.5 0
    endloop
  endfacet
  facet normal 0 0 -1
    outer loop
      vertex 12.2423 7.36598 0
      vertex 12.967 5.99917 0
      vertex 5.5 5.5 0
    endloop
  endfacet
  facet normal 0 0 -1
    outer loop
      vertex 5.5 5.5 0
      vertex 12.967 5.99917 0
      vertex 13.5396 4.56202 0
    endloop
  endfacet
  facet normal 0 0 -1
    outer loop
      vertex 10.3727 -9.82551 0
      vertex 9.24953 -10.8894 0
      vertex 5.5 -5.5 0
    endloop
  endfacet
  facet normal 0 0 -1
    outer loop
      vertex 9.24953 -10.8894 0
      vertex 8.01796 -11.8256 0
      vertex 5.5 -5.5 0
    endloop
  endfacet
  facet normal 0 0 -1
    outer loop
      vertex 5.5 -5.5 0
      vertex 8.01796 -11.8256 0
      vertex 6.69239 -12.6232 0
    endloop
  endfacet
  facet normal 0 0 -1
    outer loop
      vertex 6.69239 -12.6232 0
      vertex 5.28835 -13.2728 0
      vertex 5.5 -5.5 0
    endloop
  endfacet
  facet normal 0 0 -1
    outer loop
      vertex 5.28835 -13.2728 0
      vertex 3.82231 -13.7667 0
      vertex 5.5 -5.5 0
    endloop
  endfacet
  facet normal 0 0 -1
    outer loop
      vertex 5.5 -5.5 0
      vertex 3.82231 -13.7667 0
      vertex 2.31146 -14.0993 0
    endloop
  endfacet
  facet normal 0 0 -1
    outer loop
      vertex 13.9535 3.07139 0
      vertex 14.2037 1.54475 0
      vertex 5.5 5.5 0
    endloop
  endfacet
  facet normal 0 0 -1
    outer loop
      vertex 14.2037 1.54475 0
      vertex 14.2875 2.62457e-15 0
      vertex 5.5 5.5 0
    endloop
  endfacet
  facet normal 0 0 -1
    outer loop
      vertex 5.5 5.5 0
      vertex 14.2875 2.62457e-15 0
      vertex 5.5 -5.5 0
    endloop
  endfacet
  facet normal 0 0 -1
    outer loop
      vertex 14.2875 2.62457e-15 0
      vertex 14.2037 -1.54475 0
      vertex 5.5 -5.5 0
    endloop
  endfacet
  facet normal 0 0 -1
    outer loop
      vertex 2.31146 -14.0993 0
      vertex 0.77351 -14.2665 0
      vertex 5.5 -5.5 0
    endloop
  endfacet
  facet normal 0 0 -1
    outer loop
      vertex 0.77351 -14.2665 0
      vertex -0.77351 -14.2665 0
      vertex 5.5 -5.5 0
    endloop
  endfacet
  facet normal 0 0 -1
    outer loop
      vertex 5.5 -5.5 0
      vertex -0.77351 -14.2665 0
      vertex -5.5 -5.5 0
    endloop
  endfacet
  facet normal 0 0 -1
    outer loop
      vertex -0.77351 -14.2665 0
      vertex -2.31146 -14.0993 0
      vertex -5.5 -5.5 0
    endloop
  endfacet
  facet normal 0 0 -1
    outer loop
      vertex -5.5 -5.5 0
      vertex -2.31146 -14.0993 0
      vertex -3.82231 -13.7667 0
    endloop
  endfacet
  facet normal 0 0 -1
    outer loop
      vertex 14.2037 -1.54475 0
      vertex 13.9535 -3.07139 0
      vertex 5.5 -5.5 0
    endloop
  endfacet
  facet normal 0 0 -1
    outer loop
      vertex 13.9535 -3.07139 0
      vertex 13.5396 -4.56202 0
      vertex 5.5 -5.5 0
    endloop
  endfacet
  facet normal 0 0 -1
    outer loop
      vertex 5.5 -5.5 0
      vertex 13.5396 -4.56202 0
      vertex 12.967 -5.99917 0
    endloop
  endfacet
  facet normal 0 0 -1
    outer loop
      vertex 12.967 -5.99917 0
      vertex 12.2423 -7.36598 0
      vertex 5.5 -5.5 0
    endloop
  endfacet
  facet normal 0 0 -1
    outer loop
      vertex 12.2423 -7.36598 0
      vertex 11.3742 -8.64643 0
      vertex 5.5 -5.5 0
    endloop
  endfacet
  facet normal 0 0 -1
    outer loop
      vertex 5.5 -5.5 0
      vertex 11.3742 -8.64643 0
      vertex 10.3727 -9.82551 0
    endloop
  endfacet
  facet normal 0 1 0
    outer loop
      vertex 5.5 5.5 -0.25
      vertex -5.5 5.5 -0.25
      vertex 5.5 5.5 0
    endloop
  endfacet
  facet normal 0 1 0
    outer loop
      vertex -5.5 5.5 -0.25
      vertex -5.5 5.5 0
      vertex 5.5 5.5 0
    endloop
  endfacet
  facet normal -1 0 0
    outer loop
      vertex 5 -5 0.25
      vertex 5 5 0.25
      vertex 5 -5 0
    endloop
  endfacet
  facet normal -1 0 0
    outer loop
      vertex 5 5 0.25
      vertex 5 5 0
      vertex 5 -5 0
    endloop
  endfacet
  facet normal 0 -1 0
    outer loop
      vertex -5.5 -5.5 -0.25
      vertex 5.5 -5.5 -0.25
      vertex -5.5 -5.5 0
    endloop
  endfacet
  facet normal 0 -1 0
    outer loop
      vertex 5.5 -5.5 -0.25
      vertex 5.5 -5.5 0
      vertex -5.5 -5.5 0
    endloop
  endfacet
  facet normal 0 -1 0
    outer loop
      vertex 5 5 0.25
      vertex -5 5 0.25
      vertex 5 5 0
    endloop
  endfacet
  facet normal 0 -1 0
    outer loop
      vertex -5 5 0.25
      vertex -5 5 0
      vertex 5 5 0
    endloop
  endfacet
  facet normal 1 0 0
    outer loop
      vertex 5.5 -5.5 -0.25
      vertex 5.5 5.5 -0.25
      vertex 5.5 -5.5 0
    endloop
  endfacet
  facet normal 1 0 0
    outer loop
      vertex 5.5 5.5 -0.25
      vertex 5.5 5.5 0
      vertex 5.5 -5.5 0
    endloop
  endfacet
  facet normal 0 1 0
    outer loop
      vertex -5 -5 0.25
      vertex 5 -5 0.25
      vertex -5 -5 0
    endloop
  endfacet
  facet normal 0 1 0
    outer loop
      vertex 5 -5 0.25
      vertex 5 -5 0
      vertex -5 -5 0
    endloop
  endfacet
  facet normal -0.998533 0.0541388 0
    outer loop
      vertex -14.2875 8.74857e-16 0
      vertex -14.2037 1.54475 0.25
      vertex -14.2037 1.54475 0
    endloop
  endfacet
  facet normal -0.986827 0.161782 0
    outer loop
      vertex -14.2037 1.54475 0.25
      vertex -13.9535 3.07139 0.25
      vertex -14.2037 1.54475 0
    endloop
  endfacet
  facet normal -0.986827 0.161782 0
    outer loop
      vertex -14.2037 1.54475 0
      vertex -13.9535 3.07139 0.25
      vertex -13.9535 3.07139 0
    endloop
  endfacet
  facet normal -0.96355 0.267528 0
    outer loop
      vertex -13.9535 3.07139 0.25
      vertex -13.5396 4.56202 0.25
      vertex -13.9535 3.07139 0
    endloop
  endfacet
  facet normal -0.96355 0.267528 0
    outer loop
      vertex -13.9535 3.07139 0
      vertex -13.5396 4.56202 0.25
      vertex -13.5396 4.56202 0
    endloop
  endfacet
  facet normal -0.928977 0.370138 0
    outer loop
      vertex -13.5396 4.56202 0.25
      vertex -12.967 5.99917 0.25
      vertex -13.5396 4.56202 0
    endloop
  endfacet
  facet normal -0.928977 0.370138 0
    outer loop
      vertex -13.5396 4.56202 0
      vertex -12.967 5.99917 0.25
      vertex -12.967 5.99917 0
    endloop
  endfacet
  facet normal -0.883512 0.468409 0
    outer loop
      vertex -12.967 5.99917 0.25
      vertex -12.2423 7.36598 0.25
      vertex -12.967 5.99917 0
    endloop
  endfacet
  facet normal -0.883512 0.468409 0
    outer loop
      vertex -12.967 5.99917 0
      vertex -12.2423 7.36598 0.25
      vertex -12.2423 7.36598 0
    endloop
  endfacet
  facet normal -0.827689 0.561187 0
    outer loop
      vertex -12.2423 7.36598 0.25
      vertex -11.3742 8.64643 0.25
      vertex -12.2423 7.36598 0
    endloop
  endfacet
  facet normal -0.827689 0.561187 0
    outer loop
      vertex -12.2423 7.36598 0
      vertex -11.3742 8.64643 0.25
      vertex -11.3742 8.64643 0
    endloop
  endfacet
  facet normal -0.762162 0.647386 0
    outer loop
      vertex -11.3742 8.64643 0.25
      vertex -10.3727 9.82551 0.25
      vertex -11.3742 8.64643 0
    endloop
  endfacet
  facet normal -0.762162 0.647386 0
    outer loop
      vertex -11.3742 8.64643 0
      vertex -10.3727 9.82551 0.25
      vertex -10.3727 9.82551 0
    endloop
  endfacet
  facet normal -0.687699 0.725996 0
    outer loop
      vertex -10.3727 9.82551 0.25
      vertex -9.24953 10.8894 0.25
      vertex -10.3727 9.82551 0
    endloop
  endfacet
  facet normal -0.687699 0.725996 0
    outer loop
      vertex -10.3727 9.82551 0
      vertex -9.24953 10.8894 0.25
      vertex -9.24953 10.8894 0
    endloop
  endfacet
  facet normal -0.605174 0.796093 0
    outer loop
      vertex -9.24953 10.8894 0.25
      vertex -8.01796 11.8256 0.25
      vertex -9.24953 10.8894 0
    endloop
  endfacet
  facet normal -0.605174 0.796093 0
    outer loop
      vertex -9.24953 10.8894 0
      vertex -8.01796 11.8256 0.25
      vertex -8.01796 11.8256 0
    endloop
  endfacet
  facet normal -0.515554 0.856857 0
    outer loop
      vertex -8.01796 11.8256 0.25
      vertex -6.69239 12.6232 0.25
      vertex -8.01796 11.8256 0
    endloop
  endfacet
  facet normal -0.515554 0.856857 0
    outer loop
      vertex -8.01796 11.8256 0
      vertex -6.69239 12.6232 0.25
      vertex -6.69239 12.6232 0
    endloop
  endfacet
  facet normal -0.419889 0.907576 0
    outer loop
      vertex -6.69239 12.6232 0.25
      vertex -5.28835 13.2728 0.25
      vertex -6.69239 12.6232 0
    endloop
  endfacet
  facet normal -0.419889 0.907576 0
    outer loop
      vertex -6.69239 12.6232 0
      vertex -5.28835 13.2728 0.25
      vertex -5.28835 13.2728 0
    endloop
  endfacet
  facet normal -0.319302 0.947653 0
    outer loop
      vertex -5.28835 13.2728 0.25
      vertex -3.82231 13.7667 0.25
      vertex -5.28835 13.2728 0
    endloop
  endfacet
  facet normal -0.319302 0.947653 0
    outer loop
      vertex -5.28835 13.2728 0
      vertex -3.82231 13.7667 0.25
      vertex -3.82231 13.7667 0
    endloop
  endfacet
  facet normal -0.21497 0.976621 0
    outer loop
      vertex -3.82231 13.7667 0.25
      vertex -2.31146 14.0993 0.25
      vertex -3.82231 13.7667 0
    endloop
  endfacet
  facet normal -0.21497 0.976621 0
    outer loop
      vertex -3.82231 13.7667 0
      vertex -2.31146 14.0993 0.25
      vertex -2.31146 14.0993 0
    endloop
  endfacet
  facet normal -0.108119 0.994138 0
    outer loop
      vertex -2.31146 14.0993 0.25
      vertex -0.77351 14.2665 0.25
      vertex -2.31146 14.0993 0
    endloop
  endfacet
  facet normal -0.108119 0.994138 0
    outer loop
      vertex -2.31146 14.0993 0
      vertex -0.77351 14.2665 0.25
      vertex -0.77351 14.2665 0
    endloop
  endfacet
  facet normal 0 1 0
    outer loop
      vertex -0.77351 14.2665 0.25
      vertex 0.77351 14.2665 0.25
      vertex -0.77351 14.2665 0
    endloop
  endfacet
  facet normal 0 1 0
    outer loop
      vertex -0.77351 14.2665 0
      vertex 0.77351 14.2665 0.25
      vertex 0.77351 14.2665 0
    endloop
  endfacet
  facet normal 0.108119 0.994138 0
    outer loop
      vertex 0.77351 14.2665 0.25
      vertex 2.31146 14.0993 0.25
      vertex 0.77351 14.2665 0
    endloop
  endfacet
  facet normal 0.108119 0.994138 0
    outer loop
      vertex 0.77351 14.2665 0
      vertex 2.31146 14.0993 0.25
      vertex 2.31146 14.0993 0
    endloop
  endfacet
  facet normal 0.21497 0.976621 0
    outer loop
      vertex 2.31146 14.0993 0.25
      vertex 3.82231 13.7667 0.25
      vertex 2.31146 14.0993 0
    endloop
  endfacet
  facet normal 0.21497 0.976621 0
    outer loop
      vertex 2.31146 14.0993 0
      vertex 3.82231 13.7667 0.25
      vertex 3.82231 13.7667 0
    endloop
  endfacet
  facet normal 0.319302 0.947653 0
    outer loop
      vertex 3.82231 13.7667 0.25
      vertex 5.28835 13.2728 0.25
      vertex 3.82231 13.7667 0
    endloop
  endfacet
  facet normal 0.319302 0.947653 0
    outer loop
      vertex 3.82231 13.7667 0
      vertex 5.28835 13.2728 0.25
      vertex 5.28835 13.2728 0
    endloop
  endfacet
  facet normal 0.419889 0.907576 0
    outer loop
      vertex 5.28835 13.2728 0.25
      vertex 6.69239 12.6232 0.25
      vertex 5.28835 13.2728 0
    endloop
  endfacet
  facet normal 0.419889 0.907576 0
    outer loop
      vertex 5.28835 13.2728 0
      vertex 6.69239 12.6232 0.25
      vertex 6.69239 12.6232 0
    endloop
  endfacet
  facet normal 0.515554 0.856857 0
    outer loop
      vertex 6.69239 12.6232 0.25
      vertex 8.01796 11.8256 0.25
      vertex 6.69239 12.6232 0
    endloop
  endfacet
  facet normal 0.515554 0.856857 0
    outer loop
      vertex 6.69239 12.6232 0
      vertex 8.01796 11.8256 0.25
      vertex 8.01796 11.8256 0
    endloop
  endfacet
  facet normal 0.605174 0.796093 0
    outer loop
      vertex 8.01796 11.8256 0.25
      vertex 9.24953 10.8894 0.25
      vertex 8.01796 11.8256 0
    endloop
  endfacet
  facet normal 0.605174 0.796093 0
    outer loop
      vertex 8.01796 11.8256 0
      vertex 9.24953 10.8894 0.25
      vertex 9.24953 10.8894 0
    endloop
  endfacet
  facet normal 0.687699 0.725996 0
    outer loop
      vertex 9.24953 10.8894 0.25
      vertex 10.3727 9.82551 0.25
      vertex 9.24953 10.8894 0
    endloop
  endfacet
  facet normal 0.687699 0.725996 0
    outer loop
      vertex 9.24953 10.8894 0
      vertex 10.3727 9.82551 0.25
      vertex 10.3727 9.82551 0
    endloop
  endfacet
  facet normal 0.762162 0.647386 0
    outer loop
      vertex 10.3727 9.82551 0.25
      vertex 11.3742 8.64643 0.25
      vertex 10.3727 9.82551 0
    endloop
  endfacet
  facet normal 0.762162 0.647386 0
    outer loop
      vertex 10.3727 9.82551 0
      vertex 11.3742 8.64643 0.25
      vertex 11.3742 8.64643 0
    endloop
  endfacet
  facet normal 0.827689 0.561187 0
    outer loop
      vertex 11.3742 8.64643 0.25
      vertex 12.2423 7.36598 0.25
      vertex 11.3742 8.64643 0
    endloop
  endfacet
  facet normal 0.827689 0.561187 0
    outer loop
      vertex 11.3742 8.64643 0
      vertex 12.2423 7.36598 0.25
      vertex 12.2423 7.36598 0
    endloop
  endfacet
  facet normal 0.883512 0.468409 0
    outer loop
      vertex 12.2423 7.36598 0.25
      vertex 12.967 5.99917 0.25
      vertex 12.2423 7.36598 0
    endloop
  endfacet
  facet normal 0.883512 0.468409 0
    outer loop
      vertex 12.2423 7.36598 0
      vertex 12.967 5.99917 0.25
      vertex 12.967 5.99917 0
    endloop
  endfacet
  facet normal 0.928977 0.370138 0
    outer loop
      vertex 12.967 5.99917 0.25
      vertex 13.5396 4.56202 0.25
      vertex 12.967 5.99917 0
    endloop
  endfacet
  facet normal 0.928977 0.370138 0
    outer loop
      vertex 12.967 5.99917 0
      vertex 13.5396 4.56202 0.25
      vertex 13.5396 4.56202 0
    endloop
  endfacet
  facet normal 0.96355 0.267528 0
    outer loop
      vertex 13.5396 4.56202 0.25
      vertex 13.9535 3.07139 0.25
      vertex 13.5396 4.56202 0
    endloop
  endfacet
  facet normal 0.96355 0.267528 0
    outer loop
      vertex 13.5396 4.56202 0
      vertex 13.9535 3.07139 0.25
      vertex 13.9535 3.07139 0
    endloop
  endfacet
  facet normal 0.986827 0.161782 0
    outer loop
      vertex 13.9535 3.07139 0.25
      vertex 14.2037 1.54475 0.25
      vertex 13.9535 3.07139 0
    endloop
  endfacet
  facet normal 0.986827 0.161782 0
    outer loop
      vertex 13.9535 3.07139 0
      vertex 14.2037 1.54475 0.25
      vertex 14.2037 1.54475 0
    endloop
  endfacet
  facet normal 0.998533 0.0541388 0
    outer loop
      vertex 14.2037 1.54475 0.25
      vertex 14.2875 6.124e-15 0.25
      vertex 14.2037 1.54475 0
    endloop
  endfacet
  facet normal 0.998533 0.0541388 -7.52848e-16
    outer loop
      vertex 14.2037 1.54475 0
      vertex 14.2875 6.124e-15 0.25
      vertex 14.2875 2.62457e-15 0
    endloop
  endfacet
  facet normal 0.998533 -0.0541388 7.5782e-16
    outer loop
      vertex 14.2875 6.124e-15 0.25
      vertex 14.2037 -1.54475 0.25
      vertex 14.2875 2.62457e-15 0
    endloop
  endfacet
  facet normal 0.998533 -0.0541388 0
    outer loop
      vertex 14.2875 2.62457e-15 0
      vertex 14.2037 -1.54475 0.25
      vertex 14.2037 -1.54475 0
    endloop
  endfacet
  facet normal 0.986827 -0.161782 0
    outer loop
      vertex 14.2037 -1.54475 0.25
      vertex 13.9535 -3.07139 0.25
      vertex 14.2037 -1.54475 0
    endloop
  endfacet
  facet normal 0.986827 -0.161782 0
    outer loop
      vertex 14.2037 -1.54475 0
      vertex 13.9535 -3.07139 0.25
      vertex 13.9535 -3.07139 0
    endloop
  endfacet
  facet normal 0.96355 -0.267528 0
    outer loop
      vertex 13.9535 -3.07139 0.25
      vertex 13.5396 -4.56202 0.25
      vertex 13.9535 -3.07139 0
    endloop
  endfacet
  facet normal 0.96355 -0.267528 0
    outer loop
      vertex 13.9535 -3.07139 0
      vertex 13.5396 -4.56202 0.25
      vertex 13.5396 -4.56202 0
    endloop
  endfacet
  facet normal 0.928977 -0.370138 0
    outer loop
      vertex 13.5396 -4.56202 0.25
      vertex 12.967 -5.99917 0.25
      vertex 13.5396 -4.56202 0
    endloop
  endfacet
  facet normal 0.928977 -0.370138 0
    outer loop
      vertex 13.5396 -4.56202 0
      vertex 12.967 -5.99917 0.25
      vertex 12.967 -5.99917 0
    endloop
  endfacet
  facet normal 0.883512 -0.468409 0
    outer loop
      vertex 12.967 -5.99917 0.25
      vertex 12.2423 -7.36598 0.25
      vertex 12.967 -5.99917 0
    endloop
  endfacet
  facet normal 0.883512 -0.468409 0
    outer loop
      vertex 12.967 -5.99917 0
      vertex 12.2423 -7.36598 0.25
      vertex 12.2423 -7.36598 0
    endloop
  endfacet
  facet normal 0.827689 -0.561187 0
    outer loop
      vertex 12.2423 -7.36598 0.25
      vertex 11.3742 -8.64643 0.25
      vertex 12.2423 -7.36598 0
    endloop
  endfacet
  facet normal 0.827689 -0.561187 0
    outer loop
      vertex 12.2423 -7.36598 0
      vertex 11.3742 -8.64643 0.25
      vertex 11.3742 -8.64643 0
    endloop
  endfacet
  facet normal 0.762162 -0.647386 0
    outer loop
      vertex 11.3742 -8.64643 0.25
      vertex 10.3727 -9.82551 0.25
      vertex 11.3742 -8.64643 0
    endloop
  endfacet
  facet normal 0.762162 -0.647386 0
    outer loop
      vertex 11.3742 -8.64643 0
      vertex 10.3727 -9.82551 0.25
      vertex 10.3727 -9.82551 0
    endloop
  endfacet
  facet normal 0.687699 -0.725996 0
    outer loop
      vertex 10.3727 -9.82551 0.25
      vertex 9.24953 -10.8894 0.25
      vertex 10.3727 -9.82551 0
    endloop
  endfacet
  facet normal 0.687699 -0.725996 0
    outer loop
      vertex 10.3727 -9.82551 0
      vertex 9.24953 -10.8894 0.25
      vertex 9.24953 -10.8894 0
    endloop
  endfacet
  facet normal 0.605174 -0.796093 0
    outer loop
      vertex 9.24953 -10.8894 0.25
      vertex 8.01796 -11.8256 0.25
      vertex 9.24953 -10.8894 0
    endloop
  endfacet
  facet normal 0.605174 -0.796093 0
    outer loop
      vertex 9.24953 -10.8894 0
      vertex 8.01796 -11.8256 0.25
      vertex 8.01796 -11.8256 0
    endloop
  endfacet
  facet normal 0.515554 -0.856857 0
    outer loop
      vertex 8.01796 -11.8256 0.25
      vertex 6.69239 -12.6232 0.25
      vertex 8.01796 -11.8256 0
    endloop
  endfacet
  facet normal 0.515554 -0.856857 0
    outer loop
      vertex 8.01796 -11.8256 0
      vertex 6.69239 -12.6232 0.25
      vertex 6.69239 -12.6232 0
    endloop
  endfacet
  facet normal 0.419889 -0.907576 0
    outer loop
      vertex 6.69239 -12.6232 0.25
      vertex 5.28835 -13.2728 0.25
      vertex 6.69239 -12.6232 0
    endloop
  endfacet
  facet normal 0.419889 -0.907576 0
    outer loop
      vertex 6.69239 -12.6232 0
      vertex 5.28835 -13.2728 0.25
      vertex 5.28835 -13.2728 0
    endloop
  endfacet
  facet normal 0.319302 -0.947653 0
    outer loop
      vertex 5.28835 -13.2728 0.25
      vertex 3.82231 -13.7667 0.25
      vertex 5.28835 -13.2728 0
    endloop
  endfacet
  facet normal 0.319302 -0.947653 0
    outer loop
      vertex 5.28835 -13.2728 0
      vertex 3.82231 -13.7667 0.25
      vertex 3.82231 -13.7667 0
    endloop
  endfacet
  facet normal 0.21497 -0.976621 0
    outer loop
      vertex 3.82231 -13.7667 0.25
      vertex 2.31146 -14.0993 0.25
      vertex 3.82231 -13.7667 0
    endloop
  endfacet
  facet normal 0.21497 -0.976621 0
    outer loop
      vertex 3.82231 -13.7667 0
      vertex 2.31146 -14.0993 0.25
      vertex 2.31146 -14.0993 0
    endloop
  endfacet
  facet normal 0.108119 -0.994138 0
    outer loop
      vertex 2.31146 -14.0993 0.25
      vertex 0.77351 -14.2665 0.25
      vertex 2.31146 -14.0993 0
    endloop
  endfacet
  facet normal 0.108119 -0.994138 0
    outer loop
      vertex 2.31146 -14.0993 0
      vertex 0.77351 -14.2665 0.25
      vertex 0.77351 -14.2665 0
    endloop
  endfacet
  facet normal 0 -1 0
    outer loop
      vertex 0.77351 -14.2665 0.25
      vertex -0.77351 -14.2665 0.25
      vertex 0.77351 -14.2665 0
    endloop
  endfacet
  facet normal 0 -1 0
    outer loop
      vertex 0.77351 -14.2665 0
      vertex -0.77351 -14.2665 0.25
      vertex -0.77351 -14.2665 0
    endloop
  endfacet
  facet normal -0.108119 -0.994138 0
    outer loop
      vertex -0.77351 -14.2665 0.25
      vertex -2.31146 -14.0993 0.25
      vertex -0.77351 -14.2665 0
    endloop
  endfacet
  facet normal -0.108119 -0.994138 0
    outer loop
      vertex -0.77351 -14.2665 0
      vertex -2.31146 -14.0993 0.25
      vertex -2.31146 -14.0993 0
    endloop
  endfacet
  facet normal -0.21497 -0.976621 0
    outer loop
      vertex -2.31146 -14.0993 0.25
      vertex -3.82231 -13.7667 0.25
      vertex -2.31146 -14.0993 0
    endloop
  endfacet
  facet normal -0.21497 -0.976621 0
    outer loop
      vertex -2.31146 -14.0993 0
      vertex -3.82231 -13.7667 0.25
      vertex -3.82231 -13.7667 0
    endloop
  endfacet
  facet normal -0.319302 -0.947653 0
    outer loop
      vertex -3.82231 -13.7667 0.25
      vertex -5.28835 -13.2728 0.25
      vertex -3.82231 -13.7667 0
    endloop
  endfacet
  facet normal -0.319302 -0.947653 0
    outer loop
      vertex -3.82231 -13.7667 0
      vertex -5.28835 -13.2728 0.25
      vertex -5.28835 -13.2728 0
    endloop
  endfacet
  facet normal -0.419889 -0.907576 0
    outer loop
      vertex -5.28835 -13.2728 0.25
      vertex -6.69239 -12.6232 0.25
      vertex -5.28835 -13.2728 0
    endloop
  endfacet
  facet normal -0.419889 -0.907576 0
    outer loop
      vertex -5.28835 -13.2728 0
      vertex -6.69239 -12.6232 0.25
      vertex -6.69239 -12.6232 0
    endloop
  endfacet
  facet normal -0.515554 -0.856857 0
    outer loop
      vertex -6.69239 -12.6232 0.25
      vertex -8.01796 -11.8256 0.25
      vertex -6.69239 -12.6232 0
    endloop
  endfacet
  facet normal -0.515554 -0.856857 0
    outer loop
      vertex -6.69239 -12.6232 0
      vertex -8.01796 -11.8256 0.25
      vertex -8.01796 -11.8256 0
    endloop
  endfacet
  facet normal -0.605174 -0.796093 0
    outer loop
      vertex -8.01796 -11.8256 0.25
      vertex -9.24953 -10.8894 0.25
      vertex -8.01796 -11.8256 0
    endloop
  endfacet
  facet normal -0.605174 -0.796093 0
    outer loop
      vertex -8.01796 -11.8256 0
      vertex -9.24953 -10.8894 0.25
      vertex -9.24953 -10.8894 0
    endloop
  endfacet
  facet normal -0.687699 -0.725996 0
    outer loop
      vertex -9.24953 -10.8894 0.25
      vertex -10.3727 -9.82551 0.25
      vertex -9.24953 -10.8894 0
    endloop
  endfacet
  facet normal -0.687699 -0.725996 0
    outer loop
      vertex -9.24953 -10.8894 0
      vertex -10.3727 -9.82551 0.25
      vertex -10.3727 -9.82551 0
    endloop
  endfacet
  facet normal -0.762162 -0.647386 0
    outer loop
      vertex -10.3727 -9.82551 0.25
      vertex -11.3742 -8.64643 0.25
      vertex -10.3727 -9.82551 0
    endloop
  endfacet
  facet normal -0.762162 -0.647386 0
    outer loop
      vertex -10.3727 -9.82551 0
      vertex -11.3742 -8.64643 0.25
      vertex -11.3742 -8.64643 0
    endloop
  endfacet
  facet normal -0.827689 -0.561187 0
    outer loop
      vertex -11.3742 -8.64643 0.25
      vertex -12.2423 -7.36598 0.25
      vertex -11.3742 -8.64643 0
    endloop
  endfacet
  facet normal -0.827689 -0.561187 0
    outer loop
      vertex -11.3742 -8.64643 0
      vertex -12.2423 -7.36598 0.25
      vertex -12.2423 -7.36598 0
    endloop
  endfacet
  facet normal -0.883512 -0.468409 0
    outer loop
      vertex -12.2423 -7.36598 0.25
      vertex -12.967 -5.99917 0.25
      vertex -12.2423 -7.36598 0
    endloop
  endfacet
  facet normal -0.883512 -0.468409 0
    outer loop
      vertex -12.2423 -7.36598 0
      vertex -12.967 -5.99917 0.25
      vertex -12.967 -5.99917 0
    endloop
  endfacet
  facet normal -0.928977 -0.370138 0
    outer loop
      vertex -12.967 -5.99917 0.25
      vertex -13.5396 -4.56202 0.25
      vertex -12.967 -5.99917 0
    endloop
  endfacet
  facet normal -0.928977 -0.370138 0
    outer loop
      vertex -12.967 -5.99917 0
      vertex -13.5396 -4.56202 0.25
      vertex -13.5396 -4.56202 0
    endloop
  endfacet
  facet normal -0.96355 -0.267528 0
    outer loop
      vertex -13.5396 -4.56202 0.25
      vertex -13.9535 -3.07139 0.25
      vertex -13.5396 -4.56202 0
    endloop
  endfacet
  facet normal -0.96355 -0.267528 0
    outer loop
      vertex -13.5396 -4.56202 0
      vertex -13.9535 -3.07139 0.25
      vertex -13.9535 -3.07139 0
    endloop
  endfacet
  facet normal -0.986827 -0.161782 0
    outer loop
      vertex -13.9535 -3.07139 0.25
      vertex -14.2037 -1.54475 0.25
      vertex -13.9535 -3.07139 0
    endloop
  endfacet
  facet normal -0.986827 -0.161782 0
    outer loop
      vertex -13.9535 -3.07139 0
      vertex -14.2037 -1.54475 0.25
      vertex -14.2037 -1.54475 0
    endloop
  endfacet
  facet normal -0.998533 -0.0541388 0
    outer loop
      vertex -14.2037 -1.54475 0.25
      vertex -14.2875 8.74857e-16 0.25
      vertex -14.2037 -1.54475 0
    endloop
  endfacet
  facet normal -0.998533 -0.0541388 0
    outer loop
      vertex -14.2037 -1.54475 0
      vertex -14.2875 8.74857e-16 0.25
      vertex -14.2875 8.74857e-16 0
    endloop
  endfacet
  facet normal -0.998533 0.0541388 0
    outer loop
      vertex -14.2875 8.74857e-16 0.25
      vertex -14.2037 1.54475 0.25
      vertex -14.2875 8.74857e-16 0
    endloop
  endfacet
  facet normal 1 0 0
    outer loop
      vertex -5 5 0.25
      vertex -5 -5 0.25
      vertex -5 5 0
    endloop
  endfacet
  facet normal 1 0 0
    outer loop
      vertex -5 -5 0.25
      vertex -5 -5 0
      vertex -5 5 0
    endloop
  endfacet
  facet normal -1 0 0
    outer loop
      vertex -5.5 5.5 -0.25
      vertex -5.5 -5.5 -0.25
      vertex -5.5 5.5 0
    endloop
  endfacet
  facet normal -1 0 0
    outer loop
      vertex -5.5 -5.5 -0.25
      vertex -5.5 -5.5 0
      vertex -5.5 5.5 0
    endloop
  endfacet
  facet normal 0 0 1
    outer loop
      vertex 10.3727 -9.82551 0.25
      vertex 11.3742 -8.64643 0.25
      vertex 5 -5 0.25
    endloop
  endfacet
  facet normal 0 0 1
    outer loop
      vertex 11.3742 -8.64643 0.25
      vertex 12.2423 -7.36598 0.25
      vertex 5 -5 0.25
    endloop
  endfacet
  facet normal 0 0 1
    outer loop
      vertex 13.9535 3.07139 0.25
      vertex 13.5396 4.56202 0.25
      vertex 5 5 0.25
    endloop
  endfacet
  facet normal 0 0 1
    outer loop
      vertex 13.5396 4.56202 0.25
      vertex 12.967 5.99917 0.25
      vertex 5 5 0.25
    endloop
  endfacet
  facet normal 0 0 1
    outer loop
      vertex -10.3727 -9.82551 0.25
      vertex -9.24953 -10.8894 0.25
      vertex -5 -5 0.25
    endloop
  endfacet
  facet normal 0 0 1
    outer loop
      vertex -9.24953 -10.8894 0.25
      vertex -8.01796 -11.8256 0.25
      vertex -5 -5 0.25
    endloop
  endfacet
  facet normal 0 0 1
    outer loop
      vertex 12.2423 -7.36598 0.25
      vertex 12.967 -5.99917 0.25
      vertex 5 -5 0.25
    endloop
  endfacet
  facet normal 0 0 1
    outer loop
      vertex 12.967 -5.99917 0.25
      vertex 13.5396 -4.56202 0.25
      vertex 5 -5 0.25
    endloop
  endfacet
  facet normal 0 0 1
    outer loop
      vertex 5 -5 0.25
      vertex 13.5396 -4.56202 0.25
      vertex 13.9535 -3.07139 0.25
    endloop
  endfacet
  facet normal 0 0 1
    outer loop
      vertex -8.01796 -11.8256 0.25
      vertex -6.69239 -12.6232 0.25
      vertex -5 -5 0.25
    endloop
  endfacet
  facet normal 0 0 1
    outer loop
      vertex -6.69239 -12.6232 0.25
      vertex -5.28835 -13.2728 0.25
      vertex -5 -5 0.25
    endloop
  endfacet
  facet normal 0 0 1
    outer loop
      vertex -5 -5 0.25
      vertex -5.28835 -13.2728 0.25
      vertex -3.82231 -13.7667 0.25
    endloop
  endfacet
  facet normal 0 0 1
    outer loop
      vertex -13.9535 -3.07139 0.25
      vertex -13.5396 -4.56202 0.25
      vertex -5 -5 0.25
    endloop
  endfacet
  facet normal 0 0 1
    outer loop
      vertex -13.5396 -4.56202 0.25
      vertex -12.967 -5.99917 0.25
      vertex -5 -5 0.25
    endloop
  endfacet
  facet normal 0 0 1
    outer loop
      vertex 10.3727 9.82551 0.25
      vertex 9.24953 10.8894 0.25
      vertex 5 5 0.25
    endloop
  endfacet
  facet normal 0 0 1
    outer loop
      vertex 9.24953 10.8894 0.25
      vertex 8.01796 11.8256 0.25
      vertex 5 5 0.25
    endloop
  endfacet
  facet normal 0 0 1
    outer loop
      vertex 5 5 0.25
      vertex 8.01796 11.8256 0.25
      vertex 6.69239 12.6232 0.25
    endloop
  endfacet
  facet normal 0 0 1
    outer loop
      vertex 12.967 5.99917 0.25
      vertex 12.2423 7.36598 0.25
      vertex 5 5 0.25
    endloop
  endfacet
  facet normal 0 0 1
    outer loop
      vertex 12.2423 7.36598 0.25
      vertex 11.3742 8.64643 0.25
      vertex 5 5 0.25
    endloop
  endfacet
  facet normal 0 0 1
    outer loop
      vertex 5 5 0.25
      vertex 11.3742 8.64643 0.25
      vertex 10.3727 9.82551 0.25
    endloop
  endfacet
  facet normal 0 0 1
    outer loop
      vertex -10.3727 9.82551 0.25
      vertex -11.3742 8.64643 0.25
      vertex -5 5 0.25
    endloop
  endfacet
  facet normal 0 0 1
    outer loop
      vertex -11.3742 8.64643 0.25
      vertex -12.2423 7.36598 0.25
      vertex -5 5 0.25
    endloop
  endfacet
  facet normal 0 0 1
    outer loop
      vertex -12.967 -5.99917 0.25
      vertex -12.2423 -7.36598 0.25
      vertex -5 -5 0.25
    endloop
  endfacet
  facet normal 0 0 1
    outer loop
      vertex -12.2423 -7.36598 0.25
      vertex -11.3742 -8.64643 0.25
      vertex -5 -5 0.25
    endloop
  endfacet
  facet normal 0 0 1
    outer loop
      vertex -5 -5 0.25
      vertex -11.3742 -8.64643 0.25
      vertex -10.3727 -9.82551 0.25
    endloop
  endfacet
  facet normal 0 0 1
    outer loop
      vertex 13.9535 -3.07139 0.25
      vertex 14.2037 -1.54475 0.25
      vertex 5 -5 0.25
    endloop
  endfacet
  facet normal 0 0 1
    outer loop
      vertex 14.2037 -1.54475 0.25
      vertex 14.2875 6.124e-15 0.25
      vertex 5 -5 0.25
    endloop
  endfacet
  facet normal 0 0 1
    outer loop
      vertex 5 -5 0.25
      vertex 14.2875 6.124e-15 0.25
      vertex 5 5 0.25
    endloop
  endfacet
  facet normal 0 0 1
    outer loop
      vertex 14.2875 6.124e-15 0.25
      vertex 14.2037 1.54475 0.25
      vertex 5 5 0.25
    endloop
  endfacet
  facet normal 0 0 1
    outer loop
      vertex 5 5 0.25
      vertex 14.2037 1.54475 0.25
      vertex 13.9535 3.07139 0.25
    endloop
  endfacet
  facet normal 0 0 1
    outer loop
      vertex -12.2423 7.36598 0.25
      vertex -12.967 5.99917 0.25
      vertex -5 5 0.25
    endloop
  endfacet
  facet normal 0 0 1
    outer loop
      vertex -12.967 5.99917 0.25
      vertex -13.5396 4.56202 0.25
      vertex -5 5 0.25
    endloop
  endfacet
  facet normal 0 0 1
    outer loop
      vertex -5 5 0.25
      vertex -13.5396 4.56202 0.25
      vertex -13.9535 3.07139 0.25
    endloop
  endfacet
  facet normal 0 0 1
    outer loop
      vertex 6.69239 12.6232 0.25
      vertex 5.28835 13.2728 0.25
      vertex 5 5 0.25
    endloop
  endfacet
  facet normal 0 0 1
    outer loop
      vertex 5.28835 13.2728 0.25
      vertex 3.82231 13.7667 0.25
      vertex 5 5 0.25
    endloop
  endfacet
  facet normal 0 0 1
    outer loop
      vertex 5 5 0.25
      vertex 3.82231 13.7667 0.25
      vertex 2.31146 14.0993 0.25
    endloop
  endfacet
  facet normal 0 0 1
    outer loop
      vertex -3.82231 13.7667 0.25
      vertex -5.28835 13.2728 0.25
      vertex -5 5 0.25
    endloop
  endfacet
  facet normal 0 0 1
    outer loop
      vertex -5.28835 13.2728 0.25
      vertex -6.69239 12.6232 0.25
      vertex -5 5 0.25
    endloop
  endfacet
  facet normal 0 0 1
    outer loop
      vertex -3.82231 -13.7667 0.25
      vertex -2.31146 -14.0993 0.25
      vertex -5 -5 0.25
    endloop
  endfacet
  facet normal 0 0 1
    outer loop
      vertex -2.31146 -14.0993 0.25
      vertex -0.77351 -14.2665 0.25
      vertex -5 -5 0.25
    endloop
  endfacet
  facet normal 0 0 1
    outer loop
      vertex -5 -5 0.25
      vertex -0.77351 -14.2665 0.25
      vertex 5 -5 0.25
    endloop
  endfacet
  facet normal 0 0 1
    outer loop
      vertex -0.77351 -14.2665 0.25
      vertex 0.77351 -14.2665 0.25
      vertex 5 -5 0.25
    endloop
  endfacet
  facet normal 0 0 1
    outer loop
      vertex 5 -5 0.25
      vertex 0.77351 -14.2665 0.25
      vertex 2.31146 -14.0993 0.25
    endloop
  endfacet
  facet normal 0 0 1
    outer loop
      vertex 2.31146 -14.0993 0.25
      vertex 3.82231 -13.7667 0.25
      vertex 5 -5 0.25
    endloop
  endfacet
  facet normal 0 0 1
    outer loop
      vertex 3.82231 -13.7667 0.25
      vertex 5.28835 -13.2728 0.25
      vertex 5 -5 0.25
    endloop
  endfacet
  facet normal 0 0 1
    outer loop
      vertex 5 -5 0.25
      vertex 5.28835 -13.2728 0.25
      vertex 6.69239 -12.6232 0.25
    endloop
  endfacet
  facet normal 0 0 1
    outer loop
      vertex 6.69239 -12.6232 0.25
      vertex 8.01796 -11.8256 0.25
      vertex 5 -5 0.25
    endloop
  endfacet
  facet normal 0 0 1
    outer loop
      vertex 8.01796 -11.8256 0.25
      vertex 9.24953 -10.8894 0.25
      vertex 5 -5 0.25
    endloop
  endfacet
  facet normal 0 0 1
    outer loop
      vertex 5 -5 0.25
      vertex 9.24953 -10.8894 0.25
      vertex 10.3727 -9.82551 0.25
    endloop
  endfacet
  facet normal 0 0 1
    outer loop
      vertex -13.9535 3.07139 0.25
      vertex -14.2037 1.54475 0.25
      vertex -5 5 0.25
    endloop
  endfacet
  facet normal 0 0 1
    outer loop
      vertex -14.2037 1.54475 0.25
      vertex -14.2875 8.74857e-16 0.25
      vertex -5 5 0.25
    endloop
  endfacet
  facet normal 0 0 1
    outer loop
      vertex -5 5 0.25
      vertex -14.2875 8.74857e-16 0.25
      vertex -5 -5 0.25
    endloop
  endfacet
  facet normal 0 0 1
    outer loop
      vertex -14.2875 8.74857e-16 0.25
      vertex -14.2037 -1.54475 0.25
      vertex -5 -5 0.25
    endloop
  endfacet
  facet normal 0 0 1
    outer loop
      vertex -5 -5 0.25
      vertex -14.2037 -1.54475 0.25
      vertex -13.9535 -3.07139 0.25
    endloop
  endfacet
  facet normal 0 0 1
    outer loop
      vertex 2.31146 14.0993 0.25
      vertex 0.77351 14.2665 0.25
      vertex 5 5 0.25
    endloop
  endfacet
  facet normal 0 0 1
    outer loop
      vertex 0.77351 14.2665 0.25
      vertex -0.77351 14.2665 0.25
      vertex 5 5 0.25
    endloop
  endfacet
  facet normal 0 0 1
    outer loop
      vertex 5 5 0.25
      vertex -0.77351 14.2665 0.25
      vertex -5 5 0.25
    endloop
  endfacet
  facet normal 0 0 1
    outer loop
      vertex -0.77351 14.2665 0.25
      vertex -2.31146 14.0993 0.25
      vertex -5 5 0.25
    endloop
  endfacet
  facet normal 0 0 1
    outer loop
      vertex -5 5 0.25
      vertex -2.31146 14.0993 0.25
      vertex -3.82231 13.7667 0.25
    endloop
  endfacet
  facet normal 0 0 1
    outer loop
      vertex -6.69239 12.6232 0.25
      vertex -8.01796 11.8256 0.25
      vertex -5 5 0.25
    endloop
  endfacet
  facet normal 0 0 1
    outer loop
      vertex -8.01796 11.8256 0.25
      vertex -9.24953 10.8894 0.25
      vertex -5 5 0.25
    endloop
  endfacet
  facet normal 0 0 1
    outer loop
      vertex -5 5 0.25
      vertex -9.24953 10.8894 0.25
      vertex -10.3727 9.82551 0.25
    endloop
  endfacet
endsolid Onshape
