solid Onshape
  facet normal 0 1 0
    outer loop
      vertex -50 0 -50
      vertex -50 0 50
      vertex 50 0 -50
    endloop
  endfacet
  facet normal 0 1 0
    outer loop
      vertex -50 0 50
      vertex 50 0 50
      vertex 50 0 -50
    endloop
  endfacet
  facet normal 0 -1 0
    outer loop
      vertex -50 -1 50
      vertex -50 -1 -50
      vertex 50 -1 50
    endloop
  endfacet
  facet normal 0 -1 0
    outer loop
      vertex -50 -1 -50
      vertex 50 -1 -50
      vertex 50 -1 50
    endloop
  endfacet
  facet normal 0 0 -1
    outer loop
      vertex 50 -1 -50
      vertex -50 -1 -50
      vertex 50 0 -50
    endloop
  endfacet
  facet normal 0 0 -1
    outer loop
      vertex -50 -1 -50
      vertex -50 0 -50
      vertex 50 0 -50
    endloop
  endfacet
  facet normal -1 0 0
    outer loop
      vertex -50 -1 -50
      vertex -50 -1 50
      vertex -50 0 -50
    endloop
  endfacet
  facet normal -1 0 0
    outer loop
      vertex -50 -1 50
      vertex -50 0 50
      vertex -50 0 -50
    endloop
  endfacet
  facet normal 1 0 0
    outer loop
      vertex 50 -1 50
      vertex 50 -1 -50
      vertex 50 0 50
    endloop
  endfacet
  facet normal 1 0 0
    outer loop
      vertex 50 -1 -50
      vertex 50 0 -50
      vertex 50 0 50
    endloop
  endfacet
  facet normal 0 0 1
    outer loop
      vertex -50 -1 50
      vertex 50 -1 50
      vertex -50 0 50
    endloop
  endfacet
  facet normal 0 0 1
    outer loop
      vertex 50 -1 50
      vertex 50 0 50
      vertex -50 0 50
    endloop
  endfacet
endsolid Onshape
